<!DOCTYPE svg PUBLIC "-//W3C//DTD SVG 1.1//EN" "http://www.w3.org/Graphics/SVG/1.1/DTD/svg11.dtd">
<svg xmlns="http://www.w3.org/2000/svg" xmlns:xlink="http://www.w3.org/1999/xlink" width="1241px" height="124px" version="1.1"><defs><clipPath id="mx-clip-4-71-62-26-0"><rect x="4" y="71" width="62" height="26"/></clipPath><clipPath id="mx-clip-4-97-62-28-0"><rect x="4" y="97" width="62" height="28"/></clipPath><clipPath id="mx-clip-94-71-62-26-0"><rect x="94" y="71" width="62" height="26"/></clipPath><clipPath id="mx-clip-94-97-62-28-0"><rect x="94" y="97" width="62" height="28"/></clipPath><clipPath id="mx-clip-184-71-62-26-0"><rect x="184" y="71" width="62" height="26"/></clipPath><clipPath id="mx-clip-184-97-62-28-0"><rect x="184" y="97" width="62" height="28"/></clipPath><clipPath id="mx-clip-274-71-62-26-0"><rect x="274" y="71" width="62" height="26"/></clipPath><clipPath id="mx-clip-274-97-62-28-0"><rect x="274" y="97" width="62" height="28"/></clipPath><clipPath id="mx-clip-364-71-62-26-0"><rect x="364" y="71" width="62" height="26"/></clipPath><clipPath id="mx-clip-364-97-62-28-0"><rect x="364" y="97" width="62" height="28"/></clipPath><clipPath id="mx-clip-454-71-62-26-0"><rect x="454" y="71" width="62" height="26"/></clipPath><clipPath id="mx-clip-454-97-62-28-0"><rect x="454" y="97" width="62" height="28"/></clipPath><clipPath id="mx-clip-544-71-62-26-0"><rect x="544" y="71" width="62" height="26"/></clipPath><clipPath id="mx-clip-544-97-62-28-0"><rect x="544" y="97" width="62" height="28"/></clipPath><clipPath id="mx-clip-634-71-62-26-0"><rect x="634" y="71" width="62" height="26"/></clipPath><clipPath id="mx-clip-634-97-62-28-0"><rect x="634" y="97" width="62" height="28"/></clipPath><clipPath id="mx-clip-814-71-62-26-0"><rect x="814" y="71" width="62" height="26"/></clipPath><clipPath id="mx-clip-814-97-62-28-0"><rect x="814" y="97" width="62" height="28"/></clipPath><clipPath id="mx-clip-724-71-62-26-0"><rect x="724" y="71" width="62" height="26"/></clipPath><clipPath id="mx-clip-724-97-62-28-0"><rect x="724" y="97" width="62" height="28"/></clipPath><clipPath id="mx-clip-904-71-62-26-0"><rect x="904" y="71" width="62" height="26"/></clipPath><clipPath id="mx-clip-904-97-62-28-0"><rect x="904" y="97" width="62" height="28"/></clipPath><clipPath id="mx-clip-994-71-62-26-0"><rect x="994" y="71" width="62" height="26"/></clipPath><clipPath id="mx-clip-994-97-62-28-0"><rect x="994" y="97" width="62" height="28"/></clipPath><clipPath id="mx-clip-1084-71-62-26-0"><rect x="1084" y="71" width="62" height="26"/></clipPath><clipPath id="mx-clip-1084-97-62-28-0"><rect x="1084" y="97" width="62" height="28"/></clipPath><clipPath id="mx-clip-1174-71-62-26-0"><rect x="1174" y="71" width="62" height="26"/></clipPath><clipPath id="mx-clip-1174-97-62-28-0"><rect x="1174" y="97" width="62" height="28"/></clipPath></defs><g transform="translate(0.5,0.5)"><path d="M 288 40 Q 288 10 215.5 10 Q 143 10 143 33.63" fill="none" stroke="#000000" stroke-miterlimit="10" pointer-events="none"/><path d="M 143 38.88 L 139.5 31.88 L 143 33.63 L 146.5 31.88 Z" fill="#000000" stroke="#000000" stroke-miterlimit="10" pointer-events="none"/><path d="M 378 40 Q 378 10 288 10 Q 198 10 198 33.63" fill="none" stroke="#000000" stroke-miterlimit="10" pointer-events="none"/><path d="M 198 38.88 L 194.5 31.88 L 198 33.63 L 201.5 31.88 Z" fill="#000000" stroke="#000000" stroke-miterlimit="10" pointer-events="none"/><path d="M 468 40 Q 468 20 350.5 20 Q 233 20 233 33.63" fill="none" stroke="#000000" stroke-miterlimit="10" pointer-events="none"/><path d="M 233 38.88 L 229.5 31.88 L 233 33.63 L 236.5 31.88 Z" fill="#000000" stroke="#000000" stroke-miterlimit="10" pointer-events="none"/><path d="M 558 40 Q 558 20 485.5 20 Q 413 20 413 33.63" fill="none" stroke="#000000" stroke-miterlimit="10" pointer-events="none"/><path d="M 413 38.88 L 409.5 31.88 L 413 33.63 L 416.5 31.88 Z" fill="#000000" stroke="#000000" stroke-miterlimit="10" pointer-events="none"/><path d="M 648 40 Q 648 10 431.5 10 Q 215 10 215 33.63" fill="none" stroke="#000000" stroke-miterlimit="10" pointer-events="none"/><path d="M 215 38.88 L 211.5 31.88 L 215 33.63 L 218.5 31.88 Z" fill="#000000" stroke="#000000" stroke-miterlimit="10" pointer-events="none"/><path d="M 738 40 Q 738 0 395.5 0 Q 53 0 53 33.63" fill="none" stroke="#000000" stroke-miterlimit="10" pointer-events="none"/><path d="M 53 38.88 L 49.5 31.88 L 53 33.63 L 56.5 31.88 Z" fill="#000000" stroke="#000000" stroke-miterlimit="10" pointer-events="none"/><path d="M 828 40 Q 828 10 710.5 10 Q 593 10 593 33.63" fill="none" stroke="#000000" stroke-miterlimit="10" pointer-events="none"/><path d="M 593 38.88 L 589.5 31.88 L 593 33.63 L 596.5 31.88 Z" fill="#000000" stroke="#000000" stroke-miterlimit="10" pointer-events="none"/><path d="M 918 40 Q 918 10 800.5 10 Q 683 10 683 33.63" fill="none" stroke="#000000" stroke-miterlimit="10" pointer-events="none"/><path d="M 683 38.88 L 679.5 31.88 L 683 33.63 L 686.5 31.88 Z" fill="#000000" stroke="#000000" stroke-miterlimit="10" pointer-events="none"/><path d="M 1008 40 Q 1008 10 890.5 10 Q 773 10 773 33.63" fill="none" stroke="#000000" stroke-miterlimit="10" pointer-events="none"/><path d="M 773 38.88 L 769.5 31.88 L 773 33.63 L 776.5 31.88 Z" fill="#000000" stroke="#000000" stroke-miterlimit="10" pointer-events="none"/><path d="M 1098 40 Q 1098 20 1025.5 20 Q 953 20 953 33.63" fill="none" stroke="#000000" stroke-miterlimit="10" pointer-events="none"/><path d="M 953 38.88 L 949.5 31.88 L 953 33.63 L 956.5 31.88 Z" fill="#000000" stroke="#000000" stroke-miterlimit="10" pointer-events="none"/><path d="M 1188 40 Q 1188 20 1115.5 20 Q 1043 20 1043 33.63" fill="none" stroke="#000000" stroke-miterlimit="10" pointer-events="none"/><path d="M 1043 38.88 L 1039.5 31.88 L 1043 33.63 L 1046.5 31.88 Z" fill="#000000" stroke="#000000" stroke-miterlimit="10" pointer-events="none"/><path d="M 90 79 Q 90 79 76.37 79" fill="none" stroke="#000000" stroke-miterlimit="10" pointer-events="none"/><path d="M 71.12 79 L 78.12 75.5 L 76.37 79 L 78.12 82.5 Z" fill="#000000" stroke="#000000" stroke-miterlimit="10" pointer-events="none"/><path d="M 180 79 Q 180 79 166.37 79" fill="none" stroke="#000000" stroke-miterlimit="10" pointer-events="none"/><path d="M 161.12 79 L 168.12 75.5 L 166.37 79 L 168.12 82.5 Z" fill="#000000" stroke="#000000" stroke-miterlimit="10" pointer-events="none"/><rect x="0" y="40" width="70" height="80" rx="11.7" ry="11.7" fill="#ffffff" stroke="#000000" pointer-events="none"/><path d="M 70 66 L 70 51.7 Q 70 40 58.3 40 L 11.7 40 Q 0 40 0 51.7 L 0 66 Z" fill="#009900" stroke="#000000" stroke-miterlimit="10" pointer-events="none"/><g fill="#FFFFFF" font-family="Verdana" text-anchor="middle" font-size="14px"><text x="34.5" y="58.5">S1@T1</text></g><g fill="#000000" font-family="Helvetica" clip-path="url(#mx-clip-4-71-62-26-0)" text-anchor="middle" font-size="14px"><text x="34.5" y="85.5">Insert 'C'</text></g><g fill="#000000" font-family="Helvetica" clip-path="url(#mx-clip-4-97-62-28-0)" text-anchor="middle" font-size="14px"><text x="34.5" y="111.5">ø</text></g><rect x="90" y="40" width="70" height="80" rx="11.7" ry="11.7" fill="#ffffff" stroke="#000000" pointer-events="none"/><path d="M 160 66 L 160 51.7 Q 160 40 148.3 40 L 101.7 40 Q 90 40 90 51.7 L 90 66 Z" fill="#009900" stroke="#000000" stroke-miterlimit="10" pointer-events="none"/><g fill="#FFFFFF" font-family="Verdana" text-anchor="middle" font-size="14px"><text x="124.5" y="58.5">S1@T2</text></g><g fill="#000000" font-family="Helvetica" clip-path="url(#mx-clip-94-71-62-26-0)" text-anchor="middle" font-size="14px"><text x="124.5" y="85.5">Insert 'M'</text></g><g fill="#000000" font-family="Helvetica" clip-path="url(#mx-clip-94-97-62-28-0)" text-anchor="middle" font-size="14px"><text x="124.5" y="111.5">S1@T1</text></g><rect x="180" y="40" width="70" height="80" rx="11.7" ry="11.7" fill="#ffffff" stroke="#000000" pointer-events="none"/><path d="M 250 66 L 250 51.7 Q 250 40 238.3 40 L 191.7 40 Q 180 40 180 51.7 L 180 66 Z" fill="#009900" stroke="#000000" stroke-miterlimit="10" pointer-events="none"/><g fill="#FFFFFF" font-family="Verdana" text-anchor="middle" font-size="14px"><text x="214.5" y="58.5">S1@T3</text></g><g fill="#000000" font-family="Helvetica" clip-path="url(#mx-clip-184-71-62-26-0)" text-anchor="middle" font-size="14px"><text x="214.5" y="85.5">Insert 'D'</text></g><g fill="#000000" font-family="Helvetica" clip-path="url(#mx-clip-184-97-62-28-0)" text-anchor="middle" font-size="14px"><text x="214.5" y="111.5">S1@T2</text></g><rect x="270" y="40" width="70" height="80" rx="11.7" ry="11.7" fill="#ffffff" stroke="#000000" pointer-events="none"/><path d="M 340 66 L 340 51.7 Q 340 40 328.3 40 L 281.7 40 Q 270 40 270 51.7 L 270 66 Z" fill="#009900" stroke="#000000" stroke-miterlimit="10" pointer-events="none"/><g fill="#FFFFFF" font-family="Verdana" text-anchor="middle" font-size="14px"><text x="304.5" y="58.5">S1@T6</text></g><g fill="#000000" font-family="Helvetica" clip-path="url(#mx-clip-274-71-62-26-0)" text-anchor="middle" font-size="14px"><text x="304.5" y="85.5">Delete</text></g><g fill="#000000" font-family="Helvetica" clip-path="url(#mx-clip-274-97-62-28-0)" text-anchor="middle" font-size="14px"><text x="304.5" y="111.5">S1@T2</text></g><rect x="360" y="40" width="70" height="80" rx="11.7" ry="11.7" fill="#ffffff" stroke="#000000" pointer-events="none"/><path d="M 430 66 L 430 51.7 Q 430 40 418.3 40 L 371.7 40 Q 360 40 360 51.7 L 360 66 Z" fill="#0066cc" stroke="#000000" stroke-miterlimit="10" pointer-events="none"/><g fill="#FFFFFF" font-family="Verdana" text-anchor="middle" font-size="14px"><text x="394.5" y="58.5">S2@T6</text></g><g fill="#000000" font-family="Helvetica" clip-path="url(#mx-clip-364-71-62-26-0)" text-anchor="middle" font-size="14px"><text x="394.5" y="85.5">Insert 'D'</text></g><g fill="#000000" font-family="Helvetica" clip-path="url(#mx-clip-364-97-62-28-0)" text-anchor="middle" font-size="14px"><text x="394.5" y="111.5">S1@T3</text></g><rect x="450" y="40" width="70" height="80" rx="11.7" ry="11.7" fill="#ffffff" stroke="#000000" pointer-events="none"/><path d="M 520 66 L 520 51.7 Q 520 40 508.3 40 L 461.7 40 Q 450 40 450 51.7 L 450 66 Z" fill="#009900" stroke="#000000" stroke-miterlimit="10" pointer-events="none"/><g fill="#FFFFFF" font-family="Verdana" text-anchor="middle" font-size="14px"><text x="484.5" y="58.5">S1@T7</text></g><g fill="#000000" font-family="Helvetica" clip-path="url(#mx-clip-454-71-62-26-0)" text-anchor="middle" font-size="14px"><text x="484.5" y="85.5">Delete</text></g><g fill="#000000" font-family="Helvetica" clip-path="url(#mx-clip-454-97-62-28-0)" text-anchor="middle" font-size="14px"><text x="484.5" y="111.5">S1@T3</text></g><rect x="540" y="40" width="70" height="80" rx="11.7" ry="11.7" fill="#ffffff" stroke="#000000" pointer-events="none"/><path d="M 610 66 L 610 51.7 Q 610 40 598.3 40 L 551.7 40 Q 540 40 540 51.7 L 540 66 Z" fill="#0066cc" stroke="#000000" stroke-miterlimit="10" pointer-events="none"/><g fill="#FFFFFF" font-family="Verdana" text-anchor="middle" font-size="14px"><text x="574.5" y="58.5">S2@T7</text></g><g fill="#000000" font-family="Helvetica" clip-path="url(#mx-clip-544-71-62-26-0)" text-anchor="middle" font-size="14px"><text x="574.5" y="85.5">Insert 'E'</text></g><g fill="#000000" font-family="Helvetica" clip-path="url(#mx-clip-544-97-62-28-0)" text-anchor="middle" font-size="14px"><text x="574.5" y="111.5">S2@T6</text></g><rect x="630" y="40" width="70" height="80" rx="11.7" ry="11.7" fill="#ffffff" stroke="#000000" pointer-events="none"/><path d="M 700 66 L 700 51.7 Q 700 40 688.3 40 L 641.7 40 Q 630 40 630 51.7 L 630 66 Z" fill="#cc0066" stroke="#000000" stroke-miterlimit="10" pointer-events="none"/><g fill="#FFFFFF" font-family="Verdana" text-anchor="middle" font-size="14px"><text x="664.5" y="58.5">S3@T7</text></g><g fill="#000000" font-family="Helvetica" clip-path="url(#mx-clip-634-71-62-26-0)" text-anchor="middle" font-size="14px"><text x="664.5" y="85.5">Insert 'A'</text></g><g fill="#000000" font-family="Helvetica" clip-path="url(#mx-clip-634-97-62-28-0)" text-anchor="middle" font-size="14px"><text x="664.5" y="111.5">S1@T3</text></g><rect x="810" y="40" width="70" height="80" rx="11.7" ry="11.7" fill="#ffffff" stroke="#000000" pointer-events="none"/><path d="M 880 66 L 880 51.7 Q 880 40 868.3 40 L 821.7 40 Q 810 40 810 51.7 L 810 66 Z" fill="#0066cc" stroke="#000000" stroke-miterlimit="10" pointer-events="none"/><g fill="#FFFFFF" font-family="Verdana" text-anchor="middle" font-size="14px"><text x="844.5" y="58.5">S2@T8</text></g><g fill="#000000" font-family="Helvetica" clip-path="url(#mx-clip-814-71-62-26-0)" text-anchor="middle" font-size="14px"><text x="844.5" y="85.5">Insert 'L'</text></g><g fill="#000000" font-family="Helvetica" clip-path="url(#mx-clip-814-97-62-28-0)" text-anchor="middle" font-size="14px"><text x="844.5" y="111.5">S2@T7</text></g><rect x="720" y="40" width="70" height="80" rx="11.7" ry="11.7" fill="#ffffff" stroke="#000000" pointer-events="none"/><path d="M 790 66 L 790 51.7 Q 790 40 778.3 40 L 731.7 40 Q 720 40 720 51.7 L 720 66 Z" fill="#009900" stroke="#000000" stroke-miterlimit="10" pointer-events="none"/><g fill="#FFFFFF" font-family="Verdana" text-anchor="middle" font-size="14px"><text x="754.5" y="58.5">S1@T8</text></g><g fill="#000000" font-family="Helvetica" clip-path="url(#mx-clip-724-71-62-26-0)" text-anchor="middle" font-size="14px"><text x="754.5" y="85.5">Insert 'T'</text></g><g fill="#000000" font-family="Helvetica" clip-path="url(#mx-clip-724-97-62-28-0)" text-anchor="middle" font-size="14px"><text x="754.5" y="111.5">S1@T1</text></g><rect x="900" y="40" width="70" height="80" rx="11.7" ry="11.7" fill="#ffffff" stroke="#000000" pointer-events="none"/><path d="M 970 66 L 970 51.7 Q 970 40 958.3 40 L 911.7 40 Q 900 40 900 51.7 L 900 66 Z" fill="#cc0066" stroke="#000000" stroke-miterlimit="10" pointer-events="none"/><g fill="#FFFFFF" font-family="Verdana" text-anchor="middle" font-size="14px"><text x="934.5" y="58.5">S3@T8</text></g><g fill="#000000" font-family="Helvetica" clip-path="url(#mx-clip-904-71-62-26-0)" text-anchor="middle" font-size="14px"><text x="934.5" y="85.5">Insert 'L'</text></g><g fill="#000000" font-family="Helvetica" clip-path="url(#mx-clip-904-97-62-28-0)" text-anchor="middle" font-size="14px"><text x="934.5" y="111.5">S3@T7</text></g><rect x="990" y="40" width="70" height="80" rx="11.7" ry="11.7" fill="#ffffff" stroke="#000000" pointer-events="none"/><path d="M 1060 66 L 1060 51.7 Q 1060 40 1048.3 40 L 1001.7 40 Q 990 40 990 51.7 L 990 66 Z" fill="#009900" stroke="#000000" stroke-miterlimit="10" pointer-events="none"/><g fill="#FFFFFF" font-family="Verdana" text-anchor="middle" font-size="14px"><text x="1024.5" y="58.5">S1@T9</text></g><g fill="#000000" font-family="Helvetica" clip-path="url(#mx-clip-994-71-62-26-0)" text-anchor="middle" font-size="14px"><text x="1024.5" y="85.5">Insert 'R'</text></g><g fill="#000000" font-family="Helvetica" clip-path="url(#mx-clip-994-97-62-28-0)" text-anchor="middle" font-size="14px"><text x="1024.5" y="111.5">S1@T8</text></g><rect x="1080" y="40" width="70" height="80" rx="11.7" ry="11.7" fill="#ffffff" stroke="#000000" pointer-events="none"/><path d="M 1150 66 L 1150 51.7 Q 1150 40 1138.3 40 L 1091.7 40 Q 1080 40 1080 51.7 L 1080 66 Z" fill="#cc0066" stroke="#000000" stroke-miterlimit="10" pointer-events="none"/><g fill="#FFFFFF" font-family="Verdana" text-anchor="middle" font-size="14px"><text x="1114.5" y="58.5">S3@T9</text></g><g fill="#000000" font-family="Helvetica" clip-path="url(#mx-clip-1084-71-62-26-0)" text-anchor="middle" font-size="14px"><text x="1114.5" y="85.5">Insert 'T'</text></g><g fill="#000000" font-family="Helvetica" clip-path="url(#mx-clip-1084-97-62-28-0)" text-anchor="middle" font-size="14px"><text x="1114.5" y="111.5">S3@T8</text></g><rect x="1170" y="40" width="70" height="80" rx="11.7" ry="11.7" fill="#ffffff" stroke="#000000" pointer-events="none"/><path d="M 1240 66 L 1240 51.7 Q 1240 40 1228.3 40 L 1181.7 40 Q 1170 40 1170 51.7 L 1170 66 Z" fill="#009900" stroke="#000000" stroke-miterlimit="10" pointer-events="none"/><g fill="#FFFFFF" font-family="Verdana" text-anchor="middle" font-size="14px"><text x="1204.5" y="58.5">S1@TA</text></g><g fill="#000000" font-family="Helvetica" clip-path="url(#mx-clip-1174-71-62-26-0)" text-anchor="middle" font-size="14px"><text x="1204.5" y="85.5">Insert 'L'</text></g><g fill="#000000" font-family="Helvetica" clip-path="url(#mx-clip-1174-97-62-28-0)" text-anchor="middle" font-size="14px"><text x="1204.5" y="111.5">S1@T9</text></g></g></svg>