<?xml version="1.0" encoding="UTF-8" standalone="no"?>
<!DOCTYPE svg PUBLIC "-//W3C//DTD SVG 1.1//EN" "http://www.w3.org/Graphics/SVG/1.1/DTD/svg11.dtd">
<svg width="100%" height="100%" viewBox="0 0 957 139" version="1.1" xmlns="http://www.w3.org/2000/svg" xmlns:xlink="http://www.w3.org/1999/xlink" xml:space="preserve" xmlns:serif="http://www.serif.com/" style="fill-rule:evenodd;clip-rule:evenodd;">
    <g transform="matrix(2.66667,0,0,2.66667,-140.121,-381.333)">
        <g transform="matrix(0.5,0,0,-0.5,22.25,320.375)">
            <path d="M319.3,343.5L764.45,343.5C770.967,343.5 776.25,338.217 776.25,331.7L776.25,264.55C776.25,258.033 770.967,252.75 764.45,252.75L319.3,252.75C312.783,252.75 307.5,258.033 307.5,264.55L307.5,331.7C307.5,338.217 312.783,343.5 319.3,343.5Z" style="fill:none;stroke:black;stroke-width:1px;"/>
        </g>
        <g transform="matrix(1,0,0,1,0,-446)">
            <path d="M349.135,604L366.615,604C369.037,604 371,605.963 371,608.385L371,629.615C371,632.037 369.037,634 366.615,634L349.135,634C346.713,634 344.75,632.037 344.75,629.615L344.75,608.385C344.75,605.963 346.713,604 349.135,604Z" style="fill:white;fill-rule:nonzero;stroke:black;stroke-width:0.5px;"/>
        </g>
        <g transform="matrix(1,0,0,1,0,-466.25)">
            <path d="M371,634L371,628.635C371,625.712 369.537,624.25 366.61,624.25L349.14,624.25C346.213,624.25 344.75,625.712 344.75,628.635L344.75,634L371,634Z" style="fill:rgb(0,153,0);fill-rule:nonzero;stroke:black;stroke-width:0.5px;stroke-miterlimit:10;"/>
        </g>
        <g>
            <text x="348px" y="164.5px" style="font-family:'Verdana', sans-serif;font-size:5.25px;fill:white;">S1@T7</text>
            <text x="350.037px" y="175px" style="font-family:'Helvetica';font-size:5.25px;">Delete</text>
            <text x="348.686px" y="184.75px" style="font-family:'Helvetica';font-size:5.25px;">S1@T3</text>
        </g>
        <g transform="matrix(1,0,0,1,0,-446)">
            <path d="M381.385,604L398.865,604C401.287,604 403.25,605.963 403.25,608.385L403.25,629.615C403.25,632.037 401.287,634 398.865,634L381.385,634C378.963,634 377,632.037 377,629.615L377,608.385C377,605.963 378.963,604 381.385,604Z" style="fill:white;fill-rule:nonzero;stroke:black;stroke-width:0.5px;"/>
        </g>
        <g transform="matrix(1,0,0,1,0,-466.25)">
            <path d="M403.25,634L403.25,628.635C403.25,625.712 401.787,624.25 398.86,624.25L381.39,624.25C378.463,624.25 377,625.712 377,628.635L377,634L403.25,634Z" style="fill:rgb(0,102,204);fill-rule:nonzero;stroke:black;stroke-width:0.5px;stroke-miterlimit:10;"/>
        </g>
        <g>
            <text x="380.25px" y="164.5px" style="font-family:'Verdana', sans-serif;font-size:5.25px;fill:white;">S2@T8</text>
            <text x="380.119px" y="175px" style="font-family:'Helvetica';font-size:5.25px;">Insert &apos;L&apos;</text>
            <text x="380.936px" y="184.75px" style="font-family:'Helvetica';font-size:5.25px;">S2@T7</text>
        </g>
        <g transform="matrix(1,0,0,1,0,-446)">
            <path d="M187.885,604L205.365,604C207.787,604 209.75,605.963 209.75,608.385L209.75,629.615C209.75,632.037 207.787,634 205.365,634L187.885,634C185.463,634 183.5,632.037 183.5,629.615L183.5,608.385C183.5,605.963 185.463,604 187.885,604Z" style="fill:white;fill-rule:nonzero;stroke:black;stroke-width:0.5px;"/>
        </g>
        <g transform="matrix(1,0,0,1,0,-466.25)">
            <path d="M209.75,634L209.75,628.635C209.75,625.712 208.288,624.25 205.365,624.25L187.885,624.25C184.962,624.25 183.5,625.712 183.5,628.635L183.5,634L209.75,634Z" style="fill:rgb(0,153,0);fill-rule:nonzero;stroke:black;stroke-width:0.5px;stroke-miterlimit:10;"/>
        </g>
        <g>
            <text x="186.75px" y="164.5px" style="font-family:'Verdana', sans-serif;font-size:5.25px;fill:white;">S1@T8</text>
            <text x="186.475px" y="175px" style="font-family:'Helvetica';font-size:5.25px;">Insert &apos;T&apos;</text>
            <text x="187.436px" y="184.75px" style="font-family:'Helvetica';font-size:5.25px;">S1@T1</text>
        </g>
        <g transform="matrix(1,0,0,1,0,-446)">
            <path d="M284.635,604L302.115,604C304.537,604 306.5,605.963 306.5,608.385L306.5,629.615C306.5,632.037 304.537,634 302.115,634L284.635,634C282.213,634 280.25,632.037 280.25,629.615L280.25,608.385C280.25,605.963 282.213,604 284.635,604Z" style="fill:white;fill-rule:nonzero;stroke:black;stroke-width:0.5px;"/>
        </g>
        <g transform="matrix(1,0,0,1,0,-466.25)">
            <path d="M306.5,634L306.5,628.635C306.5,625.712 305.037,624.25 302.11,624.25L284.64,624.25C281.713,624.25 280.25,625.712 280.25,628.635L280.25,634L306.5,634Z" style="fill:rgb(204,0,102);fill-rule:nonzero;stroke:black;stroke-width:0.5px;stroke-miterlimit:10;"/>
        </g>
        <g>
            <text x="283.5px" y="164.5px" style="font-family:'Verdana', sans-serif;font-size:5.25px;fill:white;">S3@T8</text>
            <text x="283.369px" y="175px" style="font-family:'Helvetica';font-size:5.25px;">Insert &apos;L&apos;</text>
            <text x="284.186px" y="184.75px" style="font-family:'Helvetica';font-size:5.25px;">S3@T7</text>
        </g>
        <g transform="matrix(1,0,0,1,0,-446)">
            <path d="M220.135,604L237.615,604C240.037,604 242,605.963 242,608.385L242,629.615C242,632.037 240.037,634 237.615,634L220.135,634C217.713,634 215.75,632.037 215.75,629.615L215.75,608.385C215.75,605.963 217.713,604 220.135,604Z" style="fill:white;fill-rule:nonzero;stroke:black;stroke-width:0.5px;"/>
        </g>
        <g transform="matrix(1,0,0,1,0,-466.25)">
            <path d="M242,634L242,628.635C242,625.712 240.537,624.25 237.61,624.25L220.14,624.25C217.213,624.25 215.75,625.712 215.75,628.635L215.75,634L242,634Z" style="fill:rgb(0,153,0);fill-rule:nonzero;stroke:black;stroke-width:0.5px;stroke-miterlimit:10;"/>
        </g>
        <g>
            <text x="219px" y="164.5px" style="font-family:'Verdana', sans-serif;font-size:5.25px;fill:white;">S1@T9</text>
            <text x="218.433px" y="175px" style="font-family:'Helvetica';font-size:5.25px;">Insert &apos;R&apos;</text>
            <text x="219.686px" y="184.75px" style="font-family:'Helvetica';font-size:5.25px;">S1@T8</text>
        </g>
        <g transform="matrix(1,0,0,1,0,-446)">
            <path d="M316.885,604L334.365,604C336.787,604 338.75,605.963 338.75,608.385L338.75,629.615C338.75,632.037 336.787,634 334.365,634L316.885,634C314.463,634 312.5,632.037 312.5,629.615L312.5,608.385C312.5,605.963 314.463,604 316.885,604Z" style="fill:white;fill-rule:nonzero;stroke:black;stroke-width:0.5px;"/>
        </g>
        <g transform="matrix(1,0,0,1,0,-466.25)">
            <path d="M338.75,634L338.75,628.635C338.75,625.712 337.287,624.25 334.36,624.25L316.89,624.25C313.963,624.25 312.5,625.712 312.5,628.635L312.5,634L338.75,634Z" style="fill:rgb(204,0,102);fill-rule:nonzero;stroke:black;stroke-width:0.5px;stroke-miterlimit:10;"/>
        </g>
        <g>
            <text x="315.75px" y="164.5px" style="font-family:'Verdana', sans-serif;font-size:5.25px;fill:white;">S3@T9</text>
            <text x="315.475px" y="175px" style="font-family:'Helvetica';font-size:5.25px;">Insert &apos;T&apos;</text>
            <text x="316.436px" y="184.75px" style="font-family:'Helvetica';font-size:5.25px;">S3@T8</text>
        </g>
        <g transform="matrix(1,0,0,1,0,-446)">
            <path d="M252.385,604L269.865,604C272.287,604 274.25,605.963 274.25,608.385L274.25,629.615C274.25,632.037 272.287,634 269.865,634L252.385,634C249.963,634 248,632.037 248,629.615L248,608.385C248,605.963 249.963,604 252.385,604Z" style="fill:white;fill-rule:nonzero;stroke:black;stroke-width:0.5px;"/>
        </g>
        <g transform="matrix(1,0,0,1,0,-466.25)">
            <path d="M274.25,634L274.25,628.635C274.25,625.712 272.787,624.25 269.86,624.25L252.39,624.25C249.463,624.25 248,625.712 248,628.635L248,634L274.25,634Z" style="fill:rgb(0,153,0);fill-rule:nonzero;stroke:black;stroke-width:0.5px;stroke-miterlimit:10;"/>
        </g>
        <g>
            <text x="251.125px" y="164.5px" style="font-family:'Verdana', sans-serif;font-size:5.25px;fill:white;">S1@</text>
            <text x="263.301px" y="164.5px" style="font-family:'Verdana', sans-serif;font-size:5.25px;fill:white;">T</text>
            <text x="266.236px" y="164.5px" style="font-family:'Verdana', sans-serif;font-size:5.25px;fill:white;">A</text>
            <text x="251.118px" y="175px" style="font-family:'Helvetica';font-size:5.25px;">Insert &apos;L&apos;</text>
            <text x="251.936px" y="184.75px" style="font-family:'Helvetica';font-size:5.25px;">S1@T9</text>
        </g>
        <g transform="matrix(1,0,0,1,0,-496.25)">
            <rect x="182.688" y="639.25" width="66.75" height="9.75" style="fill:white;"/>
        </g>
        <g>
            <text x="182.746px" y="150.875px" style="font-family:'Verdana', sans-serif;font-size:8.25px;">Sequence OR</text>
            <text x="238.14px" y="150.875px" style="font-family:'Verdana', sans-serif;font-size:8.25px;">D</text>
            <text x="244.296px" y="150.875px" style="font-family:'Verdana', sans-serif;font-size:8.25px;">T</text>
        </g>
        <g>
            <path d="M66.428,180.473C64.687,181.097 63.048,181.409 61.51,181.409C58.821,181.409 56.654,180.602 55.011,178.99C53.367,177.377 52.545,175.256 52.545,172.628C52.545,169.965 53.363,167.808 54.998,166.155C56.632,164.503 58.768,163.677 61.405,163.677C62.899,163.677 64.499,163.932 66.204,164.441L66.204,166.828C64.463,166.028 62.837,165.628 61.326,165.628C59.577,165.628 58.137,166.27 57.008,167.553C55.879,168.836 55.314,170.471 55.314,172.457C55.314,174.461 55.951,176.1 57.226,177.375C58.5,178.649 60.139,179.286 62.143,179.286C63.356,179.286 64.784,178.97 66.428,178.337L66.428,180.473Z" style="fill-rule:nonzero;"/>
            <path d="M69.183,181L69.183,164.085L74.285,164.085C79.91,164.085 82.723,166.792 82.723,172.207C82.723,174.711 82.112,176.737 80.89,178.284C80.125,179.26 79.183,179.956 78.062,180.374C76.942,180.791 75.45,181 73.586,181L69.183,181ZM71.78,179.049L73.085,179.049C75.564,179.049 77.328,178.557 78.379,177.572C79.429,176.588 79.954,174.936 79.954,172.615C79.954,170.26 79.479,168.574 78.53,167.559C77.581,166.544 75.999,166.037 73.784,166.037L71.78,166.037L71.78,179.049Z" style="fill-rule:nonzero;"/>
            <path d="M83.896,181L90.567,164.085L93.164,164.085L99.835,181L97.08,181L95.484,176.768L87.759,176.768L86.137,181L83.896,181ZM88.537,174.817L94.707,174.817L91.608,166.735L88.537,174.817Z" style="fill-rule:nonzero;"/>
            <path d="M101.72,181L101.72,164.085L106.822,164.085C112.447,164.085 115.26,166.792 115.26,172.207C115.26,174.711 114.649,176.737 113.427,178.284C112.663,179.26 111.72,179.956 110.599,180.374C109.479,180.791 107.987,181 106.124,181L101.72,181ZM104.317,179.049L105.623,179.049C108.101,179.049 109.865,178.557 110.916,177.572C111.966,176.588 112.491,174.936 112.491,172.615C112.491,170.26 112.017,168.574 111.067,167.559C110.118,166.544 108.536,166.037 106.321,166.037L104.317,166.037L104.317,179.049Z" style="fill-rule:nonzero;"/>
            <path d="M119.123,181L119.123,164.085L130.553,164.085L130.553,166.037L121.72,166.037L121.72,171.165L129.208,171.165L129.208,173.116L121.72,173.116L121.72,179.049L131.159,179.049L131.159,181L119.123,181Z" style="fill-rule:nonzero;"/>
        </g>
        <g>
            <path d="M54.966,159.497L54.966,159.873C54.648,159.75 54.365,159.688 54.118,159.688C53.727,159.688 53.531,159.82 53.531,160.083C53.531,160.19 53.568,160.276 53.641,160.342C53.714,160.407 53.85,160.474 54.048,160.543L54.324,160.639L54.588,160.729C54.997,160.873 55.201,161.116 55.201,161.459C55.201,161.72 55.097,161.928 54.888,162.084C54.679,162.24 54.4,162.318 54.05,162.318C53.807,162.318 53.492,162.266 53.107,162.162L53.107,161.734C53.491,161.906 53.81,161.993 54.063,161.993C54.277,161.993 54.448,161.951 54.575,161.867C54.702,161.782 54.766,161.669 54.766,161.527C54.766,161.419 54.728,161.333 54.653,161.27C54.578,161.207 54.422,161.132 54.186,161.046L53.896,160.94C53.607,160.833 53.407,160.724 53.295,160.611C53.183,160.498 53.127,160.348 53.127,160.16C53.127,159.907 53.213,159.711 53.385,159.572C53.557,159.432 53.799,159.363 54.111,159.363C54.365,159.363 54.65,159.407 54.966,159.497Z" style="fill:rgb(52,87,81);fill-rule:nonzero;"/>
            <path d="M55.865,162.25L55.865,161.925L56.733,161.925L56.733,159.396L55.865,159.591L55.865,159.323L57.166,158.917L57.166,161.925L58.033,161.925L58.033,162.25L55.865,162.25Z" style="fill:rgb(52,87,81);fill-rule:nonzero;"/>
            <path d="M60.286,162.177C60.018,162.28 59.785,162.331 59.587,162.331C59.216,162.331 58.915,162.182 58.682,161.884C58.449,161.586 58.332,161.2 58.332,160.727C58.332,160.197 58.464,159.762 58.727,159.423C58.99,159.084 59.327,158.915 59.739,158.915C60.32,158.915 60.611,159.239 60.611,159.888L60.611,161.329L60.881,161.329L60.881,161.6L60.286,161.6L60.286,160.87C60.117,161.374 59.907,161.626 59.655,161.626C59.513,161.626 59.397,161.55 59.308,161.397C59.219,161.245 59.174,161.049 59.174,160.809C59.174,160.478 59.254,160.197 59.414,159.967C59.575,159.737 59.771,159.622 60.004,159.622C60.085,159.622 60.179,159.646 60.286,159.692C60.23,159.355 60.04,159.187 59.717,159.187C59.419,159.187 59.168,159.336 58.964,159.634C58.76,159.932 58.657,160.298 58.657,160.732C58.657,161.12 58.748,161.438 58.93,161.688C59.112,161.937 59.344,162.061 59.626,162.061C59.817,162.061 60.037,162 60.286,161.879L60.286,162.177ZM60.286,160.325L60.286,159.945C60.193,159.885 60.108,159.855 60.029,159.855C59.866,159.855 59.737,159.936 59.642,160.099C59.547,160.261 59.499,160.482 59.499,160.76C59.499,161.131 59.566,161.313 59.699,161.305C59.782,161.301 59.88,161.206 59.991,161.02C60.103,160.833 60.201,160.602 60.286,160.325Z" style="fill:rgb(52,87,81);fill-rule:nonzero;"/>
            <path d="M62.019,162.25L62.019,159.756L60.936,159.756L60.936,159.431L63.538,159.431L63.538,159.756L62.454,159.756L62.454,162.25L62.019,162.25Z" style="fill:rgb(52,87,81);fill-rule:nonzero;"/>
            <path d="M63.999,162.25L63.999,161.925L64.867,161.925L64.867,159.396L63.999,159.591L63.999,159.323L65.3,158.917L65.3,161.925L66.168,161.925L66.168,162.25L63.999,162.25Z" style="fill:rgb(52,87,81);fill-rule:nonzero;"/>
            <path d="M71.235,159.497L71.235,159.873C70.917,159.75 70.634,159.688 70.386,159.688C69.995,159.688 69.8,159.82 69.8,160.083C69.8,160.19 69.836,160.276 69.91,160.342C69.983,160.407 70.118,160.474 70.316,160.543L70.593,160.639L70.857,160.729C71.265,160.873 71.47,161.116 71.47,161.459C71.47,161.72 71.365,161.928 71.157,162.084C70.948,162.24 70.668,162.318 70.318,162.318C70.075,162.318 69.761,162.266 69.376,162.162L69.376,161.734C69.76,161.906 70.078,161.993 70.332,161.993C70.545,161.993 70.716,161.951 70.844,161.867C70.971,161.782 71.035,161.669 71.035,161.527C71.035,161.419 70.997,161.333 70.922,161.27C70.846,161.207 70.69,161.132 70.455,161.046L70.165,160.94C69.876,160.833 69.676,160.724 69.564,160.611C69.452,160.498 69.396,160.348 69.396,160.16C69.396,159.907 69.482,159.711 69.654,159.572C69.826,159.432 70.068,159.363 70.38,159.363C70.633,159.363 70.918,159.407 71.235,159.497Z" style="fill:rgb(52,87,81);fill-rule:nonzero;"/>
            <path d="M72.133,162.25L72.133,161.925L73.001,161.925L73.001,159.396L72.133,159.591L72.133,159.323L73.434,158.917L73.434,161.925L74.302,161.925L74.302,162.25L72.133,162.25Z" style="fill:rgb(52,87,81);fill-rule:nonzero;"/>
            <path d="M76.554,162.177C76.286,162.28 76.053,162.331 75.855,162.331C75.485,162.331 75.183,162.182 74.95,161.884C74.717,161.586 74.601,161.2 74.601,160.727C74.601,160.197 74.732,159.762 74.995,159.423C75.258,159.084 75.595,158.915 76.007,158.915C76.589,158.915 76.879,159.239 76.879,159.888L76.879,161.329L77.15,161.329L77.15,161.6L76.554,161.6L76.554,160.87C76.386,161.374 76.176,161.626 75.924,161.626C75.781,161.626 75.666,161.55 75.576,161.397C75.487,161.245 75.442,161.049 75.442,160.809C75.442,160.478 75.523,160.197 75.683,159.967C75.843,159.737 76.04,159.622 76.273,159.622C76.354,159.622 76.447,159.646 76.554,159.692C76.499,159.355 76.309,159.187 75.985,159.187C75.688,159.187 75.437,159.336 75.233,159.634C75.028,159.932 74.926,160.298 74.926,160.732C74.926,161.12 75.017,161.438 75.198,161.688C75.38,161.937 75.612,162.061 75.895,162.061C76.085,162.061 76.305,162 76.554,161.879L76.554,162.177ZM76.554,160.325L76.554,159.945C76.462,159.885 76.376,159.855 76.297,159.855C76.135,159.855 76.006,159.936 75.91,160.099C75.815,160.261 75.768,160.482 75.768,160.76C75.768,161.131 75.834,161.313 75.968,161.305C76.051,161.301 76.148,161.206 76.26,161.02C76.371,160.833 76.469,160.602 76.554,160.325Z" style="fill:rgb(52,87,81);fill-rule:nonzero;"/>
            <path d="M78.288,162.25L78.288,159.756L77.205,159.756L77.205,159.431L79.806,159.431L79.806,159.756L78.723,159.756L78.723,162.25L78.288,162.25Z" style="fill:rgb(52,87,81);fill-rule:nonzero;"/>
            <path d="M80.375,162.235L80.375,161.852C80.67,161.955 80.896,162.006 81.054,162.006C81.25,162.006 81.409,161.946 81.529,161.825C81.649,161.704 81.709,161.545 81.709,161.349C81.709,161.129 81.638,160.96 81.495,160.842C81.352,160.723 81.149,160.664 80.885,160.664L80.674,160.664L80.674,160.352L80.799,160.352C80.991,160.352 81.131,160.339 81.22,160.315C81.309,160.291 81.39,160.243 81.463,160.171C81.579,160.057 81.636,159.91 81.636,159.73C81.636,159.579 81.59,159.46 81.498,159.373C81.406,159.286 81.281,159.242 81.122,159.242C80.901,159.242 80.667,159.301 80.421,159.42L80.421,159.04C80.66,158.956 80.902,158.915 81.146,158.915C81.437,158.915 81.663,158.98 81.827,159.111C81.99,159.242 82.072,159.424 82.072,159.657C82.072,160.021 81.876,160.293 81.485,160.475C81.942,160.631 82.17,160.923 82.17,161.349C82.17,161.649 82.069,161.888 81.866,162.065C81.663,162.243 81.39,162.331 81.045,162.331C80.832,162.331 80.608,162.299 80.375,162.235Z" style="fill:rgb(52,87,81);fill-rule:nonzero;"/>
            <path d="M87.503,159.497L87.503,159.873C87.185,159.75 86.903,159.688 86.655,159.688C86.264,159.688 86.068,159.82 86.068,160.083C86.068,160.19 86.105,160.276 86.178,160.342C86.251,160.407 86.387,160.474 86.585,160.543L86.862,160.639L87.125,160.729C87.534,160.873 87.738,161.116 87.738,161.459C87.738,161.72 87.634,161.928 87.425,162.084C87.216,162.24 86.937,162.318 86.587,162.318C86.344,162.318 86.03,162.266 85.644,162.162L85.644,161.734C86.028,161.906 86.347,161.993 86.6,161.993C86.814,161.993 86.985,161.951 87.112,161.867C87.24,161.782 87.303,161.669 87.303,161.527C87.303,161.419 87.266,161.333 87.19,161.27C87.115,161.207 86.959,161.132 86.723,161.046L86.433,160.94C86.145,160.833 85.944,160.724 85.832,160.611C85.72,160.498 85.664,160.348 85.664,160.16C85.664,159.907 85.75,159.711 85.922,159.572C86.094,159.432 86.336,159.363 86.648,159.363C86.902,159.363 87.187,159.407 87.503,159.497Z" style="fill:rgb(52,87,81);fill-rule:nonzero;"/>
            <path d="M88.51,162.235L88.51,161.852C88.804,161.955 89.03,162.006 89.188,162.006C89.385,162.006 89.543,161.946 89.663,161.825C89.783,161.704 89.843,161.545 89.843,161.349C89.843,161.129 89.772,160.96 89.629,160.842C89.486,160.723 89.283,160.664 89.019,160.664L88.808,160.664L88.808,160.352L88.934,160.352C89.125,160.352 89.266,160.339 89.354,160.315C89.443,160.291 89.524,160.243 89.597,160.171C89.713,160.057 89.771,159.91 89.771,159.73C89.771,159.579 89.725,159.46 89.632,159.373C89.54,159.286 89.415,159.242 89.257,159.242C89.035,159.242 88.802,159.301 88.556,159.42L88.556,159.04C88.794,158.956 89.036,158.915 89.281,158.915C89.571,158.915 89.797,158.98 89.961,159.111C90.124,159.242 90.206,159.424 90.206,159.657C90.206,160.021 90.01,160.293 89.619,160.475C90.076,160.631 90.305,160.923 90.305,161.349C90.305,161.649 90.203,161.888 90,162.065C89.797,162.243 89.524,162.331 89.18,162.331C88.966,162.331 88.742,162.299 88.51,162.235Z" style="fill:rgb(52,87,81);fill-rule:nonzero;"/>
            <path d="M92.823,162.177C92.555,162.28 92.322,162.331 92.124,162.331C91.753,162.331 91.452,162.182 91.219,161.884C90.986,161.586 90.869,161.2 90.869,160.727C90.869,160.197 91.001,159.762 91.264,159.423C91.527,159.084 91.864,158.915 92.276,158.915C92.857,158.915 93.148,159.239 93.148,159.888L93.148,161.329L93.418,161.329L93.418,161.6L92.823,161.6L92.823,160.87C92.654,161.374 92.444,161.626 92.192,161.626C92.05,161.626 91.934,161.55 91.845,161.397C91.756,161.245 91.711,161.049 91.711,160.809C91.711,160.478 91.791,160.197 91.952,159.967C92.112,159.737 92.309,159.622 92.542,159.622C92.622,159.622 92.716,159.646 92.823,159.692C92.767,159.355 92.577,159.187 92.254,159.187C91.956,159.187 91.705,159.336 91.501,159.634C91.297,159.932 91.195,160.298 91.195,160.732C91.195,161.12 91.285,161.438 91.467,161.688C91.649,161.937 91.881,162.061 92.164,162.061C92.354,162.061 92.574,162 92.823,161.879L92.823,162.177ZM92.823,160.325L92.823,159.945C92.73,159.885 92.645,159.855 92.566,159.855C92.403,159.855 92.274,159.936 92.179,160.099C92.084,160.261 92.036,160.482 92.036,160.76C92.036,161.131 92.103,161.313 92.236,161.305C92.32,161.301 92.417,161.206 92.528,161.02C92.64,160.833 92.738,160.602 92.823,160.325Z" style="fill:rgb(52,87,81);fill-rule:nonzero;"/>
            <path d="M94.556,162.25L94.556,159.756L93.473,159.756L93.473,159.431L96.075,159.431L96.075,159.756L94.991,159.756L94.991,162.25L94.556,162.25Z" style="fill:rgb(52,87,81);fill-rule:nonzero;"/>
            <path d="M96.747,162.25C96.773,162.016 96.825,161.806 96.903,161.622C96.981,161.437 97.16,161.096 97.441,160.6L98.12,159.405L96.571,159.405L96.571,158.998L98.531,158.998L98.531,159.363L98.426,159.539C97.727,160.716 97.34,161.62 97.263,162.25L96.747,162.25Z" style="fill:rgb(52,87,81);fill-rule:nonzero;"/>
            <path d="M103.772,159.497L103.772,159.873C103.454,159.75 103.171,159.688 102.924,159.688C102.532,159.688 102.337,159.82 102.337,160.083C102.337,160.19 102.374,160.276 102.447,160.342C102.52,160.407 102.656,160.474 102.853,160.543L103.13,160.639L103.394,160.729C103.802,160.873 104.007,161.116 104.007,161.459C104.007,161.72 103.902,161.928 103.694,162.084C103.485,162.24 103.206,162.318 102.855,162.318C102.612,162.318 102.298,162.266 101.913,162.162L101.913,161.734C102.297,161.906 102.615,161.993 102.869,161.993C103.083,161.993 103.253,161.951 103.381,161.867C103.508,161.782 103.572,161.669 103.572,161.527C103.572,161.419 103.534,161.333 103.459,161.27C103.383,161.207 103.228,161.132 102.992,161.046L102.702,160.94C102.413,160.833 102.213,160.724 102.101,160.611C101.989,160.498 101.933,160.348 101.933,160.16C101.933,159.907 102.019,159.711 102.191,159.572C102.363,159.432 102.605,159.363 102.917,159.363C103.17,159.363 103.455,159.407 103.772,159.497Z" style="fill:rgb(52,87,81);fill-rule:nonzero;"/>
            <path d="M104.633,162.25L104.633,161.87C104.812,161.524 105.078,161.176 105.433,160.824L105.628,160.628C105.898,160.36 106.033,160.09 106.033,159.818C106.033,159.643 105.981,159.504 105.878,159.399C105.775,159.294 105.636,159.242 105.464,159.242C105.254,159.242 105.004,159.318 104.714,159.47L104.714,159.088C104.984,158.974 105.248,158.917 105.505,158.917C105.803,158.917 106.042,158.998 106.223,159.16C106.404,159.321 106.494,159.535 106.494,159.8C106.494,159.971 106.452,160.133 106.369,160.283C106.285,160.434 106.144,160.603 105.945,160.789L105.76,160.962C105.42,161.279 105.216,161.581 105.147,161.87L106.477,161.87L106.477,162.25L104.633,162.25Z" style="fill:rgb(52,87,81);fill-rule:nonzero;"/>
            <path d="M109.091,162.177C108.823,162.28 108.59,162.331 108.393,162.331C108.022,162.331 107.72,162.182 107.487,161.884C107.254,161.586 107.138,161.2 107.138,160.727C107.138,160.197 107.269,159.762 107.532,159.423C107.795,159.084 108.133,158.915 108.544,158.915C109.126,158.915 109.417,159.239 109.417,159.888L109.417,161.329L109.687,161.329L109.687,161.6L109.091,161.6L109.091,160.87C108.923,161.374 108.713,161.626 108.461,161.626C108.319,161.626 108.203,161.55 108.114,161.397C108.024,161.245 107.979,161.049 107.979,160.809C107.979,160.478 108.06,160.197 108.22,159.967C108.38,159.737 108.577,159.622 108.81,159.622C108.891,159.622 108.984,159.646 109.091,159.692C109.036,159.355 108.846,159.187 108.522,159.187C108.225,159.187 107.974,159.336 107.77,159.634C107.565,159.932 107.463,160.298 107.463,160.732C107.463,161.12 107.554,161.438 107.736,161.688C107.917,161.937 108.149,162.061 108.432,162.061C108.623,162.061 108.842,162 109.091,161.879L109.091,162.177ZM109.091,160.325L109.091,159.945C108.999,159.885 108.913,159.855 108.834,159.855C108.672,159.855 108.543,159.936 108.448,160.099C108.352,160.261 108.305,160.482 108.305,160.76C108.305,161.131 108.371,161.313 108.505,161.305C108.588,161.301 108.686,161.206 108.797,161.02C108.908,160.833 109.006,160.602 109.091,160.325Z" style="fill:rgb(52,87,81);fill-rule:nonzero;"/>
            <path d="M110.825,162.25L110.825,159.756L109.742,159.756L109.742,159.431L112.343,159.431L112.343,159.756L111.26,159.756L111.26,162.25L110.825,162.25Z" style="fill:rgb(52,87,81);fill-rule:nonzero;"/>
            <path d="M114.688,159.038L114.688,159.409C114.428,159.296 114.222,159.24 114.068,159.24C113.794,159.24 113.583,159.357 113.433,159.591C113.284,159.826 113.209,160.157 113.209,160.587C113.401,160.308 113.648,160.169 113.952,160.169C114.207,160.169 114.423,160.268 114.6,160.465C114.777,160.662 114.866,160.902 114.866,161.187C114.866,161.519 114.77,161.793 114.578,162.008C114.386,162.224 114.141,162.331 113.844,162.331C113.491,162.331 113.221,162.191 113.034,161.909C112.848,161.628 112.754,161.221 112.754,160.688C112.754,160.15 112.87,159.72 113.101,159.398C113.333,159.076 113.641,158.915 114.026,158.915C114.205,158.915 114.426,158.956 114.688,159.038ZM113.897,162.006C114.058,162.006 114.189,161.938 114.291,161.802C114.393,161.666 114.444,161.489 114.444,161.272C114.444,161.036 114.389,160.846 114.28,160.7C114.171,160.554 114.028,160.481 113.851,160.481C113.672,160.481 113.529,160.545 113.423,160.672C113.317,160.8 113.264,160.97 113.264,161.182C113.264,161.434 113.321,161.634 113.435,161.783C113.55,161.932 113.703,162.006 113.897,162.006Z" style="fill:rgb(52,87,81);fill-rule:nonzero;"/>
            <path d="M120.04,159.497L120.04,159.873C119.722,159.75 119.44,159.688 119.192,159.688C118.801,159.688 118.605,159.82 118.605,160.083C118.605,160.19 118.642,160.276 118.715,160.342C118.789,160.407 118.924,160.474 119.122,160.543L119.399,160.639L119.662,160.729C120.071,160.873 120.275,161.116 120.275,161.459C120.275,161.72 120.171,161.928 119.962,162.084C119.754,162.24 119.474,162.318 119.124,162.318C118.881,162.318 118.567,162.266 118.181,162.162L118.181,161.734C118.565,161.906 118.884,161.993 119.137,161.993C119.351,161.993 119.522,161.951 119.649,161.867C119.777,161.782 119.84,161.669 119.84,161.527C119.84,161.419 119.803,161.333 119.727,161.27C119.652,161.207 119.496,161.132 119.26,161.046L118.97,160.94C118.682,160.833 118.481,160.724 118.369,160.611C118.257,160.498 118.201,160.348 118.201,160.16C118.201,159.907 118.287,159.711 118.459,159.572C118.631,159.432 118.874,159.363 119.186,159.363C119.439,159.363 119.724,159.407 120.04,159.497Z" style="fill:rgb(52,87,81);fill-rule:nonzero;"/>
            <path d="M120.902,162.25L120.902,161.87C121.08,161.524 121.347,161.176 121.701,160.824L121.897,160.628C122.167,160.36 122.301,160.09 122.301,159.818C122.301,159.643 122.25,159.504 122.146,159.399C122.043,159.294 121.905,159.242 121.732,159.242C121.523,159.242 121.273,159.318 120.983,159.47L120.983,159.088C121.252,158.974 121.516,158.917 121.774,158.917C122.071,158.917 122.31,158.998 122.491,159.16C122.672,159.321 122.763,159.535 122.763,159.8C122.763,159.971 122.721,160.133 122.637,160.283C122.554,160.434 122.413,160.603 122.213,160.789L122.029,160.962C121.689,161.279 121.485,161.581 121.416,161.87L122.745,161.87L122.745,162.25L120.902,162.25Z" style="fill:rgb(52,87,81);fill-rule:nonzero;"/>
            <path d="M125.36,162.177C125.092,162.28 124.859,162.331 124.661,162.331C124.291,162.331 123.989,162.182 123.756,161.884C123.523,161.586 123.406,161.2 123.406,160.727C123.406,160.197 123.538,159.762 123.801,159.423C124.064,159.084 124.401,158.915 124.813,158.915C125.394,158.915 125.685,159.239 125.685,159.888L125.685,161.329L125.955,161.329L125.955,161.6L125.36,161.6L125.36,160.87C125.191,161.374 124.981,161.626 124.729,161.626C124.587,161.626 124.471,161.55 124.382,161.397C124.293,161.245 124.248,161.049 124.248,160.809C124.248,160.478 124.328,160.197 124.489,159.967C124.649,159.737 124.846,159.622 125.079,159.622C125.159,159.622 125.253,159.646 125.36,159.692C125.304,159.355 125.115,159.187 124.791,159.187C124.493,159.187 124.243,159.336 124.038,159.634C123.834,159.932 123.732,160.298 123.732,160.732C123.732,161.12 123.823,161.438 124.004,161.688C124.186,161.937 124.418,162.061 124.701,162.061C124.891,162.061 125.111,162 125.36,161.879L125.36,162.177ZM125.36,160.325L125.36,159.945C125.268,159.885 125.182,159.855 125.103,159.855C124.94,159.855 124.811,159.936 124.716,160.099C124.621,160.261 124.573,160.482 124.573,160.76C124.573,161.131 124.64,161.313 124.773,161.305C124.857,161.301 124.954,161.206 125.065,161.02C125.177,160.833 125.275,160.602 125.36,160.325Z" style="fill:rgb(52,87,81);fill-rule:nonzero;"/>
            <path d="M127.094,162.25L127.094,159.756L126.01,159.756L126.01,159.431L128.612,159.431L128.612,159.756L127.529,159.756L127.529,162.25L127.094,162.25Z" style="fill:rgb(52,87,81);fill-rule:nonzero;"/>
            <path d="M129.284,162.25C129.311,162.016 129.363,161.806 129.44,161.622C129.518,161.437 129.697,161.096 129.979,160.6L130.657,159.405L129.108,159.405L129.108,158.998L131.068,158.998L131.068,159.363L130.963,159.539C130.264,160.716 129.877,161.62 129.801,162.25L129.284,162.25Z" style="fill:rgb(52,87,81);fill-rule:nonzero;"/>
            <path d="M158.972,172.811L154.98,172.811L154.98,176.802L153.764,176.802L153.764,172.811L149.772,172.811L149.772,171.639L153.764,171.639L153.764,167.647L154.98,167.647L154.98,171.639L158.972,171.639L158.972,172.811Z" style="fill-rule:nonzero;"/>
        </g>
    </g>
</svg>
