<!DOCTYPE svg PUBLIC "-//W3C//DTD SVG 1.1//EN" "http://www.w3.org/Graphics/SVG/1.1/DTD/svg11.dtd">
<svg xmlns="http://www.w3.org/2000/svg" xmlns:xlink="http://www.w3.org/1999/xlink" width="1061px" height="1184px" version="1.1"><defs><clipPath id="mx-clip-104-329-62-26-0"><rect x="104" y="329" width="62" height="26"/></clipPath><clipPath id="mx-clip-104-355-62-28-0"><rect x="104" y="355" width="62" height="28"/></clipPath><clipPath id="mx-clip-264-429-62-26-0"><rect x="264" y="429" width="62" height="26"/></clipPath><clipPath id="mx-clip-264-455-62-28-0"><rect x="264" y="455" width="62" height="28"/></clipPath><clipPath id="mx-clip-264-530-62-26-0"><rect x="264" y="530" width="62" height="26"/></clipPath><clipPath id="mx-clip-264-556-62-28-0"><rect x="264" y="556" width="62" height="28"/></clipPath><clipPath id="mx-clip-164-529-62-26-0"><rect x="164" y="529" width="62" height="26"/></clipPath><clipPath id="mx-clip-164-555-62-28-0"><rect x="164" y="555" width="62" height="28"/></clipPath><clipPath id="mx-clip-424-530-62-26-0"><rect x="424" y="530" width="62" height="26"/></clipPath><clipPath id="mx-clip-424-556-62-28-0"><rect x="424" y="556" width="62" height="28"/></clipPath><clipPath id="mx-clip-264-631-62-26-0"><rect x="264" y="631" width="62" height="26"/></clipPath><clipPath id="mx-clip-264-657-62-28-0"><rect x="264" y="657" width="62" height="28"/></clipPath><clipPath id="mx-clip-424-631-62-26-0"><rect x="424" y="631" width="62" height="26"/></clipPath><clipPath id="mx-clip-424-657-62-28-0"><rect x="424" y="657" width="62" height="28"/></clipPath><clipPath id="mx-clip-354-730-62-26-0"><rect x="354" y="730" width="62" height="26"/></clipPath><clipPath id="mx-clip-354-756-62-28-0"><rect x="354" y="756" width="62" height="28"/></clipPath><clipPath id="mx-clip-494-731-62-26-0"><rect x="494" y="731" width="62" height="26"/></clipPath><clipPath id="mx-clip-494-757-62-28-0"><rect x="494" y="757" width="62" height="28"/></clipPath><clipPath id="mx-clip-424-831-62-26-0"><rect x="424" y="831" width="62" height="26"/></clipPath><clipPath id="mx-clip-424-857-62-28-0"><rect x="424" y="857" width="62" height="28"/></clipPath><clipPath id="mx-clip-564-831-62-26-0"><rect x="564" y="831" width="62" height="26"/></clipPath><clipPath id="mx-clip-564-857-62-28-0"><rect x="564" y="857" width="62" height="28"/></clipPath><clipPath id="mx-clip-494-931-62-26-0"><rect x="494" y="931" width="62" height="26"/></clipPath><clipPath id="mx-clip-494-957-62-28-0"><rect x="494" y="957" width="62" height="28"/></clipPath><clipPath id="mx-clip-634-931-62-26-0"><rect x="634" y="931" width="62" height="26"/></clipPath><clipPath id="mx-clip-634-957-62-28-0"><rect x="634" y="957" width="62" height="28"/></clipPath><clipPath id="mx-clip-264-329-62-26-0"><rect x="264" y="329" width="62" height="26"/></clipPath><clipPath id="mx-clip-264-355-62-28-0"><rect x="264" y="355" width="62" height="28"/></clipPath><clipPath id="mx-clip-824-431-62-26-0"><rect x="824" y="431" width="62" height="26"/></clipPath><clipPath id="mx-clip-824-457-62-28-0"><rect x="824" y="457" width="62" height="28"/></clipPath><clipPath id="mx-clip-684-431-62-26-0"><rect x="684" y="431" width="62" height="26"/></clipPath><clipPath id="mx-clip-684-457-62-28-0"><rect x="684" y="457" width="62" height="28"/></clipPath><clipPath id="mx-clip-824-531-62-26-0"><rect x="824" y="531" width="62" height="26"/></clipPath><clipPath id="mx-clip-824-557-62-28-0"><rect x="824" y="557" width="62" height="28"/></clipPath><clipPath id="mx-clip-824-631-62-26-0"><rect x="824" y="631" width="62" height="26"/></clipPath><clipPath id="mx-clip-824-657-62-28-0"><rect x="824" y="657" width="62" height="28"/></clipPath><clipPath id="mx-clip-754-730-62-26-0"><rect x="754" y="730" width="62" height="26"/></clipPath><clipPath id="mx-clip-754-756-62-28-0"><rect x="754" y="756" width="62" height="28"/></clipPath><clipPath id="mx-clip-894-731-62-26-0"><rect x="894" y="731" width="62" height="26"/></clipPath><clipPath id="mx-clip-894-757-62-28-0"><rect x="894" y="757" width="62" height="28"/></clipPath><clipPath id="mx-clip-894-831-62-26-0"><rect x="894" y="831" width="62" height="26"/></clipPath><clipPath id="mx-clip-894-857-62-28-0"><rect x="894" y="857" width="62" height="28"/></clipPath><clipPath id="mx-clip-794-931-62-26-0"><rect x="794" y="931" width="62" height="26"/></clipPath><clipPath id="mx-clip-794-957-62-28-0"><rect x="794" y="957" width="62" height="28"/></clipPath><clipPath id="mx-clip-894-931-62-26-0"><rect x="894" y="931" width="62" height="26"/></clipPath><clipPath id="mx-clip-894-957-62-28-0"><rect x="894" y="957" width="62" height="28"/></clipPath><clipPath id="mx-clip-754-329-62-26-0"><rect x="754" y="329" width="62" height="26"/></clipPath><clipPath id="mx-clip-754-355-62-28-0"><rect x="754" y="355" width="62" height="28"/></clipPath><clipPath id="mx-clip-654-130-62-26-0"><rect x="654" y="130" width="62" height="26"/></clipPath><clipPath id="mx-clip-654-156-62-28-0"><rect x="654" y="156" width="62" height="28"/></clipPath><clipPath id="mx-clip-654-230-62-26-0"><rect x="654" y="230" width="62" height="26"/></clipPath><clipPath id="mx-clip-654-256-62-28-0"><rect x="654" y="256" width="62" height="28"/></clipPath><clipPath id="mx-clip-584-329-62-26-0"><rect x="584" y="329" width="62" height="26"/></clipPath><clipPath id="mx-clip-584-355-62-28-0"><rect x="584" y="355" width="62" height="28"/></clipPath><clipPath id="mx-clip-584-431-62-26-0"><rect x="584" y="431" width="62" height="26"/></clipPath><clipPath id="mx-clip-584-457-62-28-0"><rect x="584" y="457" width="62" height="28"/></clipPath><clipPath id="mx-clip-994-930-62-26-0"><rect x="994" y="930" width="62" height="26"/></clipPath><clipPath id="mx-clip-994-956-62-28-0"><rect x="994" y="956" width="62" height="28"/></clipPath><clipPath id="mx-clip-994-1031-62-26-0"><rect x="994" y="1031" width="62" height="26"/></clipPath><clipPath id="mx-clip-994-1057-62-28-0"><rect x="994" y="1057" width="62" height="28"/></clipPath><clipPath id="mx-clip-994-1131-62-26-0"><rect x="994" y="1131" width="62" height="26"/></clipPath><clipPath id="mx-clip-994-1157-62-28-0"><rect x="994" y="1157" width="62" height="28"/></clipPath><clipPath id="mx-clip-409-31-62-26-0"><rect x="409" y="31" width="62" height="26"/></clipPath><clipPath id="mx-clip-409-57-62-28-0"><rect x="409" y="57" width="62" height="28"/></clipPath><clipPath id="mx-clip-164-130-62-26-0"><rect x="164" y="130" width="62" height="26"/></clipPath><clipPath id="mx-clip-164-156-62-28-0"><rect x="164" y="156" width="62" height="28"/></clipPath><clipPath id="mx-clip-164-230-62-26-0"><rect x="164" y="230" width="62" height="26"/></clipPath><clipPath id="mx-clip-164-256-62-28-0"><rect x="164" y="256" width="62" height="28"/></clipPath><clipPath id="mx-clip-4-329-62-26-0"><rect x="4" y="329" width="62" height="26"/></clipPath><clipPath id="mx-clip-4-355-62-28-0"><rect x="4" y="355" width="62" height="28"/></clipPath></defs><g transform="translate(0.5,0.5)"><path d="M 195 99.67 Q 195 39.67 398.63 39.67" fill="none" stroke="#000000" stroke-miterlimit="10" pointer-events="none"/><path d="M 403.88 39.67 L 396.88 43.17 L 398.63 39.67 L 396.88 36.17 Z" fill="#000000" stroke="#000000" stroke-miterlimit="10" pointer-events="none"/><path d="M 195 199.67 Q 195 199.67 195 186.03" fill="none" stroke="#000000" stroke-miterlimit="10" pointer-events="none"/><path d="M 195 180.78 L 198.5 187.78 L 195 186.03 L 191.5 187.78 Z" fill="#000000" stroke="#000000" stroke-miterlimit="10" pointer-events="none"/><path d="M 135 298 Q 135 264.67 153.63 264.67" fill="none" stroke="#000000" stroke-miterlimit="10" pointer-events="none"/><path d="M 158.88 264.67 L 151.88 268.17 L 153.63 264.67 L 151.88 261.17 Z" fill="#000000" stroke="#000000" stroke-miterlimit="10" pointer-events="none"/><rect x="100" y="298" width="70" height="80" rx="11.7" ry="11.7" fill="#ffcccc" stroke="#000000" pointer-events="none"/><path d="M 170 324 L 170 309.7 Q 170 298 158.3 298 L 111.7 298 Q 100 298 100 309.7 L 100 324 Z" fill="#0066cc" stroke="#000000" stroke-miterlimit="10" pointer-events="none"/><g fill="#FFFFFF" font-family="Verdana" text-anchor="middle" font-size="14px"><text x="133.67" y="315.5">S2@T10</text></g><g fill="#000000" font-family="Helvetica" clip-path="url(#mx-clip-104-329-62-26-0)" text-anchor="middle" font-size="14px"><text x="134.5" y="343.5">Translate</text></g><g fill="#000000" font-family="Helvetica" clip-path="url(#mx-clip-104-355-62-28-0)" text-anchor="middle" font-size="14px"><text x="134.5" y="369.5">S1@T3</text></g><path d="M 295 398 Q 295 378 295 388 Q 295 398 295 384.37" fill="none" stroke="#000000" stroke-miterlimit="10" pointer-events="none"/><path d="M 295 379.12 L 298.5 386.12 L 295 384.37 L 291.5 386.12 Z" fill="#000000" stroke="#000000" stroke-miterlimit="10" pointer-events="none"/><rect x="260" y="398" width="70" height="80" rx="11.7" ry="11.7" fill="#ffffff" stroke="#000000" pointer-events="none"/><path d="M 330 424 L 330 409.7 Q 330 398 318.3 398 L 271.7 398 Q 260 398 260 409.7 L 260 424 Z" fill="#009900" stroke="#000000" stroke-miterlimit="10" pointer-events="none"/><g fill="#FFFFFF" font-family="Verdana" text-anchor="middle" font-size="14px"><text x="293.67" y="415.5">S1@T5</text></g><g fill="#000000" font-family="Helvetica" clip-path="url(#mx-clip-264-429-62-26-0)" text-anchor="middle" font-size="14px"><text x="294.5" y="443.5">Point 'a2'</text></g><g fill="#000000" font-family="Helvetica" clip-path="url(#mx-clip-264-455-62-28-0)" text-anchor="middle" font-size="14px"><text x="294.5" y="469.5">S1@T4</text></g><path d="M 295 499.67 Q 295 479.67 295 488.83 Q 295 498 295 484.37" fill="none" stroke="#000000" stroke-miterlimit="10" pointer-events="none"/><path d="M 295 479.12 L 298.5 486.12 L 295 484.37 L 291.5 486.12 Z" fill="#000000" stroke="#000000" stroke-miterlimit="10" pointer-events="none"/><rect x="260" y="499" width="70" height="80" rx="11.7" ry="11.7" fill="#ffffff" stroke="#000000" pointer-events="none"/><path d="M 330 525 L 330 510.7 Q 330 499 318.3 499 L 271.7 499 Q 260 499 260 510.7 L 260 525 Z" fill="#009900" stroke="#000000" stroke-miterlimit="10" pointer-events="none"/><g fill="#FFFFFF" font-family="Verdana" text-anchor="middle" font-size="14px"><text x="293.67" y="516.5">S1@T9</text></g><g fill="#000000" font-family="Helvetica" clip-path="url(#mx-clip-264-530-62-26-0)" text-anchor="middle" font-size="14px"><text x="294.5" y="544.5">Point 'a3'</text></g><g fill="#000000" font-family="Helvetica" clip-path="url(#mx-clip-264-556-62-28-0)" text-anchor="middle" font-size="14px"><text x="294.5" y="570.5">S1@T5</text></g><path d="M 195 498 Q 195 436.33 253.63 436.33" fill="none" stroke="#000000" stroke-miterlimit="10" pointer-events="none"/><path d="M 258.88 436.33 L 251.88 439.83 L 253.63 436.33 L 251.88 432.83 Z" fill="#000000" stroke="#000000" stroke-miterlimit="10" pointer-events="none"/><rect x="160" y="498" width="70" height="80" rx="11.7" ry="11.7" fill="#ffcccc" stroke="#000000" pointer-events="none"/><path d="M 230 524 L 230 509.7 Q 230 498 218.3 498 L 171.7 498 Q 160 498 160 509.7 L 160 524 Z" fill="#009900" stroke="#000000" stroke-miterlimit="10" pointer-events="none"/><g fill="#FFFFFF" font-family="Verdana" text-anchor="middle" font-size="14px"><text x="193.67" y="515.5">S1@T7</text></g><g fill="#000000" font-family="Helvetica" clip-path="url(#mx-clip-164-529-62-26-0)" text-anchor="middle" font-size="14px"><text x="194.5" y="543.5">Translate</text></g><g fill="#000000" font-family="Helvetica" clip-path="url(#mx-clip-164-555-62-28-0)" text-anchor="middle" font-size="14px"><text x="194.5" y="569.5">S1@T5</text></g><path d="M 455 499.67 Q 455 436.33 336.37 436.33" fill="none" stroke="#000000" stroke-miterlimit="10" pointer-events="none"/><path d="M 331.12 436.33 L 338.12 432.83 L 336.37 436.33 L 338.12 439.83 Z" fill="#000000" stroke="#000000" stroke-miterlimit="10" pointer-events="none"/><rect x="420" y="499" width="70" height="80" rx="11.7" ry="11.7" fill="#ffffff" stroke="#000000" pointer-events="none"/><path d="M 490 525 L 490 510.7 Q 490 499 478.3 499 L 431.7 499 Q 420 499 420 510.7 L 420 525 Z" fill="#0066cc" stroke="#000000" stroke-miterlimit="10" pointer-events="none"/><g fill="#FFFFFF" font-family="Verdana" text-anchor="middle" font-size="14px"><text x="453.67" y="516.5">S2@T8</text></g><g fill="#000000" font-family="Helvetica" clip-path="url(#mx-clip-424-530-62-26-0)" text-anchor="middle" font-size="14px"><text x="454.5" y="544.5">Point 'a4'</text></g><g fill="#000000" font-family="Helvetica" clip-path="url(#mx-clip-424-556-62-28-0)" text-anchor="middle" font-size="14px"><text x="454.5" y="570.5">S1@T5</text></g><path d="M 35 298 Q 35 238 153.63 238" fill="none" stroke="#000000" stroke-miterlimit="10" pointer-events="none"/><path d="M 158.88 238 L 151.88 241.5 L 153.63 238 L 151.88 234.5 Z" fill="#000000" stroke="#000000" stroke-miterlimit="10" pointer-events="none"/><path d="M 295 599.67 Q 295 579.67 295 589.67 Q 295 599.67 295 585.37" fill="none" stroke="#000000" stroke-miterlimit="10" pointer-events="none"/><path d="M 295 580.12 L 298.5 587.12 L 295 585.37 L 291.5 587.12 Z" fill="#000000" stroke="#000000" stroke-miterlimit="10" pointer-events="none"/><rect x="260" y="600" width="70" height="80" rx="11.7" ry="11.7" fill="#ffcccc" stroke="#000000" pointer-events="none"/><path d="M 330 626 L 330 611.7 Q 330 600 318.3 600 L 271.7 600 Q 260 600 260 611.7 L 260 626 Z" fill="#009900" stroke="#000000" stroke-miterlimit="10" pointer-events="none"/><g fill="#FFFFFF" font-family="Verdana" text-anchor="middle" font-size="14px"><text x="293.67" y="617.5">S1@T10</text></g><g fill="#000000" font-family="Helvetica" clip-path="url(#mx-clip-264-631-62-26-0)" text-anchor="middle" font-size="14px"><text x="294.5" y="645.5">Round</text></g><g fill="#000000" font-family="Helvetica" clip-path="url(#mx-clip-264-657-62-28-0)" text-anchor="middle" font-size="14px"><text x="294.5" y="671.5">S1@T9</text></g><path d="M 455 599.67 Q 455 579.67 455 589.67 Q 455 599.67 455 585.37" fill="none" stroke="#000000" stroke-miterlimit="10" pointer-events="none"/><path d="M 455 580.12 L 458.5 587.12 L 455 585.37 L 451.5 587.12 Z" fill="#000000" stroke="#000000" stroke-miterlimit="10" pointer-events="none"/><rect x="420" y="600" width="70" height="80" rx="11.7" ry="11.7" fill="#ffffff" stroke="#000000" pointer-events="none"/><path d="M 490 626 L 490 611.7 Q 490 600 478.3 600 L 431.7 600 Q 420 600 420 611.7 L 420 626 Z" fill="#0066cc" stroke="#000000" stroke-miterlimit="10" pointer-events="none"/><g fill="#FFFFFF" font-family="Verdana" text-anchor="middle" font-size="14px"><text x="453.67" y="617.5">S2@T9</text></g><g fill="#000000" font-family="Helvetica" clip-path="url(#mx-clip-424-631-62-26-0)" text-anchor="middle" font-size="14px"><text x="454.5" y="645.5">Point 'a5'</text></g><g fill="#000000" font-family="Helvetica" clip-path="url(#mx-clip-424-657-62-28-0)" text-anchor="middle" font-size="14px"><text x="454.5" y="671.5">S2@T8</text></g><path d="M 368.33 699.67 Q 368.33 639.67 413.63 639.67" fill="none" stroke="#000000" stroke-miterlimit="10" pointer-events="none"/><path d="M 418.88 639.67 L 411.88 643.17 L 413.63 639.67 L 411.88 636.17 Z" fill="#000000" stroke="#000000" stroke-miterlimit="10" pointer-events="none"/><rect x="350" y="699" width="70" height="80" rx="11.7" ry="11.7" fill="#ffcccc" stroke="#000000" pointer-events="none"/><path d="M 420 725 L 420 710.7 Q 420 699 408.3 699 L 361.7 699 Q 350 699 350 710.7 L 350 725 Z" fill="#009900" stroke="#000000" stroke-miterlimit="10" pointer-events="none"/><g fill="#FFFFFF" font-family="Verdana" text-anchor="middle" font-size="14px"><text x="383.67" y="716.5">S1@T15</text></g><g fill="#000000" font-family="Helvetica" clip-path="url(#mx-clip-354-730-62-26-0)" text-anchor="middle" font-size="14px"><text x="384.5" y="744.5">Translate</text></g><g fill="#000000" font-family="Helvetica" clip-path="url(#mx-clip-354-756-62-28-0)" text-anchor="middle" font-size="14px"><text x="384.5" y="770.5">S2@T9</text></g><path d="M 543.33 699.67 Q 543.33 639.67 496.37 639.67" fill="none" stroke="#000000" stroke-miterlimit="10" pointer-events="none"/><path d="M 491.12 639.67 L 498.12 636.17 L 496.37 639.67 L 498.12 643.17 Z" fill="#000000" stroke="#000000" stroke-miterlimit="10" pointer-events="none"/><rect x="490" y="700" width="70" height="80" rx="11.7" ry="11.7" fill="#ffffff" stroke="#000000" pointer-events="none"/><path d="M 560 726 L 560 711.7 Q 560 700 548.3 700 L 501.7 700 Q 490 700 490 711.7 L 490 726 Z" fill="#009900" stroke="#000000" stroke-miterlimit="10" pointer-events="none"/><g fill="#FFFFFF" font-family="Verdana" text-anchor="middle" font-size="14px"><text x="523.67" y="717.5">S1@T14</text></g><g fill="#000000" font-family="Helvetica" clip-path="url(#mx-clip-494-731-62-26-0)" text-anchor="middle" font-size="14px"><text x="524.5" y="745.5">Point 'a6'</text></g><g fill="#000000" font-family="Helvetica" clip-path="url(#mx-clip-494-757-62-28-0)" text-anchor="middle" font-size="14px"><text x="524.5" y="771.5">S2@T9</text></g><path d="M 438.33 799.67 Q 438.33 739.67 483.63 739.67" fill="none" stroke="#000000" stroke-miterlimit="10" pointer-events="none"/><path d="M 488.88 739.67 L 481.88 743.17 L 483.63 739.67 L 481.88 736.17 Z" fill="#000000" stroke="#000000" stroke-miterlimit="10" pointer-events="none"/><rect x="420" y="800" width="70" height="80" rx="11.7" ry="11.7" fill="#ffcccc" stroke="#000000" pointer-events="none"/><path d="M 490 826 L 490 811.7 Q 490 800 478.3 800 L 431.7 800 Q 420 800 420 811.7 L 420 826 Z" fill="#009900" stroke="#000000" stroke-miterlimit="10" pointer-events="none"/><g fill="#FFFFFF" font-family="Verdana" text-anchor="middle" font-size="14px"><text x="453.67" y="817.5">S1@T16</text></g><g fill="#000000" font-family="Helvetica" clip-path="url(#mx-clip-424-831-62-26-0)" text-anchor="middle" font-size="14px"><text x="454.5" y="845.5">Round</text></g><g fill="#000000" font-family="Helvetica" clip-path="url(#mx-clip-424-857-62-28-0)" text-anchor="middle" font-size="14px"><text x="454.5" y="871.5">S1@T14</text></g><path d="M 613.33 799.67 Q 613.33 739.67 566.37 739.67" fill="none" stroke="#000000" stroke-miterlimit="10" pointer-events="none"/><path d="M 561.12 739.67 L 568.12 736.17 L 566.37 739.67 L 568.12 743.17 Z" fill="#000000" stroke="#000000" stroke-miterlimit="10" pointer-events="none"/><rect x="560" y="800" width="70" height="80" rx="11.7" ry="11.7" fill="#ffffff" stroke="#000000" pointer-events="none"/><path d="M 630 826 L 630 811.7 Q 630 800 618.3 800 L 571.7 800 Q 560 800 560 811.7 L 560 826 Z" fill="#009900" stroke="#000000" stroke-miterlimit="10" pointer-events="none"/><g fill="#FFFFFF" font-family="Verdana" text-anchor="middle" font-size="14px"><text x="593.67" y="817.5">S1@T17</text></g><g fill="#000000" font-family="Helvetica" clip-path="url(#mx-clip-564-831-62-26-0)" text-anchor="middle" font-size="14px"><text x="594.5" y="845.5">Point 'a7'</text></g><g fill="#000000" font-family="Helvetica" clip-path="url(#mx-clip-564-857-62-28-0)" text-anchor="middle" font-size="14px"><text x="594.5" y="871.5">S1@T14</text></g><path d="M 508.33 899.67 Q 508.33 839.67 553.63 839.67" fill="none" stroke="#000000" stroke-miterlimit="10" pointer-events="none"/><path d="M 558.88 839.67 L 551.88 843.17 L 553.63 839.67 L 551.88 836.17 Z" fill="#000000" stroke="#000000" stroke-miterlimit="10" pointer-events="none"/><rect x="490" y="900" width="70" height="80" rx="11.7" ry="11.7" fill="#ffcccc" stroke="#000000" pointer-events="none"/><path d="M 560 926 L 560 911.7 Q 560 900 548.3 900 L 501.7 900 Q 490 900 490 911.7 L 490 926 Z" fill="#0066cc" stroke="#000000" stroke-miterlimit="10" pointer-events="none"/><g fill="#FFFFFF" font-family="Verdana" text-anchor="middle" font-size="14px"><text x="523.67" y="917.5">S2@T29</text></g><g fill="#000000" font-family="Helvetica" clip-path="url(#mx-clip-494-931-62-26-0)" text-anchor="middle" font-size="14px"><text x="524.5" y="945.5">Delete</text></g><g fill="#000000" font-family="Helvetica" clip-path="url(#mx-clip-494-957-62-28-0)" text-anchor="middle" font-size="14px"><text x="524.5" y="971.5">S1@T17</text></g><path d="M 683.33 899.67 Q 683.33 839.67 636.37 839.67" fill="none" stroke="#000000" stroke-miterlimit="10" pointer-events="none"/><path d="M 631.12 839.67 L 638.12 836.17 L 636.37 839.67 L 638.12 843.17 Z" fill="#000000" stroke="#000000" stroke-miterlimit="10" pointer-events="none"/><rect x="630" y="900" width="70" height="80" rx="11.7" ry="11.7" fill="#ffffff" stroke="#000000" pointer-events="none"/><path d="M 700 926 L 700 911.7 Q 700 900 688.3 900 L 641.7 900 Q 630 900 630 911.7 L 630 926 Z" fill="#009900" stroke="#000000" stroke-miterlimit="10" pointer-events="none"/><g fill="#FFFFFF" font-family="Verdana" text-anchor="middle" font-size="14px"><text x="663.67" y="917.5">S1@T18</text></g><g fill="#000000" font-family="Helvetica" clip-path="url(#mx-clip-634-931-62-26-0)" text-anchor="middle" font-size="14px"><text x="664.5" y="945.5">Point 'a8'</text></g><g fill="#000000" font-family="Helvetica" clip-path="url(#mx-clip-634-957-62-28-0)" text-anchor="middle" font-size="14px"><text x="664.5" y="971.5">S1@T17</text></g><path d="M 295 298 Q 295 238 236.37 238" fill="none" stroke="#000000" stroke-miterlimit="10" pointer-events="none"/><path d="M 231.12 238 L 238.12 234.5 L 236.37 238 L 238.12 241.5 Z" fill="#000000" stroke="#000000" stroke-miterlimit="10" pointer-events="none"/><rect x="260" y="298" width="70" height="80" rx="11.7" ry="11.7" fill="#ffffff" stroke="#000000" pointer-events="none"/><path d="M 330 324 L 330 309.7 Q 330 298 318.3 298 L 271.7 298 Q 260 298 260 309.7 L 260 324 Z" fill="#009900" stroke="#000000" stroke-miterlimit="10" pointer-events="none"/><g fill="#FFFFFF" font-family="Verdana" text-anchor="middle" font-size="14px"><text x="293.67" y="315.5">S1@T4</text></g><g fill="#000000" font-family="Helvetica" clip-path="url(#mx-clip-264-329-62-26-0)" text-anchor="middle" font-size="14px"><text x="294.5" y="343.5">Point 'a1'</text></g><g fill="#000000" font-family="Helvetica" clip-path="url(#mx-clip-264-355-62-28-0)" text-anchor="middle" font-size="14px"><text x="294.5" y="369.5">S1@T3</text></g><path d="M 685 199.67 Q 685 199.67 685 186.03" fill="none" stroke="#000000" stroke-miterlimit="10" pointer-events="none"/><path d="M 685 180.78 L 688.5 187.78 L 685 186.03 L 681.5 187.78 Z" fill="#000000" stroke="#000000" stroke-miterlimit="10" pointer-events="none"/><path d="M 873.33 399.67 Q 873.33 336.33 826.37 336.33" fill="none" stroke="#000000" stroke-miterlimit="10" pointer-events="none"/><path d="M 821.12 336.33 L 828.12 332.83 L 826.37 336.33 L 828.12 339.83 Z" fill="#000000" stroke="#000000" stroke-miterlimit="10" pointer-events="none"/><rect x="820" y="400" width="70" height="80" rx="11.7" ry="11.7" fill="#ffffff" stroke="#000000" pointer-events="none"/><path d="M 890 426 L 890 411.7 Q 890 400 878.3 400 L 831.7 400 Q 820 400 820 411.7 L 820 426 Z" fill="#cc0066" stroke="#000000" stroke-miterlimit="10" pointer-events="none"/><g fill="#FFFFFF" font-family="Verdana" text-anchor="middle" font-size="14px"><text x="853.67" y="417.5">S3@T13</text></g><g fill="#000000" font-family="Helvetica" clip-path="url(#mx-clip-824-431-62-26-0)" text-anchor="middle" font-size="14px"><text x="854.5" y="445.5">Point 'b2'</text></g><g fill="#000000" font-family="Helvetica" clip-path="url(#mx-clip-824-457-62-28-0)" text-anchor="middle" font-size="14px"><text x="854.5" y="471.5">S3@T12</text></g><path d="M 698.33 399.67 Q 698.33 336.33 743.63 336.33" fill="none" stroke="#000000" stroke-miterlimit="10" pointer-events="none"/><path d="M 748.88 336.33 L 741.88 339.83 L 743.63 336.33 L 741.88 332.83 Z" fill="#000000" stroke="#000000" stroke-miterlimit="10" pointer-events="none"/><rect x="680" y="400" width="70" height="80" rx="11.7" ry="11.7" fill="#ffcccc" stroke="#000000" pointer-events="none"/><path d="M 750 426 L 750 411.7 Q 750 400 738.3 400 L 691.7 400 Q 680 400 680 411.7 L 680 426 Z" fill="#0066cc" stroke="#000000" stroke-miterlimit="10" pointer-events="none"/><g fill="#FFFFFF" font-family="Verdana" text-anchor="middle" font-size="14px"><text x="713.67" y="417.5">S2@T19</text></g><g fill="#000000" font-family="Helvetica" clip-path="url(#mx-clip-684-431-62-26-0)" text-anchor="middle" font-size="14px"><text x="714.5" y="445.5">Delete</text></g><g fill="#000000" font-family="Helvetica" clip-path="url(#mx-clip-684-457-62-28-0)" text-anchor="middle" font-size="14px"><text x="714.5" y="471.5">S3@T12</text></g><path d="M 855 499.67 Q 855 479.67 855 489.67 Q 855 499.67 855 486.37" fill="none" stroke="#000000" stroke-miterlimit="10" pointer-events="none"/><path d="M 855 481.12 L 858.5 488.12 L 855 486.37 L 851.5 488.12 Z" fill="#000000" stroke="#000000" stroke-miterlimit="10" pointer-events="none"/><rect x="820" y="500" width="70" height="80" rx="11.7" ry="11.7" fill="#ffffff" stroke="#000000" pointer-events="none"/><path d="M 890 526 L 890 511.7 Q 890 500 878.3 500 L 831.7 500 Q 820 500 820 511.7 L 820 526 Z" fill="#cc0066" stroke="#000000" stroke-miterlimit="10" pointer-events="none"/><g fill="#FFFFFF" font-family="Verdana" text-anchor="middle" font-size="14px"><text x="853.67" y="517.5">S3@T14</text></g><g fill="#000000" font-family="Helvetica" clip-path="url(#mx-clip-824-531-62-26-0)" text-anchor="middle" font-size="14px"><text x="854.5" y="545.5">Point 'b3'</text></g><g fill="#000000" font-family="Helvetica" clip-path="url(#mx-clip-824-557-62-28-0)" text-anchor="middle" font-size="14px"><text x="854.5" y="571.5">S3@T13</text></g><path d="M 855 599.67 Q 855 579.67 855 589.67 Q 855 599.67 855 586.37" fill="none" stroke="#000000" stroke-miterlimit="10" pointer-events="none"/><path d="M 855 581.12 L 858.5 588.12 L 855 586.37 L 851.5 588.12 Z" fill="#000000" stroke="#000000" stroke-miterlimit="10" pointer-events="none"/><rect x="820" y="600" width="70" height="80" rx="11.7" ry="11.7" fill="#ffffff" stroke="#000000" pointer-events="none"/><path d="M 890 626 L 890 611.7 Q 890 600 878.3 600 L 831.7 600 Q 820 600 820 611.7 L 820 626 Z" fill="#cc0066" stroke="#000000" stroke-miterlimit="10" pointer-events="none"/><g fill="#FFFFFF" font-family="Verdana" text-anchor="middle" font-size="14px"><text x="853.67" y="617.5">S3@T15</text></g><g fill="#000000" font-family="Helvetica" clip-path="url(#mx-clip-824-631-62-26-0)" text-anchor="middle" font-size="14px"><text x="854.5" y="645.5">Point 'b4'</text></g><g fill="#000000" font-family="Helvetica" clip-path="url(#mx-clip-824-657-62-28-0)" text-anchor="middle" font-size="14px"><text x="854.5" y="671.5">S3@T14</text></g><path d="M 768.33 699.67 Q 768.33 639.67 813.63 639.67" fill="none" stroke="#000000" stroke-miterlimit="10" pointer-events="none"/><path d="M 818.88 639.67 L 811.88 643.17 L 813.63 639.67 L 811.88 636.17 Z" fill="#000000" stroke="#000000" stroke-miterlimit="10" pointer-events="none"/><rect x="750" y="699" width="70" height="80" rx="11.7" ry="11.7" fill="#ffcccc" stroke="#000000" pointer-events="none"/><path d="M 820 725 L 820 710.7 Q 820 699 808.3 699 L 761.7 699 Q 750 699 750 710.7 L 750 725 Z" fill="#0066cc" stroke="#000000" stroke-miterlimit="10" pointer-events="none"/><g fill="#FFFFFF" font-family="Verdana" text-anchor="middle" font-size="14px"><text x="783.67" y="716.5">S2@T18</text></g><g fill="#000000" font-family="Helvetica" clip-path="url(#mx-clip-754-730-62-26-0)" text-anchor="middle" font-size="14px"><text x="784.5" y="744.5">Delete</text></g><g fill="#000000" font-family="Helvetica" clip-path="url(#mx-clip-754-756-62-28-0)" text-anchor="middle" font-size="14px"><text x="784.5" y="770.5">S3@T15</text></g><path d="M 943.33 699.67 Q 943.33 639.67 896.37 639.67" fill="none" stroke="#000000" stroke-miterlimit="10" pointer-events="none"/><path d="M 891.12 639.67 L 898.12 636.17 L 896.37 639.67 L 898.12 643.17 Z" fill="#000000" stroke="#000000" stroke-miterlimit="10" pointer-events="none"/><rect x="890" y="700" width="70" height="80" rx="11.7" ry="11.7" fill="#ffffff" stroke="#000000" pointer-events="none"/><path d="M 960 726 L 960 711.7 Q 960 700 948.3 700 L 901.7 700 Q 890 700 890 711.7 L 890 726 Z" fill="#cc0066" stroke="#000000" stroke-miterlimit="10" pointer-events="none"/><g fill="#FFFFFF" font-family="Verdana" text-anchor="middle" font-size="14px"><text x="923.67" y="717.5">S1@T17</text></g><g fill="#000000" font-family="Helvetica" clip-path="url(#mx-clip-894-731-62-26-0)" text-anchor="middle" font-size="14px"><text x="924.5" y="745.5">Point 'b5'</text></g><g fill="#000000" font-family="Helvetica" clip-path="url(#mx-clip-894-757-62-28-0)" text-anchor="middle" font-size="14px"><text x="924.5" y="771.5">S3@T15</text></g><path d="M 925 799.67 Q 925 779.67 925 789.67 Q 925 799.67 925 786.37" fill="none" stroke="#000000" stroke-miterlimit="10" pointer-events="none"/><path d="M 925 781.12 L 928.5 788.12 L 925 786.37 L 921.5 788.12 Z" fill="#000000" stroke="#000000" stroke-miterlimit="10" pointer-events="none"/><rect x="890" y="800" width="70" height="80" rx="11.7" ry="11.7" fill="#ffffff" stroke="#000000" pointer-events="none"/><path d="M 960 826 L 960 811.7 Q 960 800 948.3 800 L 901.7 800 Q 890 800 890 811.7 L 890 826 Z" fill="#cc0066" stroke="#000000" stroke-miterlimit="10" pointer-events="none"/><g fill="#FFFFFF" font-family="Verdana" text-anchor="middle" font-size="14px"><text x="923.67" y="817.5">S1@T19</text></g><g fill="#000000" font-family="Helvetica" clip-path="url(#mx-clip-894-831-62-26-0)" text-anchor="middle" font-size="14px"><text x="924.5" y="845.5">Point 'b6'</text></g><g fill="#000000" font-family="Helvetica" clip-path="url(#mx-clip-894-857-62-28-0)" text-anchor="middle" font-size="14px"><text x="924.5" y="871.5">S3@T17</text></g><path d="M 825 899.67 Q 825 839.67 883.63 839.67" fill="none" stroke="#000000" stroke-miterlimit="10" pointer-events="none"/><path d="M 888.88 839.67 L 881.88 843.17 L 883.63 839.67 L 881.88 836.17 Z" fill="#000000" stroke="#000000" stroke-miterlimit="10" pointer-events="none"/><rect x="790" y="900" width="70" height="80" rx="11.7" ry="11.7" fill="#ffcccc" stroke="#000000" pointer-events="none"/><path d="M 860 926 L 860 911.7 Q 860 900 848.3 900 L 801.7 900 Q 790 900 790 911.7 L 790 926 Z" fill="#cc0066" stroke="#000000" stroke-miterlimit="10" pointer-events="none"/><g fill="#FFFFFF" font-family="Verdana" text-anchor="middle" font-size="14px"><text x="823.67" y="917.5">S3@T22</text></g><g fill="#000000" font-family="Helvetica" clip-path="url(#mx-clip-794-931-62-26-0)" text-anchor="middle" font-size="14px"><text x="824.5" y="945.5">Round</text></g><g fill="#000000" font-family="Helvetica" clip-path="url(#mx-clip-794-957-62-28-0)" text-anchor="middle" font-size="14px"><text x="824.5" y="971.5">S3@T19</text></g><path d="M 925 899.67 Q 925 879.67 925 889.67 Q 925 899.67 925 886.37" fill="none" stroke="#000000" stroke-miterlimit="10" pointer-events="none"/><path d="M 925 881.12 L 928.5 888.12 L 925 886.37 L 921.5 888.12 Z" fill="#000000" stroke="#000000" stroke-miterlimit="10" pointer-events="none"/><rect x="890" y="900" width="70" height="80" rx="11.7" ry="11.7" fill="#ffcccc" stroke="#000000" pointer-events="none"/><path d="M 960 926 L 960 911.7 Q 960 900 948.3 900 L 901.7 900 Q 890 900 890 911.7 L 890 926 Z" fill="#cc0066" stroke="#000000" stroke-miterlimit="10" pointer-events="none"/><g fill="#FFFFFF" font-family="Verdana" text-anchor="middle" font-size="14px"><text x="923.67" y="917.5">S3@T21</text></g><g fill="#000000" font-family="Helvetica" clip-path="url(#mx-clip-894-931-62-26-0)" text-anchor="middle" font-size="14px"><text x="924.5" y="945.5">Translate</text></g><g fill="#000000" font-family="Helvetica" clip-path="url(#mx-clip-894-957-62-28-0)" text-anchor="middle" font-size="14px"><text x="924.5" y="971.5">S3@T19</text></g><path d="M 785 298 Q 785 238 726.37 238" fill="none" stroke="#000000" stroke-miterlimit="10" pointer-events="none"/><path d="M 721.12 238 L 728.12 234.5 L 726.37 238 L 728.12 241.5 Z" fill="#000000" stroke="#000000" stroke-miterlimit="10" pointer-events="none"/><rect x="750" y="298" width="70" height="80" rx="11.7" ry="11.7" fill="#ffffff" stroke="#000000" pointer-events="none"/><path d="M 820 324 L 820 309.7 Q 820 298 808.3 298 L 761.7 298 Q 750 298 750 309.7 L 750 324 Z" fill="#cc0066" stroke="#000000" stroke-miterlimit="10" pointer-events="none"/><g fill="#FFFFFF" font-family="Verdana" text-anchor="middle" font-size="14px"><text x="783.67" y="315.5">S3@T12</text></g><g fill="#000000" font-family="Helvetica" clip-path="url(#mx-clip-754-329-62-26-0)" text-anchor="middle" font-size="14px"><text x="784.5" y="343.5">Point 'b1'</text></g><g fill="#000000" font-family="Helvetica" clip-path="url(#mx-clip-754-355-62-28-0)" text-anchor="middle" font-size="14px"><text x="784.5" y="369.5">S3@T11</text></g><rect x="650" y="99" width="70" height="80" rx="11.7" ry="11.7" fill="#ffffff" stroke="#000000" pointer-events="none"/><path d="M 720 125 L 720 110.7 Q 720 99 708.3 99 L 661.7 99 Q 650 99 650 110.7 L 650 125 Z" fill="#cc0066" stroke="#000000" stroke-miterlimit="10" pointer-events="none"/><g fill="#FFFFFF" font-family="Verdana" text-anchor="middle" font-size="14px"><text x="683.67" y="116.5">S3@T10</text></g><g fill="#000000" font-family="Helvetica" clip-path="url(#mx-clip-654-130-62-26-0)" text-anchor="middle" font-size="14px"><text x="684.5" y="144.5">Shape 'B'</text></g><g fill="#000000" font-family="Helvetica" clip-path="url(#mx-clip-654-156-62-28-0)" text-anchor="middle" font-size="14px"><text x="684.5" y="170.5">S1@T2</text></g><rect x="650" y="199" width="70" height="80" rx="11.7" ry="11.7" fill="#ffffff" stroke="#000000" pointer-events="none"/><path d="M 720 225 L 720 210.7 Q 720 199 708.3 199 L 661.7 199 Q 650 199 650 210.7 L 650 225 Z" fill="#cc0066" stroke="#000000" stroke-miterlimit="10" pointer-events="none"/><g fill="#FFFFFF" font-family="Verdana" text-anchor="middle" font-size="14px"><text x="683.67" y="216.5">S3@T11</text></g><g fill="#000000" font-family="Helvetica" clip-path="url(#mx-clip-654-230-62-26-0)" text-anchor="middle" font-size="14px"><text x="684.5" y="244.5">ø</text></g><g fill="#000000" font-family="Helvetica" clip-path="url(#mx-clip-654-256-62-28-0)" text-anchor="middle" font-size="14px"><text x="684.5" y="270.5">S3@T10</text></g><path d="M 598.33 298 Q 598.33 238 643.63 238" fill="none" stroke="#000000" stroke-miterlimit="10" pointer-events="none"/><path d="M 648.88 238 L 641.88 241.5 L 643.63 238 L 641.88 234.5 Z" fill="#000000" stroke="#000000" stroke-miterlimit="10" pointer-events="none"/><rect x="580" y="298" width="70" height="80" rx="11.7" ry="11.7" fill="#ffcccc" stroke="#000000" pointer-events="none"/><path d="M 650 324 L 650 309.7 Q 650 298 638.3 298 L 591.7 298 Q 580 298 580 309.7 L 580 324 Z" fill="#cc0066" stroke="#000000" stroke-miterlimit="10" pointer-events="none"/><g fill="#FFFFFF" font-family="Verdana" text-anchor="middle" font-size="14px"><text x="613.67" y="315.5">S3@T18</text></g><g fill="#000000" font-family="Helvetica" clip-path="url(#mx-clip-584-329-62-26-0)" text-anchor="middle" font-size="14px"><text x="614.5" y="343.5">Color</text></g><g fill="#000000" font-family="Helvetica" clip-path="url(#mx-clip-584-355-62-28-0)" text-anchor="middle" font-size="14px"><text x="614.5" y="369.5">S3@T11</text></g><path d="M 615 399.67 Q 615 379.67 615 388.83 Q 615 398 615 384.37" fill="none" stroke="#000000" stroke-miterlimit="10" pointer-events="none"/><path d="M 615 379.12 L 618.5 386.12 L 615 384.37 L 611.5 386.12 Z" fill="#000000" stroke="#000000" stroke-miterlimit="10" pointer-events="none"/><rect x="580" y="400" width="70" height="80" rx="11.7" ry="11.7" fill="#ffcccc" stroke="#000000" pointer-events="none"/><path d="M 650 426 L 650 411.7 Q 650 400 638.3 400 L 591.7 400 Q 580 400 580 411.7 L 580 426 Z" fill="#009900" stroke="#000000" stroke-miterlimit="10" pointer-events="none"/><g fill="#FFFFFF" font-family="Verdana" text-anchor="middle" font-size="14px"><text x="613.67" y="417.5">S1@T22</text></g><g fill="#000000" font-family="Helvetica" clip-path="url(#mx-clip-584-431-62-26-0)" text-anchor="middle" font-size="14px"><text x="614.5" y="445.5">Color</text></g><g fill="#000000" font-family="Helvetica" clip-path="url(#mx-clip-584-457-62-28-0)" text-anchor="middle" font-size="14px"><text x="614.5" y="471.5">S3@T18</text></g><path d="M 1025 899.67 Q 1025 839.67 966.37 839.67" fill="none" stroke="#000000" stroke-miterlimit="10" pointer-events="none"/><path d="M 961.12 839.67 L 968.12 836.17 L 966.37 839.67 L 968.12 843.17 Z" fill="#000000" stroke="#000000" stroke-miterlimit="10" pointer-events="none"/><rect x="990" y="899" width="70" height="80" rx="11.7" ry="11.7" fill="#ffffff" stroke="#000000" pointer-events="none"/><path d="M 1060 925 L 1060 910.7 Q 1060 899 1048.3 899 L 1001.7 899 Q 990 899 990 910.7 L 990 925 Z" fill="#009900" stroke="#000000" stroke-miterlimit="10" pointer-events="none"/><g fill="#FFFFFF" font-family="Verdana" text-anchor="middle" font-size="14px"><text x="1023.6700000000001" y="916.5">S1@T23</text></g><g fill="#000000" font-family="Helvetica" clip-path="url(#mx-clip-994-930-62-26-0)" text-anchor="middle" font-size="14px"><text x="1024.5" y="944.5">Point 'b7'</text></g><g fill="#000000" font-family="Helvetica" clip-path="url(#mx-clip-994-956-62-28-0)" text-anchor="middle" font-size="14px"><text x="1024.5" y="970.5">S3@T19</text></g><path d="M 1025 999.67 Q 1025 979.67 1025 989.67 Q 1025 999.67 1025 985.37" fill="none" stroke="#000000" stroke-miterlimit="10" pointer-events="none"/><path d="M 1025 980.12 L 1028.5 987.12 L 1025 985.37 L 1021.5 987.12 Z" fill="#000000" stroke="#000000" stroke-miterlimit="10" pointer-events="none"/><rect x="990" y="1000" width="70" height="80" rx="11.7" ry="11.7" fill="#ffffff" stroke="#000000" pointer-events="none"/><path d="M 1060 1026 L 1060 1011.7 Q 1060 1000 1048.3 1000 L 1001.7 1000 Q 990 1000 990 1011.7 L 990 1026 Z" fill="#0066cc" stroke="#000000" stroke-miterlimit="10" pointer-events="none"/><g fill="#FFFFFF" font-family="Verdana" text-anchor="middle" font-size="14px"><text x="1023.6700000000001" y="1017.5">S2@T26</text></g><g fill="#000000" font-family="Helvetica" clip-path="url(#mx-clip-994-1031-62-26-0)" text-anchor="middle" font-size="14px"><text x="1024.5" y="1045.5">Point 'b8'</text></g><g fill="#000000" font-family="Helvetica" clip-path="url(#mx-clip-994-1057-62-28-0)" text-anchor="middle" font-size="14px"><text x="1024.5" y="1071.5">S1@T23</text></g><path d="M 1025 1099.67 Q 1025 1079.67 1025 1089.67 Q 1025 1099.67 1025 1086.37" fill="none" stroke="#000000" stroke-miterlimit="10" pointer-events="none"/><path d="M 1025 1081.12 L 1028.5 1088.12 L 1025 1086.37 L 1021.5 1088.12 Z" fill="#000000" stroke="#000000" stroke-miterlimit="10" pointer-events="none"/><rect x="990" y="1100" width="70" height="80" rx="11.7" ry="11.7" fill="#ffcccc" stroke="#000000" pointer-events="none"/><path d="M 1060 1126 L 1060 1111.7 Q 1060 1100 1048.3 1100 L 1001.7 1100 Q 990 1100 990 1111.7 L 990 1126 Z" fill="#0066cc" stroke="#000000" stroke-miterlimit="10" pointer-events="none"/><g fill="#FFFFFF" font-family="Verdana" text-anchor="middle" font-size="14px"><text x="1023.6700000000001" y="1117.5">S2@T27</text></g><g fill="#000000" font-family="Helvetica" clip-path="url(#mx-clip-994-1131-62-26-0)" text-anchor="middle" font-size="14px"><text x="1024.5" y="1145.5">Round</text></g><g fill="#000000" font-family="Helvetica" clip-path="url(#mx-clip-994-1157-62-28-0)" text-anchor="middle" font-size="14px"><text x="1024.5" y="1171.5">S2@T26</text></g><path d="M 650 164.67 Q 470 190 435 145 Q 400 100 236.33 118.93" fill="none" stroke="#000000" stroke-miterlimit="10" pointer-events="none"/><path d="M 231.11 119.54 L 237.66 115.26 L 236.33 118.93 L 238.47 122.21 Z" fill="#000000" stroke="#000000" stroke-miterlimit="10" pointer-events="none"/><rect x="405" y="0" width="70" height="80" rx="11.7" ry="11.7" fill="#ffffff" stroke="#000000" pointer-events="none"/><path d="M 475 26 L 475 11.7 Q 475 0 463.3 0 L 416.7 0 Q 405 0 405 11.7 L 405 26 Z" fill="#009900" stroke="#000000" stroke-miterlimit="10" pointer-events="none"/><g fill="#FFFFFF" font-family="Verdana" text-anchor="middle" font-size="14px"><text x="438.67" y="17.5">S1@T1</text></g><g fill="#000000" font-family="Helvetica" clip-path="url(#mx-clip-409-31-62-26-0)" text-anchor="middle" font-size="14px"><text x="439.5" y="45.5">ø</text></g><g fill="#000000" font-family="Helvetica" clip-path="url(#mx-clip-409-57-62-28-0)" text-anchor="middle" font-size="14px"><text x="439.5" y="71.5">ø</text></g><rect x="160" y="99" width="70" height="80" rx="11.7" ry="11.7" fill="#ffffff" stroke="#000000" pointer-events="none"/><path d="M 230 125 L 230 110.7 Q 230 99 218.3 99 L 171.7 99 Q 160 99 160 110.7 L 160 125 Z" fill="#009900" stroke="#000000" stroke-miterlimit="10" pointer-events="none"/><g fill="#FFFFFF" font-family="Verdana" text-anchor="middle" font-size="14px"><text x="193.67" y="116.5">S1@T2</text></g><g fill="#000000" font-family="Helvetica" clip-path="url(#mx-clip-164-130-62-26-0)" text-anchor="middle" font-size="14px"><text x="194.5" y="144.5">Shape 'A'</text></g><g fill="#000000" font-family="Helvetica" clip-path="url(#mx-clip-164-156-62-28-0)" text-anchor="middle" font-size="14px"><text x="194.5" y="170.5">S1@T1</text></g><rect x="160" y="199" width="70" height="80" rx="11.7" ry="11.7" fill="#ffcccc" stroke="#000000" pointer-events="none"/><path d="M 230 225 L 230 210.7 Q 230 199 218.3 199 L 171.7 199 Q 160 199 160 210.7 L 160 225 Z" fill="#009900" stroke="#000000" stroke-miterlimit="10" pointer-events="none"/><g fill="#FFFFFF" font-family="Verdana" text-anchor="middle" font-size="14px"><text x="193.67" y="216.5">S1@T3</text></g><g fill="#000000" font-family="Helvetica" clip-path="url(#mx-clip-164-230-62-26-0)" text-anchor="middle" font-size="14px"><text x="194.5" y="244.5">ø</text></g><g fill="#000000" font-family="Helvetica" clip-path="url(#mx-clip-164-256-62-28-0)" text-anchor="middle" font-size="14px"><text x="194.5" y="270.5">S1@T2</text></g><rect x="0" y="298" width="70" height="80" rx="11.7" ry="11.7" fill="#ffcccc" stroke="#000000" pointer-events="none"/><path d="M 70 324 L 70 309.7 Q 70 298 58.3 298 L 11.7 298 Q 0 298 0 309.7 L 0 324 Z" fill="#0066cc" stroke="#000000" stroke-miterlimit="10" pointer-events="none"/><g fill="#FFFFFF" font-family="Verdana" text-anchor="middle" font-size="14px"><text x="33.67" y="315.5">S2@T11</text></g><g fill="#000000" font-family="Helvetica" clip-path="url(#mx-clip-4-329-62-26-0)" text-anchor="middle" font-size="14px"><text x="34.5" y="343.5">Color</text></g><g fill="#000000" font-family="Helvetica" clip-path="url(#mx-clip-4-355-62-28-0)" text-anchor="middle" font-size="14px"><text x="34.5" y="369.5">S1@T3</text></g></g></svg>