<?xml version="1.0" encoding="UTF-8" standalone="no"?>
<!DOCTYPE svg PUBLIC "-//W3C//DTD SVG 1.1//EN" "http://www.w3.org/Graphics/SVG/1.1/DTD/svg11.dtd">
<svg width="100%" height="100%" viewBox="0 0 579 404" version="1.1" xmlns="http://www.w3.org/2000/svg" xmlns:xlink="http://www.w3.org/1999/xlink" xml:space="preserve" xmlns:serif="http://www.serif.com/" style="fill-rule:evenodd;clip-rule:evenodd;stroke-linecap:round;stroke-linejoin:round;stroke-miterlimit:1.5;">
    <g transform="matrix(1,0,0,1,-261.722,-604.455)">
        <path d="M298.028,891.521L316.243,705.469C316.243,705.469 423.798,638.898 458.059,644.319C492.321,649.74 521.811,737.995 521.811,737.995L415.124,784.834C415.124,784.834 499.693,892.171 493.188,924.048C486.683,955.924 376.092,976.09 376.092,976.09L298.028,891.521Z" style="fill:rgb(253,135,253);stroke:black;stroke-width:2.08px;"/>
    </g>
    <g transform="matrix(1,0,0,1,-231.722,-604.455)">
        <path d="M530.919,830.371L610.284,683.351C610.284,683.351 616.789,764.884 633.703,771.823C650.617,778.762 711.767,724.985 711.767,724.985C711.767,724.985 764.243,778.762 762.508,808.253C760.773,837.744 701.358,901.929 701.358,901.929L530.919,830.371Z" style="fill:rgb(249,206,158);stroke:black;stroke-width:2.08px;"/>
    </g>
    <g transform="matrix(0.597188,0,0,0.597188,-111.181,-211.061)">
        <circle cx="378.689" cy="974.138" r="10.409" style="fill:rgb(217,26,26);"/>
    </g>
    <g transform="matrix(0.597188,0,0,0.597188,173.91,-402.158)">
        <circle cx="378.689" cy="974.138" r="10.409" style="fill:rgb(217,26,26);"/>
    </g>
    <g transform="matrix(0.597188,0,0,0.597188,-189.297,-296.238)">
        <circle cx="378.689" cy="974.138" r="10.409" style="fill:rgb(57,208,62);"/>
    </g>
    <g transform="matrix(0.597188,0,0,0.597188,152.726,-501.459)">
        <circle cx="378.689" cy="974.138" r="10.409" style="fill:rgb(57,208,62);"/>
    </g>
    <g transform="matrix(0.597188,0,0,0.597188,-170.32,-481.598)">
        <circle cx="378.689" cy="974.138" r="10.409"/>
    </g>
    <g transform="matrix(0.597188,0,0,0.597188,-21.5901,-550.623)">
        <circle cx="378.689" cy="974.138" r="10.409"/>
    </g>
    <g transform="matrix(0.597188,0,0,0.597188,33.1353,-448.498)">
        <circle cx="378.689" cy="974.138" r="10.409"/>
    </g>
    <g transform="matrix(0.597188,0,0,0.597188,74.1687,-356.701)">
        <circle cx="378.689" cy="974.138" r="10.409"/>
    </g>
    <g transform="matrix(0.597188,0,0,0.597188,-71.0196,-401.276)">
        <circle cx="378.689" cy="974.138" r="10.409"/>
    </g>
    <g transform="matrix(0.597188,0,0,0.597188,14.1579,-252.987)">
        <circle cx="378.689" cy="974.138" r="10.409"/>
    </g>
    <g transform="matrix(0.597188,0,0,0.597188,244.082,-285.205)">
        <circle cx="378.689" cy="974.138" r="10.409"/>
    </g>
    <g transform="matrix(0.597188,0,0,0.597188,314.364,-375.678)">
        <circle cx="378.689" cy="974.138" r="10.409"/>
    </g>
    <g transform="matrix(0.597188,0,0,0.597188,255.226,-461.297)">
        <circle cx="378.689" cy="974.138" r="10.409"/>
    </g>
    <g transform="matrix(1,0,0,1,-260.722,-598.455)">
        <text x="267.721px" y="889.6px" style="font-family:'Helvetica';font-size:18.667px;">a1</text>
    </g>
    <g transform="matrix(1,0,0,1,-243.727,-783.575)">
        <text x="267.721px" y="889.6px" style="font-family:'Helvetica';font-size:18.667px;">a2</text>
    </g>
    <g transform="matrix(1,0,0,1,-73.8955,-870.095)">
        <text x="267.721px" y="889.6px" style="font-family:'Helvetica';font-size:18.667px;">a3</text>
    </g>
    <g transform="matrix(1,0,0,1,1.41937,-750.627)">
        <text x="267.721px" y="889.6px" style="font-family:'Helvetica';font-size:18.667px;">a4</text>
    </g>
    <g transform="matrix(1,0,0,1,99.6525,-821.576)">
        <text x="267.721px" y="889.6px" style="font-family:'Helvetica';font-size:18.667px;">b2</text>
    </g>
    <g transform="matrix(1,0,0,1,0.714752,-658.325)">
        <text x="267.721px" y="889.6px" style="font-family:'Helvetica';font-size:18.667px;">b3</text>
    </g>
    <g transform="matrix(1,0,0,1,192.954,-567.405)">
        <text x="267.721px" y="889.6px" style="font-family:'Helvetica';font-size:18.667px;">b5</text>
    </g>
    <g transform="matrix(1,0,0,1,283.176,-677.598)">
        <text x="267.721px" y="889.6px" style="font-family:'Helvetica';font-size:18.667px;">b6</text>
    </g>
    <g transform="matrix(1,0,0,1,203.749,-781.314)">
        <text x="267.721px" y="889.6px" style="font-family:'Helvetica';font-size:18.667px;">b7</text>
    </g>
    <g transform="matrix(1,0,0,1,122.243,-683.155)">
        <text x="267.721px" y="889.6px" style="font-family:'Helvetica';font-size:18.667px;">b8</text>
    </g>
    <g transform="matrix(1,0,0,1,-101.138,-700.43)">
        <text x="267.721px" y="889.6px" style="font-family:'Helvetica';font-size:18.667px;">a5</text>
    </g>
    <g transform="matrix(1,0,0,1,-17.3244,-555.426)">
        <text x="267.721px" y="889.6px" style="font-family:'Helvetica';font-size:18.667px;">a6</text>
    </g>
    <g transform="matrix(1,0,0,1,-163.954,-493.941)">
        <text x="267.721px" y="889.6px" style="font-family:'Helvetica';font-size:18.667px;">a8</text>
    </g>
</svg>
