<!DOCTYPE svg PUBLIC "-//W3C//DTD SVG 1.1//EN" "http://www.w3.org/Graphics/SVG/1.1/DTD/svg11.dtd">
<svg xmlns="http://www.w3.org/2000/svg" xmlns:xlink="http://www.w3.org/1999/xlink" width="341px" height="304px" version="1.1"><defs><clipPath id="mx-clip-4-141-62-26-0"><rect x="4" y="141" width="62" height="26"/></clipPath><clipPath id="mx-clip-4-167-62-28-0"><rect x="4" y="167" width="62" height="28"/></clipPath><clipPath id="mx-clip-94-141-62-26-0"><rect x="94" y="141" width="62" height="26"/></clipPath><clipPath id="mx-clip-94-167-62-28-0"><rect x="94" y="167" width="62" height="28"/></clipPath><clipPath id="mx-clip-94-31-62-26-0"><rect x="94" y="31" width="62" height="26"/></clipPath><clipPath id="mx-clip-94-57-62-28-0"><rect x="94" y="57" width="62" height="28"/></clipPath><clipPath id="mx-clip-184-251-62-26-0"><rect x="184" y="251" width="62" height="26"/></clipPath><clipPath id="mx-clip-184-277-62-28-0"><rect x="184" y="277" width="62" height="28"/></clipPath><clipPath id="mx-clip-184-31-62-26-0"><rect x="184" y="31" width="62" height="26"/></clipPath><clipPath id="mx-clip-184-57-62-28-0"><rect x="184" y="57" width="62" height="28"/></clipPath><clipPath id="mx-clip-94-251-62-26-0"><rect x="94" y="251" width="62" height="26"/></clipPath><clipPath id="mx-clip-94-277-62-28-0"><rect x="94" y="277" width="62" height="28"/></clipPath><clipPath id="mx-clip-184-141-62-26-0"><rect x="184" y="141" width="62" height="26"/></clipPath><clipPath id="mx-clip-184-167-62-28-0"><rect x="184" y="167" width="62" height="28"/></clipPath><clipPath id="mx-clip-274-141-62-26-0"><rect x="274" y="141" width="62" height="26"/></clipPath><clipPath id="mx-clip-274-167-62-28-0"><rect x="274" y="167" width="62" height="28"/></clipPath></defs><g transform="translate(0.5,0.5)"><path d="M 179.83 155.67 Q 179.83 155.67 168.23 155.86" fill="none" stroke="#000000" stroke-width="2" stroke-miterlimit="10" pointer-events="none"/><path d="M 162.24 155.96 L 170.17 151.83 L 168.23 155.86 L 170.3 159.83 Z" fill="#000000" stroke="#000000" stroke-width="2" stroke-miterlimit="10" pointer-events="none"/><path d="M 89.83 155.67 Q 89.83 155.67 78.23 155.86" fill="none" stroke="#000000" stroke-width="2" stroke-miterlimit="10" pointer-events="none"/><path d="M 72.24 155.96 L 80.17 151.83 L 78.23 155.86 L 80.3 159.83 Z" fill="#000000" stroke="#000000" stroke-width="2" stroke-miterlimit="10" pointer-events="none"/><path d="M 125 220 Q 125 220 125 199.24" fill="none" stroke="#000000" stroke-width="2" stroke-miterlimit="10" pointer-events="none"/><path d="M 125 193.24 L 129 201.24 L 125 199.24 L 121 201.24 Z" fill="#000000" stroke="#000000" stroke-width="2" stroke-miterlimit="10" pointer-events="none"/><path d="M 215 220 Q 215 220 215 199.24" fill="none" stroke="#000000" stroke-width="2" stroke-miterlimit="10" pointer-events="none"/><path d="M 215 193.24 L 219 201.24 L 215 199.24 L 211 201.24 Z" fill="#000000" stroke="#000000" stroke-width="2" stroke-miterlimit="10" pointer-events="none"/><path d="M 125 101.76 Q 125 101.76 125 80" fill="none" stroke="#000000" stroke-width="2" stroke-miterlimit="10" pointer-events="none"/><path d="M 125 107.76 L 121 99.76 L 125 101.76 L 129 99.76 Z" fill="#000000" stroke="#000000" stroke-width="2" stroke-miterlimit="10" pointer-events="none"/><path d="M 215 101.76 Q 215 101.76 215 80" fill="none" stroke="#000000" stroke-width="2" stroke-miterlimit="10" pointer-events="none"/><path d="M 215 107.76 L 211 99.76 L 215 101.76 L 219 99.76 Z" fill="#000000" stroke="#000000" stroke-width="2" stroke-miterlimit="10" pointer-events="none"/><rect x="0" y="110" width="70" height="80" rx="11.7" ry="11.7" fill="#ffffff" stroke="#000000" pointer-events="none"/><path d="M 70 136 L 70 121.7 Q 70 110 58.3 110 L 11.7 110 Q 0 110 0 121.7 L 0 136 Z" fill="#009900" stroke="#000000" stroke-miterlimit="10" pointer-events="none"/><g fill="#FFFFFF" font-family="Verdana" text-anchor="middle" font-size="14px"><text x="34.5" y="128.5">S1@T1</text></g><g fill="#000000" font-family="Helvetica" clip-path="url(#mx-clip-4-141-62-26-0)" text-anchor="middle" font-size="14px"><text x="34.5" y="155.5">Insert 'A'</text></g><g fill="#000000" font-family="Helvetica" clip-path="url(#mx-clip-4-167-62-28-0)" text-anchor="middle" font-size="14px"><text x="34.5" y="181.5">ø</text></g><rect x="90" y="110" width="70" height="80" rx="11.7" ry="11.7" fill="#ffffff" stroke="#000000" pointer-events="none"/><path d="M 160 136 L 160 121.7 Q 160 110 148.3 110 L 101.7 110 Q 90 110 90 121.7 L 90 136 Z" fill="#009900" stroke="#000000" stroke-miterlimit="10" pointer-events="none"/><g fill="#FFFFFF" font-family="Verdana" text-anchor="middle" font-size="14px"><text x="124.5" y="128.5">S1@T2</text></g><g fill="#000000" font-family="Helvetica" clip-path="url(#mx-clip-94-141-62-26-0)" text-anchor="middle" font-size="14px"><text x="124.5" y="155.5">Insert 'B'</text></g><g fill="#000000" font-family="Helvetica" clip-path="url(#mx-clip-94-167-62-28-0)" text-anchor="middle" font-size="14px"><text x="124.5" y="181.5">S1@T1</text></g><rect x="90" y="0" width="70" height="80" rx="11.7" ry="11.7" fill="#ffffff" stroke="#000000" pointer-events="none"/><path d="M 160 26 L 160 11.7 Q 160 0 148.3 0 L 101.7 0 Q 90 0 90 11.7 L 90 26 Z" fill="#0066cc" stroke="#000000" stroke-miterlimit="10" pointer-events="none"/><g fill="#FFFFFF" font-family="Verdana" text-anchor="middle" font-size="14px"><text x="124.5" y="18.5">S2@T5</text></g><g fill="#000000" font-family="Helvetica" clip-path="url(#mx-clip-94-31-62-26-0)" text-anchor="middle" font-size="14px"><text x="124.5" y="45.5">Delete</text></g><g fill="#000000" font-family="Helvetica" clip-path="url(#mx-clip-94-57-62-28-0)" text-anchor="middle" font-size="14px"><text x="124.5" y="71.5">S1@T2</text></g><rect x="180" y="220" width="70" height="80" rx="11.7" ry="11.7" fill="#ffffff" stroke="#000000" pointer-events="none"/><path d="M 250 246 L 250 231.7 Q 250 220 238.3 220 L 191.7 220 Q 180 220 180 231.7 L 180 246 Z" fill="#cc0066" stroke="#000000" stroke-miterlimit="10" pointer-events="none"/><g fill="#FFFFFF" font-family="Verdana" text-anchor="middle" font-size="14px"><text x="214.5" y="238.5">S3@T7</text></g><g fill="#000000" font-family="Helvetica" clip-path="url(#mx-clip-184-251-62-26-0)" text-anchor="middle" font-size="14px"><text x="214.5" y="265.5">Delete</text></g><g fill="#000000" font-family="Helvetica" clip-path="url(#mx-clip-184-277-62-28-0)" text-anchor="middle" font-size="14px"><text x="214.5" y="291.5">S1@T3</text></g><rect x="180" y="0" width="70" height="80" rx="11.7" ry="11.7" fill="#ffffff" stroke="#000000" pointer-events="none"/><path d="M 250 26 L 250 11.7 Q 250 0 238.3 0 L 191.7 0 Q 180 0 180 11.7 L 180 26 Z" fill="#0066cc" stroke="#000000" stroke-miterlimit="10" pointer-events="none"/><g fill="#FFFFFF" font-family="Verdana" text-anchor="middle" font-size="14px"><text x="214.5" y="18.5">S2@T6</text></g><g fill="#000000" font-family="Helvetica" clip-path="url(#mx-clip-184-31-62-26-0)" text-anchor="middle" font-size="14px"><text x="214.5" y="45.5">Insert 'D'</text></g><g fill="#000000" font-family="Helvetica" clip-path="url(#mx-clip-184-57-62-28-0)" text-anchor="middle" font-size="14px"><text x="214.5" y="71.5">S1@T3</text></g><rect x="90" y="220" width="70" height="80" rx="11.7" ry="11.7" fill="#ffffff" stroke="#000000" pointer-events="none"/><path d="M 160 246 L 160 231.7 Q 160 220 148.3 220 L 101.7 220 Q 90 220 90 231.7 L 90 246 Z" fill="#cc0066" stroke="#000000" stroke-miterlimit="10" pointer-events="none"/><g fill="#FFFFFF" font-family="Verdana" text-anchor="middle" font-size="14px"><text x="124.5" y="238.5">S3@T6</text></g><g fill="#000000" font-family="Helvetica" clip-path="url(#mx-clip-94-251-62-26-0)" text-anchor="middle" font-size="14px"><text x="124.5" y="265.5">Insert 'E'</text></g><g fill="#000000" font-family="Helvetica" clip-path="url(#mx-clip-94-277-62-28-0)" text-anchor="middle" font-size="14px"><text x="124.5" y="291.5">S1@T2</text></g><rect x="180" y="110" width="70" height="80" rx="11.7" ry="11.7" fill="#ffffff" stroke="#000000" pointer-events="none"/><path d="M 250 136 L 250 121.7 Q 250 110 238.3 110 L 191.7 110 Q 180 110 180 121.7 L 180 136 Z" fill="#009900" stroke="#000000" stroke-miterlimit="10" pointer-events="none"/><g fill="#FFFFFF" font-family="Verdana" text-anchor="middle" font-size="14px"><text x="214.5" y="128.5">S1@T3</text></g><g fill="#000000" font-family="Helvetica" clip-path="url(#mx-clip-184-141-62-26-0)" text-anchor="middle" font-size="14px"><text x="214.5" y="155.5">Insert 'C'</text></g><g fill="#000000" font-family="Helvetica" clip-path="url(#mx-clip-184-167-62-28-0)" text-anchor="middle" font-size="14px"><text x="214.5" y="181.5">S1@T2</text></g><rect x="270" y="110" width="70" height="80" rx="11.7" ry="11.7" fill-opacity="0" fill="#ffffff" stroke="#000000" stroke-opacity="0" pointer-events="none"/><path d="M 340 136 L 340 121.7 Q 340 110 328.3 110 L 281.7 110 Q 270 110 270 121.7 L 270 136 Z" fill-opacity="0" fill="#009900" stroke="#000000" stroke-opacity="0" stroke-miterlimit="10" pointer-events="none"/><g fill="#FFFFFF" font-family="Verdana" text-anchor="middle" font-size="14px"/><g fill="#000000" font-family="Helvetica" clip-path="url(#mx-clip-274-141-62-26-0)" text-anchor="middle" font-size="14px"/><g fill="#000000" font-family="Helvetica" clip-path="url(#mx-clip-274-167-62-28-0)" text-anchor="middle" font-size="14px"/></g></svg>