<?xml version="1.0" encoding="UTF-8" standalone="no"?>
<!DOCTYPE svg PUBLIC "-//W3C//DTD SVG 1.1//EN" "http://www.w3.org/Graphics/SVG/1.1/DTD/svg11.dtd">
<svg width="100%" height="100%" viewBox="0 0 196 140" version="1.1" xmlns="http://www.w3.org/2000/svg" xmlns:xlink="http://www.w3.org/1999/xlink" xml:space="preserve" xmlns:serif="http://www.serif.com/" style="fill-rule:evenodd;clip-rule:evenodd;stroke-miterlimit:10;">
    <g transform="matrix(1,0,0,1,-71.0828,-59.023)">
        <g transform="matrix(0,0.8,-0.8,0,328,-103)">
            <path d="M236,109C236,109 258.667,109 304,109" style="fill:none;stroke:rgb(150,150,150);stroke-width:1px;stroke-dasharray:2.25,2.25;"/>
        </g>
        <g transform="matrix(0,0.8,-0.8,0,184,41)">
            <path d="M56,109C56,109 78.667,109 124,109" style="fill:none;stroke:rgb(150,150,150);stroke-width:1px;stroke-dasharray:2.25,2.25;"/>
        </g>
        <g transform="matrix(0,0.8,-0.8,0,220.8,-66.2)">
            <path d="M168,65C168,65 176,65 192,65" style="fill:none;stroke:rgb(150,150,150);stroke-width:1px;stroke-dasharray:2.25,2.25;"/>
        </g>
        <g transform="matrix(0.8,0,0,-0.8,24.8,214.776)">
            <path d="M180,138.22C180,123.553 165,116.22 135,116.22C105,116.22 90,110.147 90,98" style="fill:none;stroke:black;stroke-width:1px;"/>
        </g>
        <g transform="matrix(-0.446532,-0.894768,-0.894768,0.446532,725.72,-68.2421)">
            <path d="M94.927,655.513L99.621,655.513L97.747,654.106L97.745,651.755L94.927,655.513Z" style="fill-rule:nonzero;stroke:black;stroke-width:0.8px;"/>
        </g>
        <g transform="matrix(0.8,0,0,-0.8,24.8,214.776)">
            <path d="M180,138.22C180,123.553 195,116.22 225,116.22C255,116.22 270,110.147 270,98" style="fill:none;stroke:black;stroke-width:1px;"/>
        </g>
        <g transform="matrix(-0.446532,-0.894768,-0.894768,0.446532,934.021,60.6045)">
            <path d="M238.927,655.513L243.621,655.513L241.747,654.106L241.745,651.755L238.927,655.513Z" style="fill-rule:nonzero;stroke:black;stroke-width:0.8px;"/>
        </g>
        <g transform="matrix(0.8,0,0,-0.8,24.8,310.376)">
            <path d="M90,197.72C90,183.053 105,175.72 135,175.72C165,175.72 180,169.813 180,158" style="fill:none;stroke:black;stroke-width:1px;"/>
        </g>
        <g transform="matrix(-0.446532,-0.894768,-0.894768,0.446532,787.279,65.0361)">
            <path d="M166.927,607.913L171.621,607.913L169.747,606.506L169.745,604.155L166.927,607.913Z" style="fill-rule:nonzero;stroke:black;stroke-width:0.8px;"/>
        </g>
        <g transform="matrix(0.8,0,0,-0.8,24.8,310.376)">
            <path d="M270,197.72C270,183.053 255,175.72 225,175.72C195,175.72 180,169.813 180,158" style="fill:none;stroke:black;stroke-width:1px;"/>
        </g>
        <g transform="matrix(-0.446532,-0.894768,-0.894768,0.446532,787.279,65.0361)">
            <path d="M166.927,607.913L171.621,607.913L169.747,606.506L169.745,604.155L166.927,607.913Z" style="fill-rule:nonzero;stroke:black;stroke-width:0.8px;"/>
        </g>
        <path d="M163.902,101.719C162.973,102.052 162.099,102.218 161.279,102.218C159.845,102.218 158.689,101.788 157.812,100.928C156.936,100.068 156.498,98.937 156.498,97.535C156.498,96.115 156.934,94.964 157.805,94.083C158.677,93.202 159.816,92.761 161.223,92.761C162.02,92.761 162.873,92.897 163.782,93.169L163.782,94.441C162.854,94.015 161.987,93.802 161.18,93.802C160.248,93.802 159.48,94.144 158.878,94.828C158.275,95.512 157.974,96.384 157.974,97.444C157.974,98.512 158.314,99.387 158.994,100.066C159.673,100.746 160.548,101.086 161.616,101.086C162.263,101.086 163.025,100.917 163.902,100.58L163.902,101.719Z" style="fill-rule:nonzero;"/>
        <path d="M165.118,102L165.118,92.979L166.784,92.979L168.767,98.534L168.781,98.534L170.729,92.979L172.466,92.979L172.466,102L171.334,102L171.334,94.259L171.32,94.259L169.287,100.095L168.12,100.095L166.095,94.42L166.081,94.42L166.081,102L165.118,102Z" style="fill-rule:nonzero;"/>
        <path d="M174.048,102L174.048,92.979L176.769,92.979C179.769,92.979 181.269,94.423 181.269,97.31C181.269,98.646 180.943,99.727 180.291,100.552C179.884,101.072 179.381,101.443 178.783,101.666C178.186,101.889 177.39,102 176.396,102L174.048,102ZM175.433,100.959L176.129,100.959C177.451,100.959 178.392,100.697 178.952,100.172C179.512,99.647 179.792,98.766 179.792,97.528C179.792,96.272 179.539,95.373 179.033,94.832C178.527,94.29 177.683,94.02 176.502,94.02L175.433,94.02L175.433,100.959Z" style="fill-rule:nonzero;"/>
        <g>
            <path d="M78.487,149.719C77.559,150.052 76.684,150.218 75.864,150.218C74.43,150.218 73.274,149.788 72.398,148.928C71.521,148.068 71.083,146.937 71.083,145.535C71.083,144.115 71.519,142.964 72.391,142.083C73.262,141.202 74.402,140.761 75.808,140.761C76.605,140.761 77.458,140.897 78.367,141.169L78.367,142.441C77.439,142.015 76.572,141.802 75.766,141.802C74.833,141.802 74.065,142.144 73.463,142.828C72.861,143.512 72.559,144.384 72.559,145.444C72.559,146.512 72.899,147.387 73.579,148.066C74.259,148.746 75.133,149.086 76.202,149.086C76.848,149.086 77.61,148.917 78.487,148.58L78.487,149.719Z" style="fill-rule:nonzero;"/>
            <path d="M79.703,150L79.703,140.979L81.37,140.979L83.352,146.534L83.366,146.534L85.314,140.979L87.051,140.979L87.051,150L85.919,150L85.919,142.259L85.905,142.259L83.873,148.095L82.705,148.095L80.68,142.42L80.666,142.42L80.666,150L79.703,150Z" style="fill-rule:nonzero;"/>
            <path d="M88.633,150L88.633,140.979L91.354,140.979C94.354,140.979 95.854,142.423 95.854,145.31C95.854,146.646 95.528,147.727 94.877,148.552C94.469,149.072 93.966,149.443 93.368,149.666C92.771,149.889 91.975,150 90.981,150L88.633,150ZM90.018,148.959L90.714,148.959C92.036,148.959 92.977,148.697 93.537,148.172C94.097,147.647 94.377,146.766 94.377,145.528C94.377,144.272 94.124,143.373 93.618,142.832C93.112,142.29 92.268,142.02 91.087,142.02L90.018,142.02L90.018,148.959Z" style="fill-rule:nonzero;"/>
            <path d="M97.309,150L97.309,140.979L100.03,140.979C103.03,140.979 104.53,142.423 104.53,145.31C104.53,146.646 104.205,147.727 103.553,148.552C103.145,149.072 102.643,149.443 102.045,149.666C101.447,149.889 100.652,150 99.658,150L97.309,150ZM98.695,148.959L99.391,148.959C100.712,148.959 101.654,148.697 102.214,148.172C102.774,147.647 103.054,146.766 103.054,145.528C103.054,144.272 102.801,143.373 102.295,142.832C101.788,142.29 100.945,142.02 99.763,142.02L98.695,142.02L98.695,148.959Z" style="fill:rgb(102,204,0);fill-rule:nonzero;"/>
            <path d="M106.591,150L106.591,140.979L112.687,140.979L112.687,142.02L107.976,142.02L107.976,144.755L111.97,144.755L111.97,145.795L107.976,145.795L107.976,148.959L113.01,148.959L113.01,150L106.591,150Z" style="fill:rgb(102,204,0);fill-rule:nonzero;"/>
            <path d="M115.309,150L115.309,140.979L116.695,140.979L116.695,148.959L121.553,148.959L121.553,150L115.309,150Z" style="fill:rgb(102,204,0);fill-rule:nonzero;"/>
        </g>
        <g>
            <path d="M222.487,149.719C221.559,150.052 220.684,150.218 219.864,150.218C218.43,150.218 217.274,149.788 216.398,148.928C215.521,148.068 215.083,146.937 215.083,145.535C215.083,144.115 215.519,142.964 216.391,142.083C217.262,141.202 218.402,140.761 219.808,140.761C220.605,140.761 221.458,140.897 222.367,141.169L222.367,142.441C221.439,142.015 220.572,141.802 219.766,141.802C218.833,141.802 218.065,142.144 217.463,142.828C216.861,143.512 216.559,144.384 216.559,145.444C216.559,146.512 216.899,147.387 217.579,148.066C218.259,148.746 219.133,149.086 220.202,149.086C220.848,149.086 221.61,148.917 222.487,148.58L222.487,149.719Z" style="fill-rule:nonzero;"/>
            <path d="M223.703,150L223.703,140.979L225.37,140.979L227.352,146.534L227.366,146.534L229.314,140.979L231.051,140.979L231.051,150L229.919,150L229.919,142.259L229.905,142.259L227.873,148.095L226.705,148.095L224.68,142.42L224.666,142.42L224.666,150L223.703,150Z" style="fill-rule:nonzero;"/>
            <path d="M232.633,150L232.633,140.979L235.354,140.979C238.354,140.979 239.854,142.423 239.854,145.31C239.854,146.646 239.528,147.727 238.877,148.552C238.469,149.072 237.966,149.443 237.368,149.666C236.771,149.889 235.975,150 234.981,150L232.633,150ZM234.018,148.959L234.714,148.959C236.036,148.959 236.977,148.697 237.537,148.172C238.097,147.647 238.377,146.766 238.377,145.528C238.377,144.272 238.124,143.373 237.618,142.832C237.112,142.29 236.268,142.02 235.087,142.02L234.018,142.02L234.018,148.959Z" style="fill-rule:nonzero;"/>
            <path d="M240.48,150L244.038,140.979L245.423,140.979L248.98,150L247.511,150L246.66,147.743L242.54,147.743L241.675,150L240.48,150ZM242.955,146.702L246.245,146.702L244.593,142.392L242.955,146.702Z" style="fill:rgb(102,204,0);fill-rule:nonzero;"/>
            <path d="M250.633,150L250.633,140.979L252.018,140.979L252.018,148.959L256.877,148.959L256.877,150L250.633,150Z" style="fill:rgb(102,204,0);fill-rule:nonzero;"/>
            <path d="M261.391,150L261.391,142.02L257.924,142.02L257.924,140.979L266.249,140.979L266.249,142.02L262.783,142.02L262.783,150L261.391,150Z" style="fill:rgb(102,204,0);fill-rule:nonzero;"/>
        </g>
        <path d="M133.734,197.719C132.805,198.052 131.931,198.218 131.111,198.218C129.677,198.218 128.521,197.788 127.645,196.928C126.768,196.068 126.33,194.937 126.33,193.535C126.33,192.115 126.766,190.964 127.638,190.083C128.509,189.202 129.648,188.761 131.055,188.761C131.852,188.761 132.705,188.897 133.614,189.169L133.614,190.441C132.686,190.015 131.819,189.802 131.012,189.802C130.08,189.802 129.312,190.144 128.71,190.828C128.107,191.512 127.806,192.384 127.806,193.444C127.806,194.512 128.146,195.387 128.826,196.066C129.505,196.746 130.38,197.086 131.448,197.086C132.095,197.086 132.857,196.917 133.734,196.58L133.734,197.719Z" style="fill-rule:nonzero;"/>
        <path d="M137.931,198L137.931,190.02L134.465,190.02L134.465,188.979L142.79,188.979L142.79,190.02L139.323,190.02L139.323,198L137.931,198Z" style="fill-rule:nonzero;"/>
        <path d="M144.259,198L144.259,188.979L146.784,188.979C147.834,188.979 148.563,189.066 148.97,189.239C149.842,189.6 150.278,190.237 150.278,191.152C150.278,191.78 150.121,192.304 149.807,192.723C149.493,193.143 148.968,193.533 148.232,193.894L151.424,198L149.744,198L146.896,194.245L145.645,194.245L145.645,198L144.259,198ZM145.645,193.198L146.376,193.198C147.121,193.198 147.712,193.034 148.148,192.705C148.584,192.377 148.802,191.934 148.802,191.377C148.802,190.856 148.638,190.5 148.309,190.308C147.981,190.116 147.377,190.02 146.495,190.02L145.645,190.02L145.645,193.198Z" style="fill-rule:nonzero;"/>
        <path d="M153.203,198L153.203,188.979L154.588,188.979L154.588,196.959L159.447,196.959L159.447,198L153.203,198Z" style="fill-rule:nonzero;"/>
        <path d="M160.403,198L163.961,188.979L165.346,188.979L168.904,198L167.434,198L166.584,195.743L162.463,195.743L161.598,198L160.403,198ZM162.878,194.702L166.169,194.702L164.516,190.392L162.878,194.702Z" style="fill-rule:nonzero;"/>
        <path d="M170.556,198L170.556,188.979L171.941,188.979L171.941,196.959L176.8,196.959L176.8,198L170.556,198Z" style="fill-rule:nonzero;"/>
        <path d="M181.314,198L181.314,190.02L177.848,190.02L177.848,188.979L186.173,188.979L186.173,190.02L182.706,190.02L182.706,198L181.314,198Z" style="fill-rule:nonzero;"/>
        <path d="M187.262,198L187.262,188.979L189.984,188.979C192.984,188.979 194.484,190.423 194.484,193.31C194.484,194.646 194.158,195.727 193.506,196.552C193.098,197.072 192.596,197.443 191.998,197.666C191.4,197.889 190.605,198 189.611,198L187.262,198ZM188.648,196.959L189.344,196.959C190.666,196.959 191.607,196.697 192.167,196.172C192.727,195.647 193.007,194.766 193.007,193.528C193.007,192.272 192.754,191.373 192.248,190.832C191.741,190.29 190.898,190.02 189.716,190.02L188.648,190.02L188.648,196.959Z" style="fill-rule:nonzero;"/>
        <path d="M196.544,198L196.544,188.979L202.64,188.979L202.64,190.02L197.929,190.02L197.929,192.755L201.923,192.755L201.923,193.795L197.929,193.795L197.929,196.959L202.963,196.959L202.963,198L196.544,198Z" style="fill-rule:nonzero;"/>
        <path d="M205.262,198L205.262,188.979L206.648,188.979L206.648,196.959L211.506,196.959L211.506,198L205.262,198Z" style="fill-rule:nonzero;"/>
        <path d="M159.533,63.256C159.552,63.598 159.633,63.875 159.775,64.088C160.046,64.488 160.523,64.687 161.207,64.687C161.513,64.687 161.792,64.644 162.043,64.556C162.53,64.387 162.773,64.083 162.773,63.646C162.773,63.317 162.671,63.084 162.466,62.944C162.258,62.807 161.933,62.688 161.49,62.587L160.673,62.403C160.14,62.282 159.763,62.15 159.541,62.005C159.158,61.753 158.967,61.377 158.967,60.877C158.967,60.336 159.154,59.891 159.529,59.544C159.904,59.197 160.434,59.023 161.12,59.023C161.752,59.023 162.289,59.175 162.73,59.48C163.172,59.785 163.393,60.273 163.393,60.943L162.626,60.943C162.585,60.62 162.497,60.372 162.363,60.2C162.114,59.886 161.692,59.729 161.096,59.729C160.615,59.729 160.269,59.83 160.058,60.032C159.848,60.234 159.742,60.47 159.742,60.737C159.742,61.033 159.865,61.249 160.111,61.386C160.273,61.473 160.638,61.582 161.207,61.714L162.051,61.906C162.459,61.999 162.773,62.127 162.995,62.288C163.378,62.57 163.569,62.978 163.569,63.514C163.569,64.181 163.326,64.659 162.841,64.946C162.356,65.233 161.792,65.376 161.149,65.376C160.4,65.376 159.813,65.185 159.39,64.802C158.966,64.422 158.758,63.907 158.766,63.256L159.533,63.256Z" style="fill-rule:nonzero;"/>
        <path d="M164.504,60.828L165.255,60.828L165.255,65.2L164.504,65.2L164.504,60.828ZM164.504,59.175L165.255,59.175L165.255,60.012L164.504,60.012L164.504,59.175Z" style="fill-rule:nonzero;"/>
        <path d="M166.518,59.581L167.265,59.581L167.265,60.807L167.966,60.807L167.966,61.41L167.265,61.41L167.265,64.277C167.265,64.43 167.317,64.533 167.42,64.585C167.478,64.615 167.574,64.63 167.708,64.63C167.743,64.63 167.781,64.629 167.822,64.628C167.863,64.626 167.911,64.623 167.966,64.618L167.966,65.2C167.881,65.225 167.793,65.242 167.701,65.253C167.61,65.264 167.511,65.27 167.404,65.27C167.059,65.27 166.826,65.182 166.703,65.005C166.58,64.829 166.518,64.6 166.518,64.318L166.518,61.41L165.923,61.41L165.923,60.807L166.518,60.807L166.518,59.581Z" style="fill-rule:nonzero;"/>
        <path d="M170.533,60.709C170.845,60.709 171.147,60.782 171.44,60.928C171.733,61.075 171.955,61.264 172.108,61.496C172.256,61.718 172.355,61.976 172.404,62.271C172.448,62.474 172.469,62.796 172.469,63.239L169.25,63.239C169.263,63.685 169.369,64.043 169.566,64.312C169.762,64.581 170.067,64.716 170.48,64.716C170.866,64.716 171.173,64.589 171.403,64.335C171.534,64.187 171.627,64.016 171.682,63.822L172.408,63.822C172.389,63.983 172.325,64.163 172.217,64.361C172.109,64.559 171.988,64.721 171.854,64.847C171.63,65.066 171.352,65.214 171.022,65.29C170.844,65.334 170.643,65.356 170.419,65.356C169.872,65.356 169.408,65.157 169.028,64.759C168.648,64.361 168.458,63.804 168.458,63.088C168.458,62.382 168.65,61.809 169.032,61.369C169.415,60.929 169.916,60.709 170.533,60.709ZM171.711,62.653C171.681,62.333 171.611,62.077 171.501,61.886C171.299,61.53 170.961,61.353 170.488,61.353C170.149,61.353 169.865,61.475 169.635,61.72C169.406,61.965 169.284,62.276 169.27,62.653L171.711,62.653Z" style="fill-rule:nonzero;"/>
        <path d="M175.972,61.041L175.972,60.475C176.505,60.423 176.877,60.336 177.088,60.215C177.298,60.093 177.456,59.805 177.559,59.351L178.142,59.351L178.142,65.2L177.354,65.2L177.354,61.041L175.972,61.041Z" style="fill-rule:nonzero;"/>
        <path d="M231.533,80.856C231.552,81.198 231.633,81.475 231.775,81.688C232.046,82.088 232.523,82.287 233.207,82.287C233.513,82.287 233.792,82.244 234.043,82.156C234.53,81.987 234.773,81.683 234.773,81.246C234.773,80.917 234.671,80.684 234.466,80.544C234.258,80.407 233.933,80.288 233.49,80.187L232.673,80.003C232.14,79.882 231.763,79.75 231.541,79.605C231.158,79.353 230.967,78.977 230.967,78.477C230.967,77.936 231.154,77.491 231.529,77.144C231.904,76.797 232.434,76.623 233.12,76.623C233.752,76.623 234.289,76.775 234.73,77.08C235.172,77.385 235.393,77.873 235.393,78.543L234.626,78.543C234.585,78.22 234.497,77.972 234.363,77.8C234.114,77.486 233.692,77.329 233.096,77.329C232.615,77.329 232.269,77.43 232.058,77.632C231.848,77.834 231.742,78.07 231.742,78.337C231.742,78.633 231.865,78.849 232.111,78.986C232.273,79.073 232.638,79.182 233.207,79.314L234.051,79.506C234.459,79.599 234.773,79.727 234.995,79.888C235.378,80.17 235.569,80.578 235.569,81.114C235.569,81.781 235.326,82.259 234.841,82.546C234.356,82.833 233.792,82.976 233.149,82.976C232.4,82.976 231.813,82.785 231.39,82.402C230.966,82.022 230.758,81.507 230.766,80.856L231.533,80.856Z" style="fill-rule:nonzero;"/>
        <path d="M236.504,78.428L237.255,78.428L237.255,82.8L236.504,82.8L236.504,78.428ZM236.504,76.775L237.255,76.775L237.255,77.612L236.504,77.612L236.504,76.775Z" style="fill-rule:nonzero;"/>
        <path d="M238.518,77.181L239.265,77.181L239.265,78.407L239.966,78.407L239.966,79.01L239.265,79.01L239.265,81.877C239.265,82.03 239.317,82.133 239.42,82.185C239.478,82.215 239.574,82.23 239.708,82.23C239.743,82.23 239.781,82.229 239.822,82.228C239.863,82.226 239.911,82.223 239.966,82.218L239.966,82.8C239.881,82.825 239.793,82.842 239.701,82.853C239.61,82.864 239.511,82.87 239.404,82.87C239.059,82.87 238.826,82.782 238.703,82.605C238.58,82.429 238.518,82.2 238.518,81.918L238.518,79.01L237.923,79.01L237.923,78.407L238.518,78.407L238.518,77.181Z" style="fill-rule:nonzero;"/>
        <path d="M242.533,78.309C242.845,78.309 243.147,78.382 243.44,78.528C243.733,78.675 243.955,78.864 244.108,79.096C244.256,79.318 244.355,79.576 244.404,79.871C244.448,80.074 244.469,80.396 244.469,80.839L241.25,80.839C241.263,81.285 241.369,81.643 241.566,81.912C241.762,82.181 242.067,82.316 242.48,82.316C242.866,82.316 243.173,82.189 243.403,81.935C243.534,81.787 243.627,81.616 243.682,81.422L244.408,81.422C244.389,81.583 244.325,81.763 244.217,81.961C244.109,82.159 243.988,82.321 243.854,82.447C243.63,82.666 243.352,82.814 243.022,82.89C242.844,82.934 242.643,82.956 242.419,82.956C241.872,82.956 241.408,82.757 241.028,82.359C240.648,81.961 240.458,81.404 240.458,80.688C240.458,79.982 240.65,79.409 241.032,78.969C241.415,78.529 241.916,78.309 242.533,78.309ZM243.711,80.253C243.681,79.933 243.611,79.677 243.501,79.486C243.299,79.13 242.961,78.953 242.488,78.953C242.149,78.953 241.865,79.075 241.635,79.32C241.406,79.565 241.284,79.876 241.27,80.253L243.711,80.253Z" style="fill-rule:nonzero;"/>
        <path d="M249.35,82.96C248.656,82.96 248.152,82.769 247.839,82.388C247.526,82.006 247.369,81.542 247.369,80.995L248.14,80.995C248.173,81.375 248.244,81.652 248.354,81.824C248.545,82.133 248.891,82.287 249.391,82.287C249.78,82.287 250.091,82.183 250.326,81.976C250.562,81.768 250.679,81.5 250.679,81.172C250.679,80.767 250.555,80.484 250.308,80.323C250.061,80.161 249.717,80.081 249.276,80.081C249.227,80.081 249.177,80.081 249.127,80.083C249.076,80.084 249.025,80.086 248.973,80.089L248.973,79.437C249.05,79.445 249.114,79.45 249.166,79.453C249.218,79.456 249.274,79.457 249.334,79.457C249.61,79.457 249.837,79.413 250.015,79.326C250.326,79.173 250.482,78.899 250.482,78.506C250.482,78.213 250.378,77.988 250.171,77.829C249.963,77.67 249.721,77.591 249.445,77.591C248.952,77.591 248.612,77.755 248.423,78.083C248.319,78.264 248.261,78.521 248.247,78.854L247.517,78.854C247.517,78.417 247.604,78.045 247.779,77.739C248.08,77.192 248.609,76.918 249.367,76.918C249.966,76.918 250.429,77.052 250.757,77.318C251.085,77.585 251.249,77.971 251.249,78.477C251.249,78.838 251.152,79.13 250.958,79.355C250.838,79.494 250.682,79.604 250.491,79.683C250.8,79.768 251.041,79.931 251.214,80.173C251.388,80.415 251.475,80.711 251.475,81.061C251.475,81.621 251.29,82.078 250.921,82.431C250.552,82.784 250.028,82.96 249.35,82.96Z" style="fill-rule:nonzero;"/>
        <path d="M87.533,80.856C87.552,81.198 87.633,81.475 87.775,81.688C88.046,82.088 88.523,82.287 89.207,82.287C89.513,82.287 89.792,82.244 90.043,82.156C90.53,81.987 90.773,81.683 90.773,81.246C90.773,80.917 90.671,80.684 90.466,80.544C90.258,80.407 89.933,80.288 89.49,80.187L88.673,80.003C88.14,79.882 87.763,79.75 87.541,79.605C87.158,79.353 86.967,78.977 86.967,78.477C86.967,77.936 87.154,77.491 87.529,77.144C87.904,76.797 88.434,76.623 89.12,76.623C89.752,76.623 90.289,76.775 90.73,77.08C91.172,77.385 91.393,77.873 91.393,78.543L90.626,78.543C90.585,78.22 90.497,77.972 90.363,77.8C90.114,77.486 89.692,77.329 89.096,77.329C88.615,77.329 88.269,77.43 88.058,77.632C87.848,77.834 87.742,78.07 87.742,78.337C87.742,78.633 87.865,78.849 88.111,78.986C88.273,79.073 88.638,79.182 89.207,79.314L90.051,79.506C90.459,79.599 90.773,79.727 90.995,79.888C91.378,80.17 91.569,80.578 91.569,81.114C91.569,81.781 91.326,82.259 90.841,82.546C90.356,82.833 89.792,82.976 89.149,82.976C88.4,82.976 87.813,82.785 87.39,82.402C86.966,82.022 86.758,81.507 86.766,80.856L87.533,80.856Z" style="fill-rule:nonzero;"/>
        <path d="M92.504,78.428L93.255,78.428L93.255,82.8L92.504,82.8L92.504,78.428ZM92.504,76.775L93.255,76.775L93.255,77.612L92.504,77.612L92.504,76.775Z" style="fill-rule:nonzero;"/>
        <path d="M94.518,77.181L95.265,77.181L95.265,78.407L95.966,78.407L95.966,79.01L95.265,79.01L95.265,81.877C95.265,82.03 95.317,82.133 95.42,82.185C95.478,82.215 95.574,82.23 95.708,82.23C95.743,82.23 95.781,82.229 95.822,82.228C95.863,82.226 95.911,82.223 95.966,82.218L95.966,82.8C95.881,82.825 95.793,82.842 95.701,82.853C95.61,82.864 95.511,82.87 95.404,82.87C95.059,82.87 94.826,82.782 94.703,82.605C94.58,82.429 94.518,82.2 94.518,81.918L94.518,79.01L93.923,79.01L93.923,78.407L94.518,78.407L94.518,77.181Z" style="fill-rule:nonzero;"/>
        <path d="M98.533,78.309C98.845,78.309 99.147,78.382 99.44,78.528C99.733,78.675 99.955,78.864 100.108,79.096C100.256,79.318 100.355,79.576 100.404,79.871C100.448,80.074 100.469,80.396 100.469,80.839L97.25,80.839C97.263,81.285 97.369,81.643 97.566,81.912C97.762,82.181 98.067,82.316 98.48,82.316C98.866,82.316 99.173,82.189 99.403,81.935C99.534,81.787 99.627,81.616 99.682,81.422L100.408,81.422C100.389,81.583 100.325,81.763 100.217,81.961C100.109,82.159 99.988,82.321 99.854,82.447C99.63,82.666 99.352,82.814 99.022,82.89C98.844,82.934 98.643,82.956 98.419,82.956C97.872,82.956 97.408,82.757 97.028,82.359C96.648,81.961 96.458,81.404 96.458,80.688C96.458,79.982 96.65,79.409 97.032,78.969C97.415,78.529 97.916,78.309 98.533,78.309ZM99.711,80.253C99.681,79.933 99.611,79.677 99.501,79.486C99.299,79.13 98.961,78.953 98.488,78.953C98.149,78.953 97.865,79.075 97.635,79.32C97.406,79.565 97.284,79.876 97.27,80.253L99.711,80.253Z" style="fill-rule:nonzero;"/>
        <path d="M103.431,82.8C103.458,82.294 103.563,81.854 103.745,81.479C103.926,81.105 104.281,80.764 104.809,80.458L105.596,80.003C105.949,79.798 106.197,79.623 106.339,79.478C106.563,79.251 106.675,78.991 106.675,78.698C106.675,78.357 106.573,78.085 106.367,77.884C106.162,77.683 105.889,77.583 105.547,77.583C105.041,77.583 104.691,77.774 104.497,78.157C104.393,78.362 104.336,78.646 104.325,79.01L103.574,79.01C103.583,78.499 103.677,78.082 103.857,77.759C104.177,77.19 104.742,76.906 105.551,76.906C106.224,76.906 106.715,77.088 107.026,77.452C107.336,77.815 107.491,78.22 107.491,78.666C107.491,79.136 107.326,79.538 106.995,79.871C106.804,80.066 106.46,80.301 105.966,80.577L105.404,80.889C105.136,81.036 104.925,81.177 104.772,81.311C104.499,81.549 104.326,81.813 104.255,82.103L107.463,82.103L107.463,82.8L103.431,82.8Z" style="fill-rule:nonzero;"/>
        <g>
            <path d="M150.487,149.719C149.559,150.052 148.684,150.218 147.864,150.218C146.43,150.218 145.274,149.788 144.398,148.928C143.521,148.068 143.083,146.937 143.083,145.535C143.083,144.115 143.519,142.964 144.391,142.083C145.263,141.202 146.402,140.761 147.808,140.761C148.605,140.761 149.458,140.897 150.367,141.169L150.367,142.441C149.439,142.015 148.572,141.802 147.766,141.802C146.833,141.802 146.065,142.144 145.463,142.828C144.861,143.512 144.559,144.384 144.559,145.444C144.559,146.512 144.899,147.387 145.579,148.066C146.259,148.746 147.133,149.086 148.202,149.086C148.848,149.086 149.61,148.917 150.487,148.58L150.487,149.719Z" style="fill-rule:nonzero;"/>
            <path d="M151.703,150L151.703,140.979L153.37,140.979L155.352,146.534L155.366,146.534L157.314,140.979L159.051,140.979L159.051,150L157.919,150L157.919,142.259L157.905,142.259L155.873,148.095L154.705,148.095L152.68,142.42L152.666,142.42L152.666,150L151.703,150Z" style="fill:rgb(204,0,0);fill-rule:nonzero;"/>
            <path d="M160.633,150L160.633,140.979L163.354,140.979C166.354,140.979 167.854,142.423 167.854,145.31C167.854,146.646 167.528,147.727 166.877,148.552C166.469,149.072 165.966,149.443 165.368,149.666C164.771,149.889 163.975,150 162.981,150L160.633,150ZM162.018,148.959L162.714,148.959C164.036,148.959 164.977,148.697 165.537,148.172C166.097,147.647 166.377,146.766 166.377,145.528C166.377,144.272 166.124,143.373 165.618,142.832C165.112,142.29 164.268,142.02 163.087,142.02L162.018,142.02L162.018,148.959Z" style="fill:rgb(204,0,0);fill-rule:nonzero;"/>
        </g>
        <g transform="matrix(1,0,0,1,0,-498.7)">
            <rect x="151.042" y="644.9" width="17.353" height="0.9" style="fill:rgb(204,0,0);"/>
        </g>
        <path d="M172.038,150L172.038,142.02L168.571,142.02L168.571,140.979L176.896,140.979L176.896,142.02L173.43,142.02L173.43,150L172.038,150Z" style="fill:rgb(102,204,0);fill-rule:nonzero;"/>
        <path d="M178.366,150L178.366,140.979L180.89,140.979C181.94,140.979 182.669,141.066 183.077,141.239C183.948,141.6 184.384,142.237 184.384,143.152C184.384,143.78 184.227,144.304 183.913,144.723C183.599,145.143 183.074,145.533 182.338,145.894L185.53,150L183.85,150L181.002,146.245L179.751,146.245L179.751,150L178.366,150ZM179.751,145.198L180.482,145.198C181.227,145.198 181.818,145.034 182.254,144.705C182.69,144.377 182.908,143.934 182.908,143.377C182.908,142.856 182.744,142.5 182.416,142.308C182.088,142.116 181.483,142.02 180.602,142.02L179.751,142.02L179.751,145.198Z" style="fill:rgb(102,204,0);fill-rule:nonzero;"/>
        <path d="M187.309,150L187.309,140.979L188.695,140.979L188.695,148.959L193.553,148.959L193.553,150L187.309,150Z" style="fill:rgb(102,204,0);fill-rule:nonzero;"/>
        <path d="M158.811,91.4L158.811,91.053L159.737,91.053L159.737,88.355L158.811,88.564L158.811,88.278L160.198,87.845L160.198,91.053L161.124,91.053L161.124,91.4L158.811,91.4Z" style="fill:rgb(52,87,81);fill-rule:nonzero;"/>
        <path d="M167.448,91.4L167.448,90.995C167.638,90.626 167.923,90.254 168.301,89.879L168.509,89.67C168.797,89.384 168.941,89.096 168.941,88.805C168.941,88.62 168.886,88.471 168.775,88.359C168.665,88.247 168.518,88.191 168.334,88.191C168.11,88.191 167.844,88.273 167.534,88.435L167.534,88.027C167.822,87.905 168.103,87.845 168.378,87.845C168.695,87.845 168.95,87.931 169.143,88.104C169.336,88.276 169.433,88.504 169.433,88.787C169.433,88.97 169.388,89.141 169.299,89.302C169.21,89.463 169.059,89.643 168.847,89.841L168.65,90.027C168.287,90.364 168.07,90.687 167.996,90.995L169.414,90.995L169.414,91.4L167.448,91.4Z" style="fill:rgb(52,87,81);fill-rule:nonzero;"/>
        <path d="M176.279,91.384L176.279,90.976C176.593,91.085 176.834,91.14 177.003,91.14C177.212,91.14 177.381,91.075 177.509,90.946C177.637,90.818 177.702,90.648 177.702,90.439C177.702,90.205 177.625,90.024 177.473,89.898C177.321,89.771 177.104,89.708 176.823,89.708L176.598,89.708L176.598,89.375L176.731,89.375C176.936,89.375 177.086,89.362 177.18,89.336C177.275,89.311 177.361,89.259 177.439,89.183C177.562,89.061 177.624,88.904 177.624,88.712C177.624,88.551 177.575,88.424 177.477,88.331C177.378,88.238 177.245,88.191 177.076,88.191C176.84,88.191 176.591,88.255 176.328,88.381L176.328,87.976C176.583,87.887 176.841,87.842 177.102,87.842C177.411,87.842 177.653,87.912 177.827,88.052C178.001,88.192 178.088,88.386 178.088,88.634C178.088,89.022 177.88,89.312 177.462,89.506C177.95,89.673 178.194,89.984 178.194,90.439C178.194,90.759 178.086,91.014 177.869,91.203C177.653,91.392 177.361,91.487 176.994,91.487C176.766,91.487 176.527,91.452 176.279,91.384Z" style="fill:rgb(52,87,81);fill-rule:nonzero;"/>
        <path d="M101.62,135.973L101.62,136.37C101.343,136.249 101.123,136.189 100.959,136.189C100.666,136.189 100.441,136.314 100.281,136.564C100.122,136.814 100.042,137.168 100.042,137.626C100.247,137.329 100.511,137.18 100.834,137.18C101.106,137.18 101.337,137.286 101.526,137.496C101.715,137.706 101.809,137.962 101.809,138.266C101.809,138.62 101.707,138.912 101.502,139.142C101.298,139.372 101.037,139.487 100.72,139.487C100.343,139.487 100.055,139.337 99.856,139.037C99.657,138.737 99.557,138.302 99.557,137.734C99.557,137.16 99.68,136.702 99.927,136.358C100.174,136.014 100.503,135.842 100.914,135.842C101.105,135.842 101.34,135.886 101.62,135.973ZM100.776,139.14C100.948,139.14 101.088,139.067 101.196,138.922C101.305,138.777 101.359,138.588 101.359,138.357C101.359,138.105 101.301,137.902 101.185,137.746C101.068,137.591 100.916,137.513 100.727,137.513C100.536,137.513 100.384,137.581 100.271,137.717C100.157,137.853 100.101,138.034 100.101,138.261C100.101,138.53 100.162,138.743 100.284,138.902C100.405,139.061 100.57,139.14 100.776,139.14Z" style="fill:rgb(52,87,81);fill-rule:nonzero;"/>
        <path d="M108.512,139.4C108.541,139.15 108.596,138.927 108.679,138.73C108.762,138.533 108.953,138.17 109.253,137.64L109.977,136.365L108.325,136.365L108.325,135.931L110.416,135.931L110.416,136.32L110.303,136.508C109.558,137.764 109.145,138.728 109.063,139.4L108.512,139.4Z" style="fill:rgb(52,87,81);fill-rule:nonzero;"/>
        <path d="M117.555,137.511C117.239,137.28 117.081,137.014 117.081,136.714C117.081,136.45 117.171,136.239 117.352,136.081C117.532,135.923 117.773,135.845 118.075,135.845C118.359,135.845 118.58,135.91 118.737,136.04C118.894,136.171 118.973,136.355 118.973,136.592C118.973,136.945 118.77,137.245 118.366,137.49C118.645,137.659 118.84,137.816 118.949,137.962C119.059,138.108 119.113,138.283 119.113,138.486C119.113,138.777 119.007,139.016 118.795,139.204C118.582,139.393 118.312,139.487 117.984,139.487C117.663,139.487 117.404,139.398 117.204,139.221C117.005,139.043 116.905,138.812 116.905,138.528C116.905,138.112 117.122,137.773 117.555,137.511ZM117.801,137.698C117.507,137.939 117.36,138.195 117.36,138.467C117.36,138.667 117.421,138.829 117.544,138.954C117.667,139.078 117.827,139.14 118.026,139.14C118.202,139.14 118.35,139.087 118.47,138.98C118.589,138.874 118.649,138.742 118.649,138.584C118.649,138.33 118.47,138.095 118.11,137.881L117.801,137.698ZM118.105,137.333C118.407,137.142 118.558,136.92 118.558,136.667C118.558,136.523 118.51,136.408 118.414,136.321C118.318,136.235 118.191,136.191 118.033,136.191C117.875,136.191 117.749,136.233 117.654,136.316C117.56,136.398 117.512,136.509 117.512,136.648C117.512,136.867 117.668,137.07 117.979,137.258L118.105,137.333Z" style="fill:rgb(52,87,81);fill-rule:nonzero;"/>
        <path d="M156.838,135.973L156.838,136.37C156.562,136.249 156.341,136.189 156.177,136.189C155.885,136.189 155.659,136.314 155.5,136.564C155.341,136.814 155.261,137.168 155.261,137.626C155.466,137.329 155.73,137.18 156.053,137.18C156.325,137.18 156.555,137.286 156.745,137.496C156.934,137.706 157.028,137.962 157.028,138.266C157.028,138.62 156.926,138.912 156.721,139.142C156.516,139.372 156.255,139.487 155.938,139.487C155.562,139.487 155.274,139.337 155.075,139.037C154.875,138.737 154.776,138.302 154.776,137.734C154.776,137.16 154.899,136.702 155.146,136.358C155.393,136.014 155.722,135.842 156.133,135.842C156.323,135.842 156.559,135.886 156.838,135.973ZM155.995,139.14C156.166,139.14 156.307,139.067 156.415,138.922C156.524,138.777 156.578,138.588 156.578,138.357C156.578,138.105 156.52,137.902 156.404,137.746C156.287,137.591 156.134,137.513 155.945,137.513C155.755,137.513 155.603,137.581 155.489,137.717C155.376,137.853 155.32,138.034 155.32,138.261C155.32,138.53 155.38,138.743 155.502,138.902C155.624,139.061 155.788,139.14 155.995,139.14Z" style="fill:rgb(52,87,81);fill-rule:nonzero;"/>
        <path d="M163.731,139.4C163.759,139.15 163.815,138.927 163.898,138.73C163.98,138.533 164.172,138.17 164.472,137.64L165.196,136.365L163.544,136.365L163.544,135.931L165.634,135.931L165.634,136.32L165.522,136.508C164.777,137.764 164.363,138.728 164.282,139.4L163.731,139.4Z" style="fill:rgb(52,87,81);fill-rule:nonzero;"/>
        <path d="M172.773,137.511C172.458,137.28 172.3,137.014 172.3,136.714C172.3,136.45 172.39,136.239 172.571,136.081C172.751,135.923 172.992,135.845 173.294,135.845C173.578,135.845 173.799,135.91 173.956,136.04C174.113,136.171 174.191,136.355 174.191,136.592C174.191,136.945 173.989,137.245 173.584,137.49C173.864,137.659 174.059,137.816 174.168,137.962C174.277,138.108 174.332,138.283 174.332,138.486C174.332,138.777 174.226,139.016 174.013,139.204C173.801,139.393 173.53,139.487 173.202,139.487C172.882,139.487 172.622,139.398 172.423,139.221C172.224,139.043 172.124,138.812 172.124,138.528C172.124,138.112 172.341,137.773 172.773,137.511ZM173.02,137.698C172.726,137.939 172.579,138.195 172.579,138.467C172.579,138.667 172.64,138.829 172.763,138.954C172.886,139.078 173.046,139.14 173.245,139.14C173.421,139.14 173.569,139.087 173.689,138.98C173.808,138.874 173.868,138.742 173.868,138.584C173.868,138.33 173.688,138.095 173.329,137.881L173.02,137.698ZM173.324,137.333C173.626,137.142 173.777,136.92 173.777,136.667C173.777,136.523 173.729,136.408 173.632,136.321C173.536,136.235 173.409,136.191 173.252,136.191C173.094,136.191 172.968,136.233 172.873,136.316C172.779,136.398 172.731,136.509 172.731,136.648C172.731,136.867 172.887,137.07 173.198,137.258L173.324,137.333Z" style="fill:rgb(52,87,81);fill-rule:nonzero;"/>
        <path d="M180.965,139.365L180.965,138.969C181.255,139.083 181.477,139.14 181.63,139.14C181.92,139.14 182.144,139.014 182.303,138.764C182.462,138.513 182.542,138.159 182.542,137.703C182.337,138 182.073,138.148 181.748,138.148C181.476,138.148 181.246,138.043 181.057,137.833C180.869,137.623 180.775,137.367 180.775,137.066C180.775,136.711 180.877,136.419 181.082,136.189C181.287,135.959 181.548,135.845 181.865,135.845C182.241,135.845 182.529,135.994 182.727,136.293C182.926,136.593 183.025,137.027 183.025,137.595C183.025,138.169 182.902,138.627 182.656,138.971C182.41,139.315 182.083,139.487 181.675,139.487C181.492,139.487 181.255,139.446 180.965,139.365ZM181.809,136.191C181.637,136.191 181.496,136.264 181.387,136.409C181.277,136.555 181.223,136.742 181.223,136.972C181.223,137.225 181.281,137.429 181.398,137.584C181.516,137.738 181.669,137.816 181.858,137.816C182.047,137.816 182.198,137.748 182.312,137.612C182.427,137.476 182.484,137.295 182.484,137.068C182.484,136.801 182.422,136.588 182.3,136.429C182.177,136.271 182.013,136.191 181.809,136.191Z" style="fill:rgb(52,87,81);fill-rule:nonzero;"/>
        <path d="M189.13,139.4L190.316,136.393L190.778,136.393L191.964,139.4L191.474,139.4L191.191,138.648L189.817,138.648L189.529,139.4L189.13,139.4ZM189.955,138.301L191.052,138.301L190.502,136.864L189.955,138.301Z" style="fill:rgb(52,87,81);fill-rule:nonzero;"/>
        <path d="M243.836,139.4C243.864,139.15 243.92,138.927 244.002,138.73C244.085,138.533 244.277,138.17 244.577,137.64L245.301,136.365L243.648,136.365L243.648,135.931L245.739,135.931L245.739,136.32L245.627,136.508C244.881,137.764 244.468,138.728 244.387,139.4L243.836,139.4Z" style="fill:rgb(52,87,81);fill-rule:nonzero;"/>
        <path d="M252.878,137.511C252.562,137.28 252.405,137.014 252.405,136.714C252.405,136.45 252.495,136.239 252.675,136.081C252.856,135.923 253.097,135.845 253.398,135.845C253.683,135.845 253.904,135.91 254.061,136.04C254.218,136.171 254.296,136.355 254.296,136.592C254.296,136.945 254.094,137.245 253.689,137.49C253.969,137.659 254.163,137.816 254.273,137.962C254.382,138.108 254.437,138.283 254.437,138.486C254.437,138.777 254.33,139.016 254.118,139.204C253.905,139.393 253.635,139.487 253.307,139.487C252.987,139.487 252.727,139.398 252.528,139.221C252.329,139.043 252.229,138.812 252.229,138.528C252.229,138.112 252.445,137.773 252.878,137.511ZM253.124,137.698C252.83,137.939 252.684,138.195 252.684,138.467C252.684,138.667 252.745,138.829 252.868,138.954C252.99,139.078 253.151,139.14 253.349,139.14C253.526,139.14 253.674,139.087 253.793,138.98C253.913,138.874 253.973,138.742 253.973,138.584C253.973,138.33 253.793,138.095 253.434,137.881L253.124,137.698ZM253.429,137.333C253.73,137.142 253.881,136.92 253.881,136.667C253.881,136.523 253.833,136.408 253.737,136.321C253.641,136.235 253.514,136.191 253.356,136.191C253.198,136.191 253.072,136.233 252.978,136.316C252.883,136.398 252.836,136.509 252.836,136.648C252.836,136.867 252.991,137.07 253.302,137.258L253.429,137.333Z" style="fill:rgb(52,87,81);fill-rule:nonzero;"/>
        <path d="M261.07,139.365L261.07,138.969C261.36,139.083 261.582,139.14 261.735,139.14C262.024,139.14 262.248,139.014 262.408,138.764C262.567,138.513 262.647,138.159 262.647,137.703C262.442,138 262.177,138.148 261.852,138.148C261.58,138.148 261.35,138.043 261.162,137.833C260.974,137.623 260.88,137.367 260.88,137.066C260.88,136.711 260.982,136.419 261.187,136.189C261.391,135.959 261.652,135.845 261.97,135.845C262.346,135.845 262.634,135.994 262.832,136.293C263.03,136.593 263.13,137.027 263.13,137.595C263.13,138.169 263.007,138.627 262.761,138.971C262.514,139.315 262.187,139.487 261.78,139.487C261.597,139.487 261.36,139.446 261.07,139.365ZM261.913,136.191C261.741,136.191 261.601,136.264 261.491,136.409C261.382,136.555 261.327,136.742 261.327,136.972C261.327,137.225 261.386,137.429 261.503,137.584C261.62,137.738 261.773,137.816 261.962,137.816C262.152,137.816 262.303,137.748 262.417,137.612C262.531,137.476 262.588,137.295 262.588,137.068C262.588,136.801 262.527,136.588 262.404,136.429C262.282,136.271 262.118,136.191 261.913,136.191Z" style="fill:rgb(52,87,81);fill-rule:nonzero;"/>
        <g transform="matrix(0,0.8,-0.8,0,265,-22)">
            <path d="M157.75,120.25C157.75,120.25 172.583,120.25 202.25,120.25" style="fill:none;stroke:black;stroke-width:1px;"/>
        </g>
        <g transform="matrix(0,0.8,-0.8,0,311.288,24.288)">
            <path d="M159.89,178.11C159.89,178.11 173.297,178.11 200.11,178.11" style="fill:none;stroke:black;stroke-width:1px;"/>
        </g>
        <g transform="matrix(-0.446532,-0.894768,-0.894768,0.446532,786.921,65.6147)">
            <path d="M166.927,607.513L171.621,607.513L169.747,606.106L169.745,603.755L166.927,607.513Z" style="fill-rule:nonzero;stroke:black;stroke-width:0.8px;"/>
        </g>
    </g>
</svg>
