<!DOCTYPE svg PUBLIC "-//W3C//DTD SVG 1.1//EN" "http://www.w3.org/Graphics/SVG/1.1/DTD/svg11.dtd">
<svg xmlns="http://www.w3.org/2000/svg" xmlns:xlink="http://www.w3.org/1999/xlink" width="313px" height="592px" version="1.1"><defs/><g transform="translate(0.5,0.5)"><ellipse cx="141" cy="381" rx="30" ry="40" fill="#ff6666" stroke="#000000" stroke-width="2" pointer-events="none"/><ellipse cx="31" cy="211" rx="30" ry="40" fill="#ff6666" stroke="#000000" stroke-width="2" pointer-events="none"/><ellipse cx="155" cy="551" rx="30" ry="40" fill="#ff6666" stroke="#000000" stroke-width="2" pointer-events="none"/><rect x="155" y="511" width="60" height="80" fill="#c3abd0" stroke="#000000" stroke-width="2" pointer-events="none"/><rect x="125" y="491" width="50" height="60" fill="#b9e0a5" stroke="#000000" stroke-width="2" pointer-events="none"/><path d="M 175 551 L 215 551 L 215 576.5 Q 205 568.4 195 576.5 Q 185 584.6 175 576.5 L 175 555.5 Z" fill="#99ccff" stroke="#000000" stroke-width="2" stroke-miterlimit="10" pointer-events="none"/><ellipse cx="195" cy="531" rx="15" ry="15" fill="#ffd966" stroke="#000000" stroke-width="2" pointer-events="none"/><path d="M 175 491 L 215 511 L 175 531 Z" fill="#fff4c3" stroke="#000000" stroke-width="2" stroke-miterlimit="10" pointer-events="none"/><path d="M 171.33 80.67 Q 171.33 113.17 111.33 113.17 Q 51.33 113.17 51.07 138.63" fill="none" stroke="#000000" stroke-miterlimit="10" pointer-events="none"/><path d="M 51.01 143.88 L 47.59 136.85 L 51.07 138.63 L 54.58 136.92 Z" fill="#000000" stroke="#000000" stroke-miterlimit="10" pointer-events="none"/><path d="M 171.33 80.67 Q 171.33 113.17 171.07 138.63" fill="none" stroke="#000000" stroke-miterlimit="10" pointer-events="none"/><path d="M 171.01 143.88 L 167.59 136.85 L 171.07 138.63 L 174.58 136.92 Z" fill="#000000" stroke="#000000" stroke-miterlimit="10" pointer-events="none"/><path d="M 171.33 80.67 Q 171.33 113.17 231.33 113.17 Q 291.33 113.17 291.07 138.63" fill="none" stroke="#000000" stroke-miterlimit="10" pointer-events="none"/><path d="M 291.01 143.88 L 287.59 136.85 L 291.07 138.63 L 294.58 136.92 Z" fill="#000000" stroke="#000000" stroke-miterlimit="10" pointer-events="none"/><rect x="141" y="1" width="60" height="80" fill="#c3abd0" stroke="#000000" stroke-width="2" pointer-events="none"/><ellipse cx="182" cy="60" rx="15" ry="15" fill="#9999ff" stroke="#000000" stroke-width="2" pointer-events="none"/><ellipse cx="160" cy="22" rx="15" ry="15" fill="#9999ff" stroke="#000000" stroke-width="2" pointer-events="none"/><path d="M 171.33 250.67 Q 171.33 283.17 116.33 283.17 Q 61.33 283.17 61.07 308.63" fill="none" stroke="#000000" stroke-miterlimit="10" pointer-events="none"/><path d="M 61.01 313.88 L 57.59 306.85 L 61.07 308.63 L 64.58 306.92 Z" fill="#000000" stroke="#000000" stroke-miterlimit="10" pointer-events="none"/><path d="M 171.33 250.67 Q 171.33 283.17 226.33 283.17 Q 281.33 283.17 281.07 308.63" fill="none" stroke="#000000" stroke-miterlimit="10" pointer-events="none"/><path d="M 281.01 313.88 L 277.59 306.85 L 281.07 308.63 L 284.58 306.92 Z" fill="#000000" stroke="#000000" stroke-miterlimit="10" pointer-events="none"/><rect x="141" y="171" width="60" height="80" fill="#c3abd0" stroke="#000000" stroke-width="2" pointer-events="none"/><ellipse cx="181" cy="230" rx="15" ry="15" fill="#9999ff" stroke="#000000" stroke-width="2" pointer-events="none"/><path d="M 61.33 250.67 Q 61.33 250.67 61.33 308.63" fill="none" stroke="#000000" stroke-miterlimit="10" pointer-events="none"/><path d="M 61.33 313.88 L 57.83 306.88 L 61.33 308.63 L 64.83 306.88 Z" fill="#000000" stroke="#000000" stroke-miterlimit="10" pointer-events="none"/><path d="M 61.33 250.67 Q 61.33 273.17 116.33 273.17 Q 171.33 273.17 171 295" fill="none" stroke="#000000" stroke-miterlimit="10" pointer-events="none"/><rect x="31" y="171" width="60" height="80" fill="#c3abd0" stroke="#000000" stroke-width="2" pointer-events="none"/><ellipse cx="50" cy="192" rx="15" ry="15" fill="#9999ff" stroke="#000000" stroke-width="2" pointer-events="none"/><path d="M 281.33 250.67 Q 281.33 273.17 226.33 273.17 Q 171.33 273.17 171 295" fill="none" stroke="#000000" stroke-miterlimit="10" pointer-events="none"/><path d="M 281.33 250.67 Q 281.33 250.67 281.33 308.63" fill="none" stroke="#000000" stroke-miterlimit="10" pointer-events="none"/><path d="M 281.33 313.88 L 277.83 306.88 L 281.33 308.63 L 284.83 306.88 Z" fill="#000000" stroke="#000000" stroke-miterlimit="10" pointer-events="none"/><rect x="251" y="171" width="60" height="80" fill="#c3abd0" stroke="#000000" stroke-width="2" pointer-events="none"/><ellipse cx="292" cy="230" rx="15" ry="15" fill="#9999ff" stroke="#000000" stroke-width="2" pointer-events="none"/><ellipse cx="270" cy="192" rx="15" ry="15" fill="#ffd966" stroke="#000000" stroke-width="2" pointer-events="none"/><ellipse cx="181" cy="191" rx="15" ry="15" fill="#9999ff" stroke="#000000" stroke-width="2" pointer-events="none"/><path d="M 271 211 L 311 211 L 311 236.5 Q 301 228.4 291 236.5 Q 281 244.6 271 236.5 L 271 215.5 Z" fill="#99ccff" stroke="#000000" stroke-width="2" stroke-miterlimit="10" pointer-events="none"/><path d="M 51 151 L 91 171 L 51 191 Z" fill="#fff4c3" stroke="#000000" stroke-width="2" stroke-miterlimit="10" pointer-events="none"/><rect x="111" y="151" width="50" height="60" fill="#b9e0a5" stroke="#000000" stroke-width="2" pointer-events="none"/><ellipse cx="31" cy="381" rx="30" ry="40" fill="#ff6666" stroke="#000000" stroke-width="2" pointer-events="none"/><path d="M 171.33 420.67 Q 171.33 453.17 151.33 453.17 Q 131.33 453.17 131.07 478.63" fill="none" stroke="#000000" stroke-miterlimit="10" pointer-events="none"/><path d="M 131.01 483.88 L 127.59 476.85 L 131.07 478.63 L 134.58 476.92 Z" fill="#000000" stroke="#000000" stroke-miterlimit="10" pointer-events="none"/><path d="M 171.33 420.67 Q 171.33 453.17 191.33 453.17 Q 211.33 453.17 211.07 478.63" fill="none" stroke="#000000" stroke-miterlimit="10" pointer-events="none"/><path d="M 211.01 483.88 L 207.59 476.85 L 211.07 478.63 L 214.58 476.92 Z" fill="#000000" stroke="#000000" stroke-miterlimit="10" pointer-events="none"/><rect x="141" y="341" width="60" height="80" fill="#c3abd0" stroke="#000000" stroke-width="2" pointer-events="none"/><path d="M 61.33 420.67 Q 61.33 453.17 96.33 453.17 Q 131.33 453.17 131.07 478.63" fill="none" stroke="#000000" stroke-miterlimit="10" pointer-events="none"/><path d="M 131.01 483.88 L 127.59 476.85 L 131.07 478.63 L 134.58 476.92 Z" fill="#000000" stroke="#000000" stroke-miterlimit="10" pointer-events="none"/><path d="M 61.33 420.67 Q 61.33 443.17 116.33 443.17 Q 171.33 443.17 171 465" fill="none" stroke="#000000" stroke-miterlimit="10" pointer-events="none"/><rect x="31" y="341" width="60" height="80" fill="#c3abd0" stroke="#000000" stroke-width="2" pointer-events="none"/><path d="M 281.33 420.67 Q 281.33 453.17 246.33 453.17 Q 211.33 453.17 211.07 478.63" fill="none" stroke="#000000" stroke-miterlimit="10" pointer-events="none"/><path d="M 211.01 483.88 L 207.59 476.85 L 211.07 478.63 L 214.58 476.92 Z" fill="#000000" stroke="#000000" stroke-miterlimit="10" pointer-events="none"/><path d="M 281.33 420.67 Q 281.33 443.17 226.33 443.17 Q 171.33 443.17 171 465" fill="none" stroke="#000000" stroke-miterlimit="10" pointer-events="none"/><rect x="251" y="341" width="60" height="80" fill="#c3abd0" stroke="#000000" stroke-width="2" pointer-events="none"/><ellipse cx="292" cy="400" rx="15" ry="15" fill="#9999ff" stroke="#000000" stroke-width="2" pointer-events="none"/><path d="M 271 381 L 311 381 L 311 406.5 Q 301 398.4 291 406.5 Q 281 414.6 271 406.5 L 271 385.5 Z" fill="#99ccff" stroke="#000000" stroke-width="2" stroke-miterlimit="10" pointer-events="none"/><ellipse cx="71" cy="361" rx="15" ry="15" fill="#9999ff" stroke="#000000" stroke-width="2" pointer-events="none"/><path d="M 51 321 L 91 341 L 51 361 Z" fill="#fff4c3" stroke="#000000" stroke-width="2" stroke-miterlimit="10" pointer-events="none"/><rect x="1" y="321" width="50" height="60" fill="#b9e0a5" stroke="#000000" stroke-width="2" pointer-events="none"/><ellipse cx="160" cy="362" rx="15" ry="15" fill="#ffd966" stroke="#000000" stroke-width="2" pointer-events="none"/><path d="M 161 321 L 201 341 L 161 361 Z" fill="#fff4c3" stroke="#000000" stroke-width="2" stroke-miterlimit="10" pointer-events="none"/><path d="M 161 381 L 201 381 L 201 406.5 Q 191 398.4 181 406.5 Q 171 414.6 161 406.5 L 161 385.5 Z" fill="#99ccff" stroke="#000000" stroke-width="2" stroke-miterlimit="10" pointer-events="none"/><ellipse cx="291" cy="361" rx="15" ry="15" fill="#ffd966" stroke="#000000" stroke-width="2" pointer-events="none"/><rect x="221" y="321" width="50" height="60" fill="#b9e0a5" stroke="#000000" stroke-width="2" pointer-events="none"/><path d="M 171 295 L 171 308.63" fill="none" stroke="#000000" stroke-miterlimit="10" pointer-events="none"/><path d="M 171 313.88 L 167.5 306.88 L 171 308.63 L 174.5 306.88 Z" fill="#000000" stroke="#000000" stroke-miterlimit="10" pointer-events="none"/><path d="M 171 465 L 171 478.63" fill="none" stroke="#000000" stroke-miterlimit="10" pointer-events="none"/><path d="M 171 483.88 L 167.5 476.88 L 171 478.63 L 174.5 476.88 Z" fill="#000000" stroke="#000000" stroke-miterlimit="10" pointer-events="none"/></g></svg>