<?xml version="1.0" encoding="UTF-8" standalone="no"?>
<!DOCTYPE svg PUBLIC "-//W3C//DTD SVG 1.1//EN" "http://www.w3.org/Graphics/SVG/1.1/DTD/svg11.dtd">
<svg width="100%" height="100%" viewBox="0 0 2425 271" version="1.1" xmlns="http://www.w3.org/2000/svg" xmlns:xlink="http://www.w3.org/1999/xlink" xml:space="preserve" style="fill-rule:evenodd;clip-rule:evenodd;stroke-linejoin:round;stroke-miterlimit:1.41421;">
    <g transform="matrix(2.93524,0,0,2.93524,-1604.31,-1971.03)">
        <path d="M573.425,674.767L586.714,674.767L613.199,743.6L599.583,743.6L594.201,729.422L566.125,729.422L560.51,743.6L546.893,743.6L573.425,674.767ZM580.163,693.016L570.992,716.647L589.288,716.647L580.163,693.016Z" style="fill:rgb(255,4,0);fill-rule:nonzero;"/>
        <path d="M613.838,692.689L624.788,692.689L624.788,699.099C625.973,696.572 627.549,694.654 629.514,693.344C631.479,692.033 633.632,691.378 635.972,691.378C637.625,691.378 639.356,691.815 641.166,692.689L637.188,703.685C635.691,702.936 634.459,702.562 633.491,702.562C631.526,702.562 629.865,703.779 628.508,706.212C627.151,708.645 626.472,713.418 626.472,720.531L626.519,723.011L626.519,743.6L613.838,743.6L613.838,692.689Z" style="fill:rgb(255,4,0);fill-rule:nonzero;"/>
        <path d="M692.201,702.983L681.579,708.832C679.582,706.742 677.609,705.292 675.66,704.481C673.71,703.669 671.425,703.264 668.804,703.264C664.031,703.264 660.171,704.691 657.223,707.546C654.275,710.4 652.801,714.058 652.801,718.519C652.801,722.855 654.22,726.396 657.059,729.141C659.898,731.886 663.626,733.259 668.243,733.259C673.952,733.259 678.397,731.309 681.579,727.409L691.64,734.288C686.18,741.37 678.475,744.91 668.524,744.91C659.57,744.91 652.559,742.259 647.49,736.955C642.421,731.652 639.886,725.444 639.886,718.331C639.886,713.403 641.118,708.864 643.583,704.715C646.047,700.565 649.486,697.306 653.901,694.935C658.315,692.564 663.251,691.378 668.711,691.378C673.764,691.378 678.303,692.384 682.328,694.397C686.352,696.409 689.643,699.271 692.201,702.983Z" style="fill:rgb(255,4,0);fill-rule:nonzero;"/>
        <path d="M698.642,673.035L711.323,673.035L711.323,697.836C713.819,695.683 716.33,694.069 718.857,692.993C721.384,691.916 723.942,691.378 726.531,691.378C731.585,691.378 735.843,693.125 739.306,696.619C742.27,699.645 743.751,704.091 743.751,709.955L743.751,743.6L731.164,743.6L731.164,721.279C731.164,715.383 730.883,711.39 730.322,709.3C729.76,707.21 728.801,705.65 727.444,704.621C726.087,703.591 724.41,703.077 722.413,703.077C719.824,703.077 717.601,703.935 715.745,705.65C713.889,707.366 712.602,709.706 711.885,712.669C711.511,714.198 711.323,717.692 711.323,723.151L711.323,743.6L698.642,743.6L698.642,673.035Z" style="fill:rgb(255,4,0);fill-rule:nonzero;"/>
        <path d="M788.61,692.689L801.338,692.689L801.338,743.6L788.61,743.6L788.61,738.219C786.114,740.59 783.611,742.298 781.1,743.343C778.588,744.388 775.867,744.91 772.934,744.91C766.352,744.91 760.659,742.36 755.854,737.259C751.05,732.159 748.648,725.818 748.648,718.238C748.648,710.377 750.972,703.935 755.621,698.912C760.269,693.89 765.915,691.378 772.56,691.378C775.617,691.378 778.487,691.955 781.17,693.11C783.853,694.264 786.333,695.995 788.61,698.304L788.61,692.689ZM775.18,703.17C771.218,703.17 767.927,704.566 765.307,707.358C762.686,710.15 761.376,713.73 761.376,718.097C761.376,722.496 762.71,726.115 765.377,728.954C768.044,731.792 771.328,733.212 775.227,733.212C779.251,733.212 782.589,731.816 785.241,729.024C787.893,726.232 789.218,722.574 789.218,718.051C789.218,713.621 787.893,710.033 785.241,707.288C782.589,704.543 779.236,703.17 775.18,703.17Z" style="fill:rgb(255,4,0);fill-rule:nonzero;"/>
        <path d="M846.758,692.689L859.486,692.689L859.486,736.3C859.486,744.91 857.755,751.243 854.292,755.298C849.644,760.789 842.64,763.534 833.282,763.534C828.29,763.534 824.094,762.91 820.694,761.662C817.294,760.415 814.424,758.582 812.084,756.164C809.744,753.746 808.013,750.806 806.89,747.343L820.975,747.343C822.223,748.778 823.829,749.863 825.795,750.596C827.76,751.329 830.084,751.695 832.767,751.695C836.198,751.695 838.959,751.165 841.049,750.104C843.139,749.044 844.613,747.671 845.471,745.986C846.329,744.302 846.758,741.401 846.758,737.283C844.512,739.529 842.157,741.143 839.692,742.126C837.228,743.109 834.436,743.6 831.316,743.6C824.484,743.6 818.713,741.136 814.003,736.207C809.292,731.278 806.937,725.039 806.937,717.489C806.937,709.409 809.432,702.921 814.424,698.023C818.947,693.593 824.344,691.378 830.614,691.378C833.547,691.378 836.315,691.916 838.92,692.993C841.525,694.069 844.138,695.839 846.758,698.304L846.758,692.689ZM833.516,703.311C829.491,703.311 826.169,704.66 823.548,707.358C820.928,710.057 819.618,713.449 819.618,717.536C819.618,721.779 820.959,725.257 823.642,727.971C826.325,730.685 829.694,732.042 833.749,732.042C837.711,732.042 840.979,730.716 843.553,728.065C846.126,725.413 847.413,721.935 847.413,717.63C847.413,713.387 846.119,709.94 843.529,707.288C840.94,704.637 837.602,703.311 833.516,703.311Z" style="fill:rgb(255,4,0);fill-rule:nonzero;"/>
        <path d="M891.196,691.378C896,691.378 900.515,692.579 904.742,694.981C908.969,697.384 912.268,700.643 914.639,704.761C917.01,708.879 918.196,713.325 918.196,718.097C918.196,722.902 917.002,727.394 914.616,731.574C912.229,735.754 908.977,739.022 904.859,741.377C900.742,743.733 896.203,744.91 891.242,744.91C883.943,744.91 877.711,742.313 872.548,737.119C867.386,731.925 864.804,725.616 864.804,718.191C864.804,710.236 867.721,703.607 873.554,698.304C878.671,693.687 884.551,691.378 891.196,691.378ZM891.383,703.404C887.421,703.404 884.122,704.785 881.486,707.546C878.85,710.306 877.532,713.839 877.532,718.144C877.532,722.574 878.834,726.162 881.439,728.907C884.044,731.652 887.343,733.025 891.336,733.025C895.329,733.025 898.651,731.636 901.303,728.86C903.955,726.084 905.281,722.512 905.281,718.144C905.281,713.777 903.978,710.228 901.373,707.499C898.768,704.769 895.438,703.404 891.383,703.404Z" style="fill:rgb(255,4,0);fill-rule:nonzero;"/>
        <path d="M923.514,692.689L936.242,692.689L936.242,697.883C939.143,695.449 941.771,693.757 944.126,692.806C946.482,691.854 948.891,691.378 951.356,691.378C956.41,691.378 960.699,693.141 964.224,696.666C967.188,699.661 968.67,704.091 968.67,709.955L968.67,743.6L956.035,743.6L956.035,721.279C956.035,715.196 955.762,711.156 955.216,709.16C954.67,707.163 953.719,705.643 952.362,704.598C951.005,703.552 949.328,703.03 947.332,703.03C944.742,703.03 942.52,703.896 940.664,705.627C938.807,707.358 937.521,709.753 936.803,712.81C936.429,714.401 936.242,717.848 936.242,723.151L936.242,743.6L923.514,743.6L923.514,692.689Z" style="fill:rgb(255,4,0);fill-rule:nonzero;"/>
        <path d="M985.699,674.767L998.614,674.767L1008.53,718.706L1020.84,674.767L1031.74,674.767L1044.19,718.706L1054.02,674.767L1066.93,674.767L1051.44,743.6L1038.86,743.6L1026.17,699.099L1013.73,743.6L1001.28,743.6L985.699,674.767Z" style="fill:rgb(66,65,66);fill-rule:nonzero;"/>
        <path d="M1108.28,692.689L1121.01,692.689L1121.01,743.6L1108.28,743.6L1108.28,738.219C1105.79,740.59 1103.28,742.298 1100.77,743.343C1098.26,744.388 1095.54,744.91 1092.61,744.91C1086.02,744.91 1080.33,742.36 1075.53,737.259C1070.72,732.159 1068.32,725.818 1068.32,718.238C1068.32,710.377 1070.64,703.935 1075.29,698.912C1079.94,693.89 1085.59,691.378 1092.23,691.378C1095.29,691.378 1098.16,691.955 1100.84,693.11C1103.52,694.264 1106,695.995 1108.28,698.304L1108.28,692.689ZM1094.85,703.17C1090.89,703.17 1087.6,704.566 1084.98,707.358C1082.36,710.15 1081.05,713.73 1081.05,718.097C1081.05,722.496 1082.38,726.115 1085.05,728.954C1087.72,731.792 1091,733.212 1094.9,733.212C1098.92,733.212 1102.26,731.816 1104.91,729.024C1107.56,726.232 1108.89,722.574 1108.89,718.051C1108.89,713.621 1107.56,710.033 1104.91,707.288C1102.26,704.543 1098.91,703.17 1094.85,703.17Z" style="fill:rgb(66,65,66);fill-rule:nonzero;"/>
        <path d="M1159.97,699.801L1152.06,707.709C1148.85,704.527 1145.93,702.936 1143.31,702.936C1141.88,702.936 1140.76,703.241 1139.94,703.849C1139.13,704.457 1138.73,705.214 1138.73,706.118C1138.73,706.805 1138.99,707.436 1139.5,708.013C1140.02,708.591 1141.29,709.378 1143.31,710.377L1147.99,712.716C1152.92,715.149 1156.31,717.63 1158.15,720.156C1159.99,722.683 1160.91,725.647 1160.91,729.047C1160.91,733.571 1159.25,737.345 1155.92,740.371C1152.6,743.397 1148.15,744.91 1142.57,744.91C1135.14,744.91 1129.21,742.009 1124.78,736.207L1132.64,727.643C1134.14,729.39 1135.9,730.802 1137.91,731.878C1139.92,732.954 1141.71,733.493 1143.27,733.493C1144.95,733.493 1146.31,733.087 1147.34,732.276C1148.37,731.465 1148.88,730.529 1148.88,729.468C1148.88,727.503 1147.03,725.584 1143.31,723.713L1139.01,721.56C1130.77,717.411 1126.65,712.217 1126.65,705.978C1126.65,701.954 1128.21,698.514 1131.31,695.66C1134.41,692.806 1138.38,691.378 1143.22,691.378C1146.53,691.378 1149.64,692.104 1152.56,693.554C1155.47,695.005 1157.94,697.087 1159.97,699.801Z" style="fill:rgb(66,65,66);fill-rule:nonzero;"/>
        <path d="M1180.84,674.767L1194.13,674.767L1194.13,700.737L1217.15,700.737L1217.15,674.767L1230.39,674.767L1230.39,743.6L1217.15,743.6L1217.15,713.418L1194.13,713.418L1194.13,743.6L1180.84,743.6L1180.84,674.767Z" style="fill:rgb(66,65,66);fill-rule:nonzero;"/>
        <path d="M1290.55,721.841L1249.52,721.841C1250.11,725.46 1251.69,728.337 1254.26,730.474C1256.84,732.611 1260.12,733.68 1264.11,733.68C1268.89,733.68 1272.99,732.011 1276.42,728.673L1287.18,733.727C1284.5,737.532 1281.29,740.348 1277.54,742.173C1273.8,743.998 1269.36,744.91 1264.21,744.91C1256.22,744.91 1249.72,742.391 1244.69,737.353C1239.67,732.315 1237.16,726.006 1237.16,718.425C1237.16,710.657 1239.66,704.208 1244.67,699.076C1249.68,693.944 1255.96,691.378 1263.51,691.378C1271.52,691.378 1278.04,693.944 1283.07,699.076C1288.09,704.208 1290.6,710.985 1290.6,719.408L1290.55,721.841ZM1277.73,711.78C1276.89,708.942 1275.23,706.633 1272.75,704.855C1270.27,703.077 1267.39,702.188 1264.11,702.188C1260.56,702.188 1257.44,703.186 1254.76,705.182C1253.07,706.43 1251.51,708.63 1250.08,711.78L1277.73,711.78Z" style="fill:rgb(66,65,66);fill-rule:nonzero;"/>
        <path d="M1292.78,692.689L1303.73,692.689L1303.73,699.099C1304.92,696.572 1306.49,694.654 1308.46,693.344C1310.42,692.033 1312.58,691.378 1314.92,691.378C1316.57,691.378 1318.3,691.815 1320.11,692.689L1316.13,703.685C1314.63,702.936 1313.4,702.562 1312.44,702.562C1310.47,702.562 1308.81,703.779 1307.45,706.212C1306.1,708.645 1305.42,713.418 1305.42,720.531L1305.46,723.011L1305.46,743.6L1292.78,743.6L1292.78,692.689Z" style="fill:rgb(66,65,66);fill-rule:nonzero;"/>
        <path d="M1372.32,721.841L1331.28,721.841C1331.87,725.46 1333.45,728.337 1336.03,730.474C1338.6,732.611 1341.88,733.68 1345.88,733.68C1350.65,733.68 1354.75,732.011 1358.18,728.673L1368.95,733.727C1366.26,737.532 1363.05,740.348 1359.31,742.173C1355.56,743.998 1351.12,744.91 1345.97,744.91C1337.98,744.91 1331.48,742.391 1326.46,737.353C1321.43,732.315 1318.92,726.006 1318.92,718.425C1318.92,710.657 1321.43,704.208 1326.43,699.076C1331.44,693.944 1337.72,691.378 1345.27,691.378C1353.29,691.378 1359.81,693.944 1364.83,699.076C1369.85,704.208 1372.36,710.985 1372.36,719.408L1372.32,721.841ZM1359.49,711.78C1358.65,708.942 1356.99,706.633 1354.51,704.855C1352.03,703.077 1349.15,702.188 1345.88,702.188C1342.32,702.188 1339.2,703.186 1336.52,705.182C1334.83,706.43 1333.27,708.63 1331.84,711.78L1359.49,711.78Z" style="fill:rgb(66,65,66);fill-rule:nonzero;"/>
    </g>
</svg>
