<!DOCTYPE svg PUBLIC "-//W3C//DTD SVG 1.1//EN" "http://www.w3.org/Graphics/SVG/1.1/DTD/svg11.dtd">
<svg xmlns="http://www.w3.org/2000/svg" xmlns:xlink="http://www.w3.org/1999/xlink" width="521px" height="584px" version="1.1"><defs><clipPath id="mx-clip-124-31-62-26-0"><rect x="124" y="31" width="62" height="26"/></clipPath><clipPath id="mx-clip-124-57-62-28-0"><rect x="124" y="57" width="62" height="28"/></clipPath><clipPath id="mx-clip-254-131-62-26-0"><rect x="254" y="131" width="62" height="26"/></clipPath><clipPath id="mx-clip-254-157-62-28-0"><rect x="254" y="157" width="62" height="28"/></clipPath><clipPath id="mx-clip-354-231-62-26-0"><rect x="354" y="231" width="62" height="26"/></clipPath><clipPath id="mx-clip-354-257-62-28-0"><rect x="354" y="257" width="62" height="28"/></clipPath><clipPath id="mx-clip-154-231-62-26-0"><rect x="154" y="231" width="62" height="26"/></clipPath><clipPath id="mx-clip-154-257-62-28-0"><rect x="154" y="257" width="62" height="28"/></clipPath><clipPath id="mx-clip-454-331-62-26-0"><rect x="454" y="331" width="62" height="26"/></clipPath><clipPath id="mx-clip-454-357-62-28-0"><rect x="454" y="357" width="62" height="28"/></clipPath><clipPath id="mx-clip-354-331-62-26-0"><rect x="354" y="331" width="62" height="26"/></clipPath><clipPath id="mx-clip-354-357-62-28-0"><rect x="354" y="357" width="62" height="28"/></clipPath><clipPath id="mx-clip-454-431-62-26-0"><rect x="454" y="431" width="62" height="26"/></clipPath><clipPath id="mx-clip-454-457-62-28-0"><rect x="454" y="457" width="62" height="28"/></clipPath><clipPath id="mx-clip-254-331-62-26-0"><rect x="254" y="331" width="62" height="26"/></clipPath><clipPath id="mx-clip-254-357-62-28-0"><rect x="254" y="357" width="62" height="28"/></clipPath><clipPath id="mx-clip-454-531-62-26-0"><rect x="454" y="531" width="62" height="26"/></clipPath><clipPath id="mx-clip-454-557-62-28-0"><rect x="454" y="557" width="62" height="28"/></clipPath><clipPath id="mx-clip-4-131-62-26-0"><rect x="4" y="131" width="62" height="26"/></clipPath><clipPath id="mx-clip-4-157-62-28-0"><rect x="4" y="157" width="62" height="28"/></clipPath><clipPath id="mx-clip-254-431-62-26-0"><rect x="254" y="431" width="62" height="26"/></clipPath><clipPath id="mx-clip-254-457-62-28-0"><rect x="254" y="457" width="62" height="28"/></clipPath><clipPath id="mx-clip-4-231-62-26-0"><rect x="4" y="231" width="62" height="26"/></clipPath><clipPath id="mx-clip-4-257-62-28-0"><rect x="4" y="257" width="62" height="28"/></clipPath><clipPath id="mx-clip-254-531-62-26-0"><rect x="254" y="531" width="62" height="26"/></clipPath><clipPath id="mx-clip-254-557-62-28-0"><rect x="254" y="557" width="62" height="28"/></clipPath><clipPath id="mx-clip-4-331-62-26-0"><rect x="4" y="331" width="62" height="26"/></clipPath><clipPath id="mx-clip-4-357-62-28-0"><rect x="4" y="357" width="62" height="28"/></clipPath></defs><g transform="translate(0.5,0.5)"><path d="M 34.88 99.53 Q 34.88 39.53 113.22 39.53" fill="none" stroke="#000000" stroke-miterlimit="10" pointer-events="none"/><path d="M 118.47 39.53 L 111.47 43.03 L 113.22 39.53 L 111.47 36.03 Z" fill="#000000" stroke="#000000" stroke-miterlimit="10" pointer-events="none"/><path d="M 34.88 199.53 Q 34.88 199.53 34.88 185.9" fill="none" stroke="#000000" stroke-miterlimit="10" pointer-events="none"/><path d="M 34.88 180.65 L 38.38 187.65 L 34.88 185.9 L 31.38 187.65 Z" fill="#000000" stroke="#000000" stroke-miterlimit="10" pointer-events="none"/><path d="M 34.88 299.53 Q 34.88 279.53 34.88 286.37" fill="none" stroke="#000000" stroke-miterlimit="10" pointer-events="none"/><path d="M 34.88 281.12 L 38.38 288.12 L 34.88 286.37 L 31.38 288.12 Z" fill="#000000" stroke="#000000" stroke-miterlimit="10" pointer-events="none"/><path d="M 185.47 199.53 Q 185.47 139.53 243.81 139.53" fill="none" stroke="#000000" stroke-miterlimit="10" pointer-events="none"/><path d="M 249.06 139.53 L 242.06 143.03 L 243.81 139.53 L 242.06 136.03 Z" fill="#000000" stroke="#000000" stroke-miterlimit="10" pointer-events="none"/><path d="M 285.47 99.53 Q 285.47 39.53 196.54 39.53" fill="none" stroke="#000000" stroke-miterlimit="10" pointer-events="none"/><path d="M 191.29 39.53 L 198.29 36.03 L 196.54 39.53 L 198.29 43.03 Z" fill="#000000" stroke="#000000" stroke-miterlimit="10" pointer-events="none"/><path d="M 385.47 199.53 Q 385.47 139.53 325.96 139.53" fill="none" stroke="#000000" stroke-miterlimit="10" pointer-events="none"/><path d="M 320.71 139.53 L 327.71 136.03 L 325.96 139.53 L 327.71 143.03 Z" fill="#000000" stroke="#000000" stroke-miterlimit="10" pointer-events="none"/><path d="M 485.47 399.53 Q 485.47 379.53 485.47 386.37" fill="none" stroke="#000000" stroke-miterlimit="10" pointer-events="none"/><path d="M 485.47 381.12 L 488.97 388.12 L 485.47 386.37 L 481.97 388.12 Z" fill="#000000" stroke="#000000" stroke-miterlimit="10" pointer-events="none"/><path d="M 485.47 499.53 Q 485.47 479.53 485.47 486.37" fill="none" stroke="#000000" stroke-miterlimit="10" pointer-events="none"/><path d="M 485.47 481.12 L 488.97 488.12 L 485.47 486.37 L 481.97 488.12 Z" fill="#000000" stroke="#000000" stroke-miterlimit="10" pointer-events="none"/><path d="M 285.47 399.53 Q 285.47 379.53 285.47 386.37" fill="none" stroke="#000000" stroke-miterlimit="10" pointer-events="none"/><path d="M 285.47 381.12 L 288.97 388.12 L 285.47 386.37 L 281.97 388.12 Z" fill="#000000" stroke="#000000" stroke-miterlimit="10" pointer-events="none"/><path d="M 285.47 499.53 Q 285.47 479.53 285.47 486.37" fill="none" stroke="#000000" stroke-miterlimit="10" pointer-events="none"/><path d="M 285.47 481.12 L 288.97 488.12 L 285.47 486.37 L 281.97 488.12 Z" fill="#000000" stroke="#000000" stroke-miterlimit="10" pointer-events="none"/><path d="M 285.47 299.53 Q 285.47 239.53 343.81 239.53" fill="none" stroke="#000000" stroke-miterlimit="10" pointer-events="none"/><path d="M 349.06 239.53 L 342.06 243.03 L 343.81 239.53 L 342.06 236.03 Z" fill="#000000" stroke="#000000" stroke-miterlimit="10" pointer-events="none"/><path d="M 385.47 299.53 Q 385.47 279.53 385.47 286.37" fill="none" stroke="#000000" stroke-miterlimit="10" pointer-events="none"/><path d="M 385.47 281.12 L 388.97 288.12 L 385.47 286.37 L 381.97 288.12 Z" fill="#000000" stroke="#000000" stroke-miterlimit="10" pointer-events="none"/><path d="M 485.47 299.53 Q 485.47 239.53 425.96 239.53" fill="none" stroke="#000000" stroke-miterlimit="10" pointer-events="none"/><path d="M 420.71 239.53 L 427.71 236.03 L 425.96 239.53 L 427.71 243.03 Z" fill="#000000" stroke="#000000" stroke-miterlimit="10" pointer-events="none"/><rect x="120" y="0" width="70" height="80" rx="11.7" ry="11.7" fill="#ffffff" stroke="#000000" pointer-events="none"/><path d="M 190 26 L 190 11.7 Q 190 0 178.3 0 L 131.7 0 Q 120 0 120 11.7 L 120 26 Z" fill="#009900" stroke="#000000" stroke-miterlimit="10" pointer-events="none"/><g fill="#FFFFFF" font-family="Verdana" text-anchor="middle" font-size="14px"><text x="153.91" y="17.5">S1@T1</text></g><g fill="#000000" font-family="Helvetica" clip-path="url(#mx-clip-124-31-62-26-0)" text-anchor="middle" font-size="14px"><text x="154.5" y="45.5">Insert 'C'</text></g><g fill="#000000" font-family="Helvetica" clip-path="url(#mx-clip-124-57-62-28-0)" text-anchor="middle" font-size="14px"><text x="154.5" y="71.5">ø</text></g><rect x="250" y="100" width="70" height="80" rx="11.7" ry="11.7" fill="#ffffff" stroke="#000000" pointer-events="none"/><path d="M 320 126 L 320 111.7 Q 320 100 308.3 100 L 261.7 100 Q 250 100 250 111.7 L 250 126 Z" fill="#009900" stroke="#000000" stroke-miterlimit="10" pointer-events="none"/><g fill="#FFFFFF" font-family="Verdana" text-anchor="middle" font-size="14px"><text x="283.91" y="117.5">S1@T2</text></g><g fill="#000000" font-family="Helvetica" clip-path="url(#mx-clip-254-131-62-26-0)" text-anchor="middle" font-size="14px"><text x="284.5" y="145.5">Insert 'M'</text></g><g fill="#000000" font-family="Helvetica" clip-path="url(#mx-clip-254-157-62-28-0)" text-anchor="middle" font-size="14px"><text x="284.5" y="171.5">S1@T1</text></g><rect x="350" y="200" width="70" height="80" rx="11.7" ry="11.7" fill="#ffffff" stroke="#000000" pointer-events="none"/><path d="M 420 226 L 420 211.7 Q 420 200 408.3 200 L 361.7 200 Q 350 200 350 211.7 L 350 226 Z" fill="#009900" stroke="#000000" stroke-miterlimit="10" pointer-events="none"/><g fill="#FFFFFF" font-family="Verdana" text-anchor="middle" font-size="14px"><text x="383.91" y="217.5">S1@T3</text></g><g fill="#000000" font-family="Helvetica" clip-path="url(#mx-clip-354-231-62-26-0)" text-anchor="middle" font-size="14px"><text x="384.5" y="245.5">Insert 'D'</text></g><g fill="#000000" font-family="Helvetica" clip-path="url(#mx-clip-354-257-62-28-0)" text-anchor="middle" font-size="14px"><text x="384.5" y="271.5">S1@T2</text></g><rect x="150" y="200" width="70" height="80" rx="11.7" ry="11.7" fill="#ffffff" stroke="#000000" pointer-events="none"/><path d="M 220 226 L 220 211.7 Q 220 200 208.3 200 L 161.7 200 Q 150 200 150 211.7 L 150 226 Z" fill="#009900" stroke="#000000" stroke-miterlimit="10" pointer-events="none"/><g fill="#FFFFFF" font-family="Verdana" text-anchor="middle" font-size="14px"><text x="183.91" y="217.5">S1@T6</text></g><g fill="#000000" font-family="Helvetica" clip-path="url(#mx-clip-154-231-62-26-0)" text-anchor="middle" font-size="14px"><text x="184.5" y="245.5">Delete</text></g><g fill="#000000" font-family="Helvetica" clip-path="url(#mx-clip-154-257-62-28-0)" text-anchor="middle" font-size="14px"><text x="184.5" y="271.5">S1@T2</text></g><rect x="450" y="300" width="70" height="80" rx="11.7" ry="11.7" fill="#ffffff" stroke="#000000" pointer-events="none"/><path d="M 520 326 L 520 311.7 Q 520 300 508.3 300 L 461.7 300 Q 450 300 450 311.7 L 450 326 Z" fill="#0066cc" stroke="#000000" stroke-miterlimit="10" pointer-events="none"/><g fill="#FFFFFF" font-family="Verdana" text-anchor="middle" font-size="14px"><text x="483.91" y="317.5">S2@T6</text></g><g fill="#000000" font-family="Helvetica" clip-path="url(#mx-clip-454-331-62-26-0)" text-anchor="middle" font-size="14px"><text x="484.5" y="345.5">Insert 'D'</text></g><g fill="#000000" font-family="Helvetica" clip-path="url(#mx-clip-454-357-62-28-0)" text-anchor="middle" font-size="14px"><text x="484.5" y="371.5">S1@T3</text></g><rect x="350" y="300" width="70" height="80" rx="11.7" ry="11.7" fill="#ffffff" stroke="#000000" pointer-events="none"/><path d="M 420 326 L 420 311.7 Q 420 300 408.3 300 L 361.7 300 Q 350 300 350 311.7 L 350 326 Z" fill="#009900" stroke="#000000" stroke-miterlimit="10" pointer-events="none"/><g fill="#FFFFFF" font-family="Verdana" text-anchor="middle" font-size="14px"><text x="383.91" y="317.5">S1@T7</text></g><g fill="#000000" font-family="Helvetica" clip-path="url(#mx-clip-354-331-62-26-0)" text-anchor="middle" font-size="14px"><text x="384.5" y="345.5">Delete</text></g><g fill="#000000" font-family="Helvetica" clip-path="url(#mx-clip-354-357-62-28-0)" text-anchor="middle" font-size="14px"><text x="384.5" y="371.5">S1@T3</text></g><rect x="450" y="400" width="70" height="80" rx="11.7" ry="11.7" fill="#ffffff" stroke="#000000" pointer-events="none"/><path d="M 520 426 L 520 411.7 Q 520 400 508.3 400 L 461.7 400 Q 450 400 450 411.7 L 450 426 Z" fill="#0066cc" stroke="#000000" stroke-miterlimit="10" pointer-events="none"/><g fill="#FFFFFF" font-family="Verdana" text-anchor="middle" font-size="14px"><text x="483.91" y="417.5">S2@T7</text></g><g fill="#000000" font-family="Helvetica" clip-path="url(#mx-clip-454-431-62-26-0)" text-anchor="middle" font-size="14px"><text x="484.5" y="445.5">Insert 'E'</text></g><g fill="#000000" font-family="Helvetica" clip-path="url(#mx-clip-454-457-62-28-0)" text-anchor="middle" font-size="14px"><text x="484.5" y="471.5">S2@T6</text></g><rect x="250" y="300" width="70" height="80" rx="11.7" ry="11.7" fill="#ffffff" stroke="#000000" pointer-events="none"/><path d="M 320 326 L 320 311.7 Q 320 300 308.3 300 L 261.7 300 Q 250 300 250 311.7 L 250 326 Z" fill="#cc0066" stroke="#000000" stroke-miterlimit="10" pointer-events="none"/><g fill="#FFFFFF" font-family="Verdana" text-anchor="middle" font-size="14px"><text x="283.91" y="317.5">S3@T7</text></g><g fill="#000000" font-family="Helvetica" clip-path="url(#mx-clip-254-331-62-26-0)" text-anchor="middle" font-size="14px"><text x="284.5" y="345.5">Insert 'A'</text></g><g fill="#000000" font-family="Helvetica" clip-path="url(#mx-clip-254-357-62-28-0)" text-anchor="middle" font-size="14px"><text x="284.5" y="371.5">S1@T3</text></g><rect x="450" y="500" width="70" height="80" rx="11.7" ry="11.7" fill="#ffffff" stroke="#000000" pointer-events="none"/><path d="M 520 526 L 520 511.7 Q 520 500 508.3 500 L 461.7 500 Q 450 500 450 511.7 L 450 526 Z" fill="#0066cc" stroke="#000000" stroke-miterlimit="10" pointer-events="none"/><g fill="#FFFFFF" font-family="Verdana" text-anchor="middle" font-size="14px"><text x="483.91" y="517.5">S2@T8</text></g><g fill="#000000" font-family="Helvetica" clip-path="url(#mx-clip-454-531-62-26-0)" text-anchor="middle" font-size="14px"><text x="484.5" y="545.5">Insert 'L'</text></g><g fill="#000000" font-family="Helvetica" clip-path="url(#mx-clip-454-557-62-28-0)" text-anchor="middle" font-size="14px"><text x="484.5" y="571.5">S2@T7</text></g><rect x="0" y="100" width="70" height="80" rx="11.7" ry="11.7" fill="#ffffff" stroke="#000000" pointer-events="none"/><path d="M 70 126 L 70 111.7 Q 70 100 58.3 100 L 11.7 100 Q 0 100 0 111.7 L 0 126 Z" fill="#009900" stroke="#000000" stroke-miterlimit="10" pointer-events="none"/><g fill="#FFFFFF" font-family="Verdana" text-anchor="middle" font-size="14px"><text x="33.91" y="117.5">S1@T8</text></g><g fill="#000000" font-family="Helvetica" clip-path="url(#mx-clip-4-131-62-26-0)" text-anchor="middle" font-size="14px"><text x="34.5" y="145.5">Insert 'T'</text></g><g fill="#000000" font-family="Helvetica" clip-path="url(#mx-clip-4-157-62-28-0)" text-anchor="middle" font-size="14px"><text x="34.5" y="171.5">S1@T1</text></g><rect x="250" y="400" width="70" height="80" rx="11.7" ry="11.7" fill="#ffffff" stroke="#000000" pointer-events="none"/><path d="M 320 426 L 320 411.7 Q 320 400 308.3 400 L 261.7 400 Q 250 400 250 411.7 L 250 426 Z" fill="#cc0066" stroke="#000000" stroke-miterlimit="10" pointer-events="none"/><g fill="#FFFFFF" font-family="Verdana" text-anchor="middle" font-size="14px"><text x="283.91" y="417.5">S3@T8</text></g><g fill="#000000" font-family="Helvetica" clip-path="url(#mx-clip-254-431-62-26-0)" text-anchor="middle" font-size="14px"><text x="284.5" y="445.5">Insert 'L'</text></g><g fill="#000000" font-family="Helvetica" clip-path="url(#mx-clip-254-457-62-28-0)" text-anchor="middle" font-size="14px"><text x="284.5" y="471.5">S3@T7</text></g><rect x="0" y="200" width="70" height="80" rx="11.7" ry="11.7" fill="#ffffff" stroke="#000000" pointer-events="none"/><path d="M 70 226 L 70 211.7 Q 70 200 58.3 200 L 11.7 200 Q 0 200 0 211.7 L 0 226 Z" fill="#009900" stroke="#000000" stroke-miterlimit="10" pointer-events="none"/><g fill="#FFFFFF" font-family="Verdana" text-anchor="middle" font-size="14px"><text x="33.91" y="217.5">S1@T9</text></g><g fill="#000000" font-family="Helvetica" clip-path="url(#mx-clip-4-231-62-26-0)" text-anchor="middle" font-size="14px"><text x="34.5" y="245.5">Insert 'R'</text></g><g fill="#000000" font-family="Helvetica" clip-path="url(#mx-clip-4-257-62-28-0)" text-anchor="middle" font-size="14px"><text x="34.5" y="271.5">S1@T8</text></g><rect x="250" y="500" width="70" height="80" rx="11.7" ry="11.7" fill="#ffffff" stroke="#000000" pointer-events="none"/><path d="M 320 526 L 320 511.7 Q 320 500 308.3 500 L 261.7 500 Q 250 500 250 511.7 L 250 526 Z" fill="#cc0066" stroke="#000000" stroke-miterlimit="10" pointer-events="none"/><g fill="#FFFFFF" font-family="Verdana" text-anchor="middle" font-size="14px"><text x="283.91" y="517.5">S3@T9</text></g><g fill="#000000" font-family="Helvetica" clip-path="url(#mx-clip-254-531-62-26-0)" text-anchor="middle" font-size="14px"><text x="284.5" y="545.5">Insert 'T'</text></g><g fill="#000000" font-family="Helvetica" clip-path="url(#mx-clip-254-557-62-28-0)" text-anchor="middle" font-size="14px"><text x="284.5" y="571.5">S3@T8</text></g><rect x="0" y="300" width="70" height="80" rx="11.7" ry="11.7" fill="#ffffff" stroke="#000000" pointer-events="none"/><path d="M 70 326 L 70 311.7 Q 70 300 58.3 300 L 11.7 300 Q 0 300 0 311.7 L 0 326 Z" fill="#009900" stroke="#000000" stroke-miterlimit="10" pointer-events="none"/><g fill="#FFFFFF" font-family="Verdana" text-anchor="middle" font-size="14px"><text x="33.91" y="317.5">S1@TA</text></g><g fill="#000000" font-family="Helvetica" clip-path="url(#mx-clip-4-331-62-26-0)" text-anchor="middle" font-size="14px"><text x="34.5" y="345.5">Insert 'L'</text></g><g fill="#000000" font-family="Helvetica" clip-path="url(#mx-clip-4-357-62-28-0)" text-anchor="middle" font-size="14px"><text x="34.5" y="371.5">S1@T9</text></g></g></svg>