<!DOCTYPE svg PUBLIC "-//W3C//DTD SVG 1.1//EN" "http://www.w3.org/Graphics/SVG/1.1/DTD/svg11.dtd">
<svg xmlns="http://www.w3.org/2000/svg" xmlns:xlink="http://www.w3.org/1999/xlink" width="701px" height="326px" version="1.1"><defs><clipPath id="mx-clip-4-60-62-26-0"><rect x="4" y="60" width="62" height="26"/></clipPath><clipPath id="mx-clip-4-86-62-28-0"><rect x="4" y="86" width="62" height="28"/></clipPath><clipPath id="mx-clip-94-60-62-26-0"><rect x="94" y="60" width="62" height="26"/></clipPath><clipPath id="mx-clip-94-86-62-28-0"><rect x="94" y="86" width="62" height="28"/></clipPath><clipPath id="mx-clip-184-60-62-26-0"><rect x="184" y="60" width="62" height="26"/></clipPath><clipPath id="mx-clip-184-86-62-28-0"><rect x="184" y="86" width="62" height="28"/></clipPath><clipPath id="mx-clip-274-60-62-26-0"><rect x="274" y="60" width="62" height="26"/></clipPath><clipPath id="mx-clip-274-86-62-28-0"><rect x="274" y="86" width="62" height="28"/></clipPath><clipPath id="mx-clip-4-160-62-26-0"><rect x="4" y="160" width="62" height="26"/></clipPath><clipPath id="mx-clip-4-186-62-28-0"><rect x="4" y="186" width="62" height="28"/></clipPath><clipPath id="mx-clip-364-60-62-26-0"><rect x="364" y="60" width="62" height="26"/></clipPath><clipPath id="mx-clip-364-86-62-28-0"><rect x="364" y="86" width="62" height="28"/></clipPath><clipPath id="mx-clip-94-160-62-26-0"><rect x="94" y="160" width="62" height="26"/></clipPath><clipPath id="mx-clip-94-186-62-28-0"><rect x="94" y="186" width="62" height="28"/></clipPath><clipPath id="mx-clip-4-260-62-26-0"><rect x="4" y="260" width="62" height="26"/></clipPath><clipPath id="mx-clip-4-286-62-28-0"><rect x="4" y="286" width="62" height="28"/></clipPath><clipPath id="mx-clip-184-160-62-26-0"><rect x="184" y="160" width="62" height="26"/></clipPath><clipPath id="mx-clip-184-186-62-28-0"><rect x="184" y="186" width="62" height="28"/></clipPath><clipPath id="mx-clip-454-60-62-26-0"><rect x="454" y="60" width="62" height="26"/></clipPath><clipPath id="mx-clip-454-86-62-28-0"><rect x="454" y="86" width="62" height="28"/></clipPath><clipPath id="mx-clip-94-260-62-26-0"><rect x="94" y="260" width="62" height="26"/></clipPath><clipPath id="mx-clip-94-286-62-28-0"><rect x="94" y="286" width="62" height="28"/></clipPath><clipPath id="mx-clip-544-60-62-26-0"><rect x="544" y="60" width="62" height="26"/></clipPath><clipPath id="mx-clip-544-86-62-28-0"><rect x="544" y="86" width="62" height="28"/></clipPath><clipPath id="mx-clip-184-260-62-26-0"><rect x="184" y="260" width="62" height="26"/></clipPath><clipPath id="mx-clip-184-286-62-28-0"><rect x="184" y="286" width="62" height="28"/></clipPath><clipPath id="mx-clip-634-60-62-26-0"><rect x="634" y="60" width="62" height="26"/></clipPath><clipPath id="mx-clip-634-86-62-28-0"><rect x="634" y="86" width="62" height="28"/></clipPath></defs><g transform="translate(0.5,0.5)"><path d="M 82 324 Q 60 209 125 219 Q 190 229 170 169 Q 150 109 255 124 Q 360 139 350 89 Q 340 39 376.84 2.16" fill="none" stroke="#757575" stroke-width="2" stroke-miterlimit="10" stroke-dasharray="2 2" pointer-events="none"/><path d="M 375.59 9.07 L 378.42 0.58 L 369.93 3.41" fill="none" stroke="#757575" stroke-width="2" stroke-miterlimit="10" pointer-events="none"/><rect x="0" y="29" width="70" height="80" rx="11.7" ry="11.7" fill="#ffffff" stroke="#000000" pointer-events="none"/><path d="M 70 55 L 70 40.7 Q 70 29 58.3 29 L 11.7 29 Q 0 29 0 40.7 L 0 55 Z" fill="#009900" stroke="#000000" stroke-miterlimit="10" pointer-events="none"/><g fill="#FFFFFF" font-family="Verdana" text-anchor="middle" font-size="14px"><text x="34.5" y="47.5">S1@T1</text></g><g fill="#000000" font-family="Helvetica" clip-path="url(#mx-clip-4-60-62-26-0)" text-anchor="middle" font-size="14px"><text x="34.5" y="74.5">Insert 'C'</text></g><g fill="#000000" font-family="Helvetica" clip-path="url(#mx-clip-4-86-62-28-0)" text-anchor="middle" font-size="14px"><text x="34.5" y="100.5">ø</text></g><rect x="90" y="29" width="70" height="80" rx="11.7" ry="11.7" fill="#ffffff" stroke="#000000" pointer-events="none"/><path d="M 160 55 L 160 40.7 Q 160 29 148.3 29 L 101.7 29 Q 90 29 90 40.7 L 90 55 Z" fill="#009900" stroke="#000000" stroke-miterlimit="10" pointer-events="none"/><g fill="#FFFFFF" font-family="Verdana" text-anchor="middle" font-size="14px"><text x="124.5" y="47.5">S1@T2</text></g><g fill="#000000" font-family="Helvetica" clip-path="url(#mx-clip-94-60-62-26-0)" text-anchor="middle" font-size="14px"><text x="124.5" y="74.5">Insert 'M'</text></g><g fill="#000000" font-family="Helvetica" clip-path="url(#mx-clip-94-86-62-28-0)" text-anchor="middle" font-size="14px"><text x="124.5" y="100.5">S1@T1</text></g><rect x="180" y="29" width="70" height="80" rx="11.7" ry="11.7" fill="#ffffff" stroke="#000000" pointer-events="none"/><path d="M 250 55 L 250 40.7 Q 250 29 238.3 29 L 191.7 29 Q 180 29 180 40.7 L 180 55 Z" fill="#009900" stroke="#000000" stroke-miterlimit="10" pointer-events="none"/><g fill="#FFFFFF" font-family="Verdana" text-anchor="middle" font-size="14px"><text x="214.5" y="47.5">S1@T3</text></g><g fill="#000000" font-family="Helvetica" clip-path="url(#mx-clip-184-60-62-26-0)" text-anchor="middle" font-size="14px"><text x="214.5" y="74.5">Insert 'D'</text></g><g fill="#000000" font-family="Helvetica" clip-path="url(#mx-clip-184-86-62-28-0)" text-anchor="middle" font-size="14px"><text x="214.5" y="100.5">S1@T2</text></g><rect x="270" y="29" width="70" height="80" rx="11.7" ry="11.7" fill="#ffffff" stroke="#000000" pointer-events="none"/><path d="M 340 55 L 340 40.7 Q 340 29 328.3 29 L 281.7 29 Q 270 29 270 40.7 L 270 55 Z" fill="#009900" stroke="#000000" stroke-miterlimit="10" pointer-events="none"/><g fill="#FFFFFF" font-family="Verdana" text-anchor="middle" font-size="14px"><text x="304.5" y="47.5">S1@T6</text></g><g fill="#000000" font-family="Helvetica" clip-path="url(#mx-clip-274-60-62-26-0)" text-anchor="middle" font-size="14px"><text x="304.5" y="74.5">Delete</text></g><g fill="#000000" font-family="Helvetica" clip-path="url(#mx-clip-274-86-62-28-0)" text-anchor="middle" font-size="14px"><text x="304.5" y="100.5">S1@T2</text></g><rect x="0" y="129" width="70" height="80" rx="11.7" ry="11.7" fill="#ffffff" stroke="#000000" pointer-events="none"/><path d="M 70 155 L 70 140.7 Q 70 129 58.3 129 L 11.7 129 Q 0 129 0 140.7 L 0 155 Z" fill="#0066cc" stroke="#000000" stroke-miterlimit="10" pointer-events="none"/><g fill="#FFFFFF" font-family="Verdana" text-anchor="middle" font-size="14px"><text x="34.5" y="147.5">S2@T6</text></g><g fill="#000000" font-family="Helvetica" clip-path="url(#mx-clip-4-160-62-26-0)" text-anchor="middle" font-size="14px"><text x="34.5" y="174.5">Insert 'D'</text></g><g fill="#000000" font-family="Helvetica" clip-path="url(#mx-clip-4-186-62-28-0)" text-anchor="middle" font-size="14px"><text x="34.5" y="200.5">S1@T3</text></g><rect x="360" y="29" width="70" height="80" rx="11.7" ry="11.7" fill-opacity="0.4" fill="#ffffff" stroke="#9c9c9c" stroke-opacity="0.4" pointer-events="none"/><path d="M 430 55 L 430 40.7 Q 430 29 418.3 29 L 371.7 29 Q 360 29 360 40.7 L 360 55 Z" fill-opacity="0.4" fill="#009900" stroke="#9c9c9c" stroke-opacity="0.4" stroke-miterlimit="10" pointer-events="none"/><g fill="#FFFFFF" font-family="Verdana" text-anchor="middle" font-size="14px"><text x="394.5" y="47.5">S1@T7</text></g><g fill="#000000" font-family="Helvetica" clip-path="url(#mx-clip-364-60-62-26-0)" text-anchor="middle" font-size="14px" opacity="0.4"><text x="394.5" y="74.5">Delete</text></g><g fill="#000000" font-family="Helvetica" clip-path="url(#mx-clip-364-86-62-28-0)" text-anchor="middle" font-size="14px" opacity="0.4"><text x="394.5" y="100.5">S1@T3</text></g><rect x="90" y="129" width="70" height="80" rx="11.7" ry="11.7" fill="#ffffff" stroke="#000000" pointer-events="none"/><path d="M 160 155 L 160 140.7 Q 160 129 148.3 129 L 101.7 129 Q 90 129 90 140.7 L 90 155 Z" fill="#0066cc" stroke="#000000" stroke-miterlimit="10" pointer-events="none"/><g fill="#FFFFFF" font-family="Verdana" text-anchor="middle" font-size="14px"><text x="124.5" y="147.5">S2@T7</text></g><g fill="#000000" font-family="Helvetica" clip-path="url(#mx-clip-94-160-62-26-0)" text-anchor="middle" font-size="14px"><text x="124.5" y="174.5">Insert 'E'</text></g><g fill="#000000" font-family="Helvetica" clip-path="url(#mx-clip-94-186-62-28-0)" text-anchor="middle" font-size="14px"><text x="124.5" y="200.5">S2@T6</text></g><rect x="0" y="229" width="70" height="80" rx="11.7" ry="11.7" fill="#ffffff" stroke="#000000" pointer-events="none"/><path d="M 70 255 L 70 240.7 Q 70 229 58.3 229 L 11.7 229 Q 0 229 0 240.7 L 0 255 Z" fill="#cc0066" stroke="#000000" stroke-miterlimit="10" pointer-events="none"/><g fill="#FFFFFF" font-family="Verdana" text-anchor="middle" font-size="14px"><text x="34.5" y="247.5">S3@T7</text></g><g fill="#000000" font-family="Helvetica" clip-path="url(#mx-clip-4-260-62-26-0)" text-anchor="middle" font-size="14px"><text x="34.5" y="274.5">Insert 'A'</text></g><g fill="#000000" font-family="Helvetica" clip-path="url(#mx-clip-4-286-62-28-0)" text-anchor="middle" font-size="14px"><text x="34.5" y="300.5">S1@T3</text></g><rect x="180" y="129" width="70" height="80" rx="11.7" ry="11.7" fill-opacity="0.4" fill="#ffffff" stroke="#9c9c9c" stroke-opacity="0.4" pointer-events="none"/><path d="M 250 155 L 250 140.7 Q 250 129 238.3 129 L 191.7 129 Q 180 129 180 140.7 L 180 155 Z" fill-opacity="0.4" fill="#0066cc" stroke="#9c9c9c" stroke-opacity="0.4" stroke-miterlimit="10" pointer-events="none"/><g fill="#FFFFFF" font-family="Verdana" text-anchor="middle" font-size="14px"><text x="214.5" y="147.5">S2@T8</text></g><g fill="#000000" font-family="Helvetica" clip-path="url(#mx-clip-184-160-62-26-0)" text-anchor="middle" font-size="14px" opacity="0.4"><text x="214.5" y="174.5">Insert 'L'</text></g><g fill="#000000" font-family="Helvetica" clip-path="url(#mx-clip-184-186-62-28-0)" text-anchor="middle" font-size="14px" opacity="0.4"><text x="214.5" y="200.5">S2@T7</text></g><rect x="450" y="29" width="70" height="80" rx="11.7" ry="11.7" fill-opacity="0.4" fill="#ffffff" stroke="#9c9c9c" stroke-opacity="0.4" pointer-events="none"/><path d="M 520 55 L 520 40.7 Q 520 29 508.3 29 L 461.7 29 Q 450 29 450 40.7 L 450 55 Z" fill-opacity="0.4" fill="#009900" stroke="#9c9c9c" stroke-opacity="0.4" stroke-miterlimit="10" pointer-events="none"/><g fill="#FFFFFF" font-family="Verdana" text-anchor="middle" font-size="14px"><text x="484.5" y="47.5">S1@T8</text></g><g fill="#000000" font-family="Helvetica" clip-path="url(#mx-clip-454-60-62-26-0)" text-anchor="middle" font-size="14px" opacity="0.4"><text x="484.5" y="74.5">Insert 'T'</text></g><g fill="#000000" font-family="Helvetica" clip-path="url(#mx-clip-454-86-62-28-0)" text-anchor="middle" font-size="14px" opacity="0.4"><text x="484.5" y="100.5">S1@T1</text></g><rect x="90" y="229" width="70" height="80" rx="11.7" ry="11.7" fill-opacity="0.4" fill="#ffffff" stroke="#9c9c9c" stroke-opacity="0.4" pointer-events="none"/><path d="M 160 255 L 160 240.7 Q 160 229 148.3 229 L 101.7 229 Q 90 229 90 240.7 L 90 255 Z" fill-opacity="0.4" fill="#cc0066" stroke="#9c9c9c" stroke-opacity="0.4" stroke-miterlimit="10" pointer-events="none"/><g fill="#FFFFFF" font-family="Verdana" text-anchor="middle" font-size="14px"><text x="124.5" y="247.5">S3@T8</text></g><g fill="#000000" font-family="Helvetica" clip-path="url(#mx-clip-94-260-62-26-0)" text-anchor="middle" font-size="14px" opacity="0.4"><text x="124.5" y="274.5">Insert 'L'</text></g><g fill="#000000" font-family="Helvetica" clip-path="url(#mx-clip-94-286-62-28-0)" text-anchor="middle" font-size="14px" opacity="0.4"><text x="124.5" y="300.5">S3@T7</text></g><rect x="540" y="29" width="70" height="80" rx="11.7" ry="11.7" fill-opacity="0.4" fill="#ffffff" stroke="#9c9c9c" stroke-opacity="0.4" pointer-events="none"/><path d="M 610 55 L 610 40.7 Q 610 29 598.3 29 L 551.7 29 Q 540 29 540 40.7 L 540 55 Z" fill-opacity="0.4" fill="#009900" stroke="#9c9c9c" stroke-opacity="0.4" stroke-miterlimit="10" pointer-events="none"/><g fill="#FFFFFF" font-family="Verdana" text-anchor="middle" font-size="14px"><text x="574.5" y="47.5">S1@T9</text></g><g fill="#000000" font-family="Helvetica" clip-path="url(#mx-clip-544-60-62-26-0)" text-anchor="middle" font-size="14px" opacity="0.4"><text x="574.5" y="74.5">Insert 'R'</text></g><g fill="#000000" font-family="Helvetica" clip-path="url(#mx-clip-544-86-62-28-0)" text-anchor="middle" font-size="14px" opacity="0.4"><text x="574.5" y="100.5">S1@T8</text></g><rect x="180" y="229" width="70" height="80" rx="11.7" ry="11.7" fill-opacity="0.4" fill="#ffffff" stroke="#9c9c9c" stroke-opacity="0.4" pointer-events="none"/><path d="M 250 255 L 250 240.7 Q 250 229 238.3 229 L 191.7 229 Q 180 229 180 240.7 L 180 255 Z" fill-opacity="0.4" fill="#cc0066" stroke="#9c9c9c" stroke-opacity="0.4" stroke-miterlimit="10" pointer-events="none"/><g fill="#FFFFFF" font-family="Verdana" text-anchor="middle" font-size="14px"><text x="214.5" y="247.5">S3@T9</text></g><g fill="#000000" font-family="Helvetica" clip-path="url(#mx-clip-184-260-62-26-0)" text-anchor="middle" font-size="14px" opacity="0.4"><text x="214.5" y="274.5">Insert 'T'</text></g><g fill="#000000" font-family="Helvetica" clip-path="url(#mx-clip-184-286-62-28-0)" text-anchor="middle" font-size="14px" opacity="0.4"><text x="214.5" y="300.5">S3@T8</text></g><rect x="630" y="29" width="70" height="80" rx="11.7" ry="11.7" fill-opacity="0.4" fill="#ffffff" stroke="#9c9c9c" stroke-opacity="0.4" pointer-events="none"/><path d="M 700 55 L 700 40.7 Q 700 29 688.3 29 L 641.7 29 Q 630 29 630 40.7 L 630 55 Z" fill-opacity="0.4" fill="#009900" stroke="#9c9c9c" stroke-opacity="0.4" stroke-miterlimit="10" pointer-events="none"/><g fill="#FFFFFF" font-family="Verdana" text-anchor="middle" font-size="14px"><text x="664.5" y="47.5">S1@TA</text></g><g fill="#000000" font-family="Helvetica" clip-path="url(#mx-clip-634-60-62-26-0)" text-anchor="middle" font-size="14px" opacity="0.4"><text x="664.5" y="74.5">Insert 'L'</text></g><g fill="#000000" font-family="Helvetica" clip-path="url(#mx-clip-634-86-62-28-0)" text-anchor="middle" font-size="14px" opacity="0.4"><text x="664.5" y="100.5">S1@T9</text></g></g></svg>