<!DOCTYPE svg PUBLIC "-//W3C//DTD SVG 1.1//EN" "http://www.w3.org/Graphics/SVG/1.1/DTD/svg11.dtd">
<svg xmlns="http://www.w3.org/2000/svg" xmlns:xlink="http://www.w3.org/1999/xlink" width="701px" height="284px" version="1.1"><defs><clipPath id="mx-clip-4-31-62-26-0"><rect x="4" y="31" width="62" height="26"/></clipPath><clipPath id="mx-clip-4-57-62-28-0"><rect x="4" y="57" width="62" height="28"/></clipPath><clipPath id="mx-clip-94-31-62-26-0"><rect x="94" y="31" width="62" height="26"/></clipPath><clipPath id="mx-clip-94-57-62-28-0"><rect x="94" y="57" width="62" height="28"/></clipPath><clipPath id="mx-clip-184-31-62-26-0"><rect x="184" y="31" width="62" height="26"/></clipPath><clipPath id="mx-clip-184-57-62-28-0"><rect x="184" y="57" width="62" height="28"/></clipPath><clipPath id="mx-clip-274-31-62-26-0"><rect x="274" y="31" width="62" height="26"/></clipPath><clipPath id="mx-clip-274-57-62-28-0"><rect x="274" y="57" width="62" height="28"/></clipPath><clipPath id="mx-clip-4-131-62-26-0"><rect x="4" y="131" width="62" height="26"/></clipPath><clipPath id="mx-clip-4-157-62-28-0"><rect x="4" y="157" width="62" height="28"/></clipPath><clipPath id="mx-clip-364-31-62-26-0"><rect x="364" y="31" width="62" height="26"/></clipPath><clipPath id="mx-clip-364-57-62-28-0"><rect x="364" y="57" width="62" height="28"/></clipPath><clipPath id="mx-clip-94-131-62-26-0"><rect x="94" y="131" width="62" height="26"/></clipPath><clipPath id="mx-clip-94-157-62-28-0"><rect x="94" y="157" width="62" height="28"/></clipPath><clipPath id="mx-clip-4-231-62-26-0"><rect x="4" y="231" width="62" height="26"/></clipPath><clipPath id="mx-clip-4-257-62-28-0"><rect x="4" y="257" width="62" height="28"/></clipPath><clipPath id="mx-clip-184-131-62-26-0"><rect x="184" y="131" width="62" height="26"/></clipPath><clipPath id="mx-clip-184-157-62-28-0"><rect x="184" y="157" width="62" height="28"/></clipPath><clipPath id="mx-clip-454-31-62-26-0"><rect x="454" y="31" width="62" height="26"/></clipPath><clipPath id="mx-clip-454-57-62-28-0"><rect x="454" y="57" width="62" height="28"/></clipPath><clipPath id="mx-clip-94-231-62-26-0"><rect x="94" y="231" width="62" height="26"/></clipPath><clipPath id="mx-clip-94-257-62-28-0"><rect x="94" y="257" width="62" height="28"/></clipPath><clipPath id="mx-clip-544-31-62-26-0"><rect x="544" y="31" width="62" height="26"/></clipPath><clipPath id="mx-clip-544-57-62-28-0"><rect x="544" y="57" width="62" height="28"/></clipPath><clipPath id="mx-clip-184-231-62-26-0"><rect x="184" y="231" width="62" height="26"/></clipPath><clipPath id="mx-clip-184-257-62-28-0"><rect x="184" y="257" width="62" height="28"/></clipPath><clipPath id="mx-clip-634-31-62-26-0"><rect x="634" y="31" width="62" height="26"/></clipPath><clipPath id="mx-clip-634-57-62-28-0"><rect x="634" y="57" width="62" height="28"/></clipPath></defs><g transform="translate(0.5,0.5)"><rect x="0" y="0" width="70" height="80" rx="11.7" ry="11.7" fill="#ffffff" stroke="#000000" pointer-events="none"/><path d="M 70 26 L 70 11.7 Q 70 0 58.3 0 L 11.7 0 Q 0 0 0 11.7 L 0 26 Z" fill="#009900" stroke="#000000" stroke-miterlimit="10" pointer-events="none"/><g fill="#FFFFFF" font-family="Verdana" text-anchor="middle" font-size="14px"><text x="34.5" y="18.5">S1@T1</text></g><g fill="#000000" font-family="Helvetica" clip-path="url(#mx-clip-4-31-62-26-0)" text-anchor="middle" font-size="14px"><text x="34.5" y="45.5">Insert 'C'</text></g><g fill="#000000" font-family="Helvetica" clip-path="url(#mx-clip-4-57-62-28-0)" text-anchor="middle" font-size="14px"><text x="34.5" y="71.5">ø</text></g><rect x="90" y="0" width="70" height="80" rx="11.7" ry="11.7" fill="#ffffff" stroke="#000000" pointer-events="none"/><path d="M 160 26 L 160 11.7 Q 160 0 148.3 0 L 101.7 0 Q 90 0 90 11.7 L 90 26 Z" fill="#009900" stroke="#000000" stroke-miterlimit="10" pointer-events="none"/><g fill="#FFFFFF" font-family="Verdana" text-anchor="middle" font-size="14px"><text x="124.5" y="18.5">S1@T2</text></g><g fill="#000000" font-family="Helvetica" clip-path="url(#mx-clip-94-31-62-26-0)" text-anchor="middle" font-size="14px"><text x="124.5" y="45.5">Insert 'M'</text></g><g fill="#000000" font-family="Helvetica" clip-path="url(#mx-clip-94-57-62-28-0)" text-anchor="middle" font-size="14px"><text x="124.5" y="71.5">S1@T1</text></g><rect x="180" y="0" width="70" height="80" rx="11.7" ry="11.7" fill="#ffffff" stroke="#000000" pointer-events="none"/><path d="M 250 26 L 250 11.7 Q 250 0 238.3 0 L 191.7 0 Q 180 0 180 11.7 L 180 26 Z" fill="#009900" stroke="#000000" stroke-miterlimit="10" pointer-events="none"/><g fill="#FFFFFF" font-family="Verdana" text-anchor="middle" font-size="14px"><text x="214.5" y="18.5">S1@T3</text></g><g fill="#000000" font-family="Helvetica" clip-path="url(#mx-clip-184-31-62-26-0)" text-anchor="middle" font-size="14px"><text x="214.5" y="45.5">Insert 'D'</text></g><g fill="#000000" font-family="Helvetica" clip-path="url(#mx-clip-184-57-62-28-0)" text-anchor="middle" font-size="14px"><text x="214.5" y="71.5">S1@T2</text></g><rect x="270" y="0" width="70" height="80" rx="11.7" ry="11.7" fill="#ffffff" stroke="#000000" pointer-events="none"/><path d="M 340 26 L 340 11.7 Q 340 0 328.3 0 L 281.7 0 Q 270 0 270 11.7 L 270 26 Z" fill="#009900" stroke="#000000" stroke-miterlimit="10" pointer-events="none"/><g fill="#FFFFFF" font-family="Verdana" text-anchor="middle" font-size="14px"><text x="304.5" y="18.5">S1@T6</text></g><g fill="#000000" font-family="Helvetica" clip-path="url(#mx-clip-274-31-62-26-0)" text-anchor="middle" font-size="14px"><text x="304.5" y="45.5">Delete</text></g><g fill="#000000" font-family="Helvetica" clip-path="url(#mx-clip-274-57-62-28-0)" text-anchor="middle" font-size="14px"><text x="304.5" y="71.5">S1@T2</text></g><rect x="0" y="100" width="70" height="80" rx="11.7" ry="11.7" fill="#ffffff" stroke="#000000" pointer-events="none"/><path d="M 70 126 L 70 111.7 Q 70 100 58.3 100 L 11.7 100 Q 0 100 0 111.7 L 0 126 Z" fill="#0066cc" stroke="#000000" stroke-miterlimit="10" pointer-events="none"/><g fill="#FFFFFF" font-family="Verdana" text-anchor="middle" font-size="14px"><text x="34.5" y="118.5">S2@T6</text></g><g fill="#000000" font-family="Helvetica" clip-path="url(#mx-clip-4-131-62-26-0)" text-anchor="middle" font-size="14px"><text x="34.5" y="145.5">Insert 'D'</text></g><g fill="#000000" font-family="Helvetica" clip-path="url(#mx-clip-4-157-62-28-0)" text-anchor="middle" font-size="14px"><text x="34.5" y="171.5">S1@T3</text></g><rect x="360" y="0" width="70" height="80" rx="11.7" ry="11.7" fill="#ffffff" stroke="#000000" pointer-events="none"/><path d="M 430 26 L 430 11.7 Q 430 0 418.3 0 L 371.7 0 Q 360 0 360 11.7 L 360 26 Z" fill="#009900" stroke="#000000" stroke-miterlimit="10" pointer-events="none"/><g fill="#FFFFFF" font-family="Verdana" text-anchor="middle" font-size="14px"><text x="394.5" y="18.5">S1@T7</text></g><g fill="#000000" font-family="Helvetica" clip-path="url(#mx-clip-364-31-62-26-0)" text-anchor="middle" font-size="14px"><text x="394.5" y="45.5">Delete</text></g><g fill="#000000" font-family="Helvetica" clip-path="url(#mx-clip-364-57-62-28-0)" text-anchor="middle" font-size="14px"><text x="394.5" y="71.5">S1@T3</text></g><rect x="90" y="100" width="70" height="80" rx="11.7" ry="11.7" fill="#ffffff" stroke="#000000" pointer-events="none"/><path d="M 160 126 L 160 111.7 Q 160 100 148.3 100 L 101.7 100 Q 90 100 90 111.7 L 90 126 Z" fill="#0066cc" stroke="#000000" stroke-miterlimit="10" pointer-events="none"/><g fill="#FFFFFF" font-family="Verdana" text-anchor="middle" font-size="14px"><text x="124.5" y="118.5">S2@T7</text></g><g fill="#000000" font-family="Helvetica" clip-path="url(#mx-clip-94-131-62-26-0)" text-anchor="middle" font-size="14px"><text x="124.5" y="145.5">Insert 'E'</text></g><g fill="#000000" font-family="Helvetica" clip-path="url(#mx-clip-94-157-62-28-0)" text-anchor="middle" font-size="14px"><text x="124.5" y="171.5">S2@T6</text></g><rect x="0" y="200" width="70" height="80" rx="11.7" ry="11.7" fill="#ffffff" stroke="#000000" pointer-events="none"/><path d="M 70 226 L 70 211.7 Q 70 200 58.3 200 L 11.7 200 Q 0 200 0 211.7 L 0 226 Z" fill="#cc0066" stroke="#000000" stroke-miterlimit="10" pointer-events="none"/><g fill="#FFFFFF" font-family="Verdana" text-anchor="middle" font-size="14px"><text x="34.5" y="218.5">S3@T7</text></g><g fill="#000000" font-family="Helvetica" clip-path="url(#mx-clip-4-231-62-26-0)" text-anchor="middle" font-size="14px"><text x="34.5" y="245.5">Insert 'A'</text></g><g fill="#000000" font-family="Helvetica" clip-path="url(#mx-clip-4-257-62-28-0)" text-anchor="middle" font-size="14px"><text x="34.5" y="271.5">S1@T3</text></g><rect x="180" y="100" width="70" height="80" rx="11.7" ry="11.7" fill="#ffffff" stroke="#000000" pointer-events="none"/><path d="M 250 126 L 250 111.7 Q 250 100 238.3 100 L 191.7 100 Q 180 100 180 111.7 L 180 126 Z" fill="#0066cc" stroke="#000000" stroke-miterlimit="10" pointer-events="none"/><g fill="#FFFFFF" font-family="Verdana" text-anchor="middle" font-size="14px"><text x="214.5" y="118.5">S2@T8</text></g><g fill="#000000" font-family="Helvetica" clip-path="url(#mx-clip-184-131-62-26-0)" text-anchor="middle" font-size="14px"><text x="214.5" y="145.5">Insert 'L'</text></g><g fill="#000000" font-family="Helvetica" clip-path="url(#mx-clip-184-157-62-28-0)" text-anchor="middle" font-size="14px"><text x="214.5" y="171.5">S2@T7</text></g><rect x="450" y="0" width="70" height="80" rx="11.7" ry="11.7" fill="#ffffff" stroke="#000000" pointer-events="none"/><path d="M 520 26 L 520 11.7 Q 520 0 508.3 0 L 461.7 0 Q 450 0 450 11.7 L 450 26 Z" fill="#009900" stroke="#000000" stroke-miterlimit="10" pointer-events="none"/><g fill="#FFFFFF" font-family="Verdana" text-anchor="middle" font-size="14px"><text x="484.5" y="18.5">S1@T8</text></g><g fill="#000000" font-family="Helvetica" clip-path="url(#mx-clip-454-31-62-26-0)" text-anchor="middle" font-size="14px"><text x="484.5" y="45.5">Insert 'T'</text></g><g fill="#000000" font-family="Helvetica" clip-path="url(#mx-clip-454-57-62-28-0)" text-anchor="middle" font-size="14px"><text x="484.5" y="71.5">S1@T1</text></g><rect x="90" y="200" width="70" height="80" rx="11.7" ry="11.7" fill="#ffffff" stroke="#000000" pointer-events="none"/><path d="M 160 226 L 160 211.7 Q 160 200 148.3 200 L 101.7 200 Q 90 200 90 211.7 L 90 226 Z" fill="#cc0066" stroke="#000000" stroke-miterlimit="10" pointer-events="none"/><g fill="#FFFFFF" font-family="Verdana" text-anchor="middle" font-size="14px"><text x="124.5" y="218.5">S3@T8</text></g><g fill="#000000" font-family="Helvetica" clip-path="url(#mx-clip-94-231-62-26-0)" text-anchor="middle" font-size="14px"><text x="124.5" y="245.5">Insert 'L'</text></g><g fill="#000000" font-family="Helvetica" clip-path="url(#mx-clip-94-257-62-28-0)" text-anchor="middle" font-size="14px"><text x="124.5" y="271.5">S3@T7</text></g><rect x="540" y="0" width="70" height="80" rx="11.7" ry="11.7" fill="#ffffff" stroke="#000000" pointer-events="none"/><path d="M 610 26 L 610 11.7 Q 610 0 598.3 0 L 551.7 0 Q 540 0 540 11.7 L 540 26 Z" fill="#009900" stroke="#000000" stroke-miterlimit="10" pointer-events="none"/><g fill="#FFFFFF" font-family="Verdana" text-anchor="middle" font-size="14px"><text x="574.5" y="18.5">S1@T9</text></g><g fill="#000000" font-family="Helvetica" clip-path="url(#mx-clip-544-31-62-26-0)" text-anchor="middle" font-size="14px"><text x="574.5" y="45.5">Insert 'R'</text></g><g fill="#000000" font-family="Helvetica" clip-path="url(#mx-clip-544-57-62-28-0)" text-anchor="middle" font-size="14px"><text x="574.5" y="71.5">S1@T8</text></g><rect x="180" y="200" width="70" height="80" rx="11.7" ry="11.7" fill="#ffffff" stroke="#000000" pointer-events="none"/><path d="M 250 226 L 250 211.7 Q 250 200 238.3 200 L 191.7 200 Q 180 200 180 211.7 L 180 226 Z" fill="#cc0066" stroke="#000000" stroke-miterlimit="10" pointer-events="none"/><g fill="#FFFFFF" font-family="Verdana" text-anchor="middle" font-size="14px"><text x="214.5" y="218.5">S3@T9</text></g><g fill="#000000" font-family="Helvetica" clip-path="url(#mx-clip-184-231-62-26-0)" text-anchor="middle" font-size="14px"><text x="214.5" y="245.5">Insert 'T'</text></g><g fill="#000000" font-family="Helvetica" clip-path="url(#mx-clip-184-257-62-28-0)" text-anchor="middle" font-size="14px"><text x="214.5" y="271.5">S3@T8</text></g><rect x="630" y="0" width="70" height="80" rx="11.7" ry="11.7" fill="#ffffff" stroke="#000000" pointer-events="none"/><path d="M 700 26 L 700 11.7 Q 700 0 688.3 0 L 641.7 0 Q 630 0 630 11.7 L 630 26 Z" fill="#009900" stroke="#000000" stroke-miterlimit="10" pointer-events="none"/><g fill="#FFFFFF" font-family="Verdana" text-anchor="middle" font-size="14px"><text x="664.5" y="18.5">S1@TA</text></g><g fill="#000000" font-family="Helvetica" clip-path="url(#mx-clip-634-31-62-26-0)" text-anchor="middle" font-size="14px"><text x="664.5" y="45.5">Insert 'L'</text></g><g fill="#000000" font-family="Helvetica" clip-path="url(#mx-clip-634-57-62-28-0)" text-anchor="middle" font-size="14px"><text x="664.5" y="71.5">S1@T9</text></g></g></svg>